<?xml version="1.0" standalone="no"?>
<!DOCTYPE svg PUBLIC "-//W3C//DTD SVG 20010904//EN"
 "http://www.w3.org/TR/2001/REC-SVG-20010904/DTD/svg10.dtd">
<svg version="1.0" xmlns="http://www.w3.org/2000/svg"
 width="500.000000pt" height="500.000000pt" viewBox="0 0 500.000000 500.000000"
 preserveAspectRatio="xMidYMid meet">

<g transform="translate(0.000000,500.000000) scale(0.100000,-0.100000)"
fill="#000000" stroke="none">
<path d="M1140 4250 c-127 -24 -227 -75 -311 -159 -116 -116 -171 -260 -199
-523 -19 -185 -4 -409 39 -580 42 -165 153 -318 280 -386 128 -69 332 -92 487
-56 173 40 319 160 387 319 25 58 57 193 57 241 0 40 -1 42 -37 47 -33 5 -82
15 -278 58 -22 5 -54 12 -70 15 l-30 6 -14 -72 c-28 -152 -78 -210 -183 -210
-87 0 -144 55 -176 167 -22 78 -24 451 -3 533 33 131 89 190 180 190 48 0 74
-11 114 -49 36 -33 52 -70 68 -160 7 -39 18 -71 24 -71 5 0 99 19 208 42 l197
43 0 42 c0 102 -48 242 -117 341 -104 147 -253 220 -463 227 -63 2 -135 0
-160 -5z m84 -54 c-16 -18 -36 -42 -44 -52 -16 -20 -82 -107 -86 -113 -4 -4
-142 112 -143 121 -3 22 170 76 248 77 l53 1 -28 -34z m83 -9 c17 -23 40 -51
50 -62 23 -25 63 -81 63 -89 0 -3 -12 0 -27 6 -36 15 -219 14 -255 0 -34 -14
-35 -5 -5 28 12 14 46 55 76 93 30 37 57 67 60 67 3 0 20 -20 38 -43z m132 28
c56 -14 151 -52 151 -60 0 -2 -33 -31 -73 -64 l-74 -60 -69 86 c-95 119 -93
113 -38 113 25 0 72 -7 103 -15z m-439 -124 c14 -13 35 -30 47 -38 29 -19 21
-34 -40 -81 -33 -24 -66 -63 -89 -101 l-36 -63 3 64 4 63 -10 -70 c-5 -38 -14
-83 -19 -99 -5 -15 -8 -32 -5 -36 3 -5 0 -52 -6 -107 -6 -54 -11 -181 -10
-283 0 -102 -4 -192 -8 -199 -6 -9 -19 4 -43 41 -51 78 -51 78 -33 78 10 0 13
-5 9 -12 -4 -7 -3 -8 4 -4 18 11 -5 48 -28 44 -12 -2 -29 13 -54 51 -39 57
-43 66 -24 55 8 -5 9 -2 5 9 -7 19 9 33 16 15 3 -7 5 -2 4 12 -1 22 83 174
145 263 11 16 18 30 15 33 -4 4 -53 -69 -156 -233 -18 -29 -36 -53 -39 -53 -8
0 7 184 23 267 18 93 55 213 66 213 4 0 31 -31 60 -70 28 -38 54 -70 56 -70 8
0 -20 43 -63 96 -43 53 -45 56 -27 70 17 14 17 14 -1 7 -27 -9 53 106 101 146
43 35 57 39 49 14 -3 -10 -10 -37 -16 -61 -9 -36 -18 -46 -46 -58 -39 -16 -47
-28 -8 -14 39 15 47 12 42 -15 -3 -13 -1 -22 3 -19 5 3 9 16 9 30 0 18 6 24
23 25 21 1 21 1 1 7 -20 7 -20 9 -6 75 l15 68 21 -19 c12 -10 32 -29 46 -41z
m610 37 c0 19 27 2 79 -49 54 -53 91 -109 88 -131 -2 -10 -29 -48 -62 -85
l-58 -68 69 67 69 68 18 -51 c18 -48 48 -191 43 -197 -3 -2 -185 95 -196 105
-2 2 -10 45 -16 96 l-13 92 3 -73 3 -73 -39 60 c-21 33 -57 73 -79 90 l-41 29
29 5 c27 4 27 4 -4 6 -18 0 -33 5 -33 10 0 5 28 32 62 61 46 38 63 48 69 38 7
-10 9 -10 9 0z m-95 -357 c3 -5 2 -12 -3 -15 -5 -3 -9 1 -9 9 0 17 3 19 12 6z
m99 -6 c-4 -8 -7 -15 -9 -15 -2 0 -5 7 -9 15 -3 9 0 15 9 15 9 0 12 -6 9 -15z
m-68 -17 c0 -11 4 -23 11 -25 8 -3 11 3 8 16 -2 13 1 18 9 15 25 -10 9 -45
-23 -52 -7 -1 -10 2 -7 7 4 5 2 12 -3 15 -7 5 -8 23 -2 44 4 10 8 -2 7 -20z
m-574 -30 c-7 -7 -12 -20 -12 -29 0 -18 -17 -35 -26 -26 -9 8 25 67 38 67 9 0
9 -3 0 -12z m529 -5 c13 -16 12 -17 -3 -4 -10 7 -18 15 -18 17 0 8 8 3 21 -13z
m-604 -48 c-2 -25 0 -45 5 -45 4 0 8 -5 8 -11 0 -6 -7 -9 -14 -6 -10 4 -13 1
-10 -8 5 -13 43 -18 42 -5 0 3 0 12 1 20 1 12 4 11 12 -3 8 -13 7 -23 -3 -35
-12 -16 -11 -16 6 -2 18 14 19 13 13 -3 -4 -10 -3 -16 2 -13 5 3 11 -1 15 -9
3 -8 0 -17 -6 -21 -7 -5 -8 -2 -3 7 5 8 4 11 0 6 -5 -4 -9 -16 -10 -27 -2 -19
-1 -19 17 -3 17 15 18 15 20 -3 0 -10 0 -28 0 -39 -2 -16 0 -17 8 -5 7 12 12
7 25 -22 8 -21 15 -43 15 -50 1 -25 -154 -318 -161 -306 -10 21 -31 335 -24
360 4 13 13 26 19 30 7 5 7 8 -3 8 -10 0 -12 15 -6 73 4 39 9 86 10 102 2 17
3 36 4 43 0 6 6 12 12 12 6 0 9 -17 6 -45z m637 11 c-6 -16 -31 -17 -31 0 0 7
7 10 15 6 11 -4 13 -1 7 8 -5 8 -4 11 3 6 6 -4 9 -12 6 -20z m-517 -61 c0 -8
-4 -12 -8 -9 -4 2 -10 0 -13 -5 -3 -5 1 -11 9 -15 8 -3 12 -12 9 -21 -4 -10
-2 -14 7 -10 11 4 15 -9 17 -52 l2 -58 -15 30 c-9 16 -14 38 -12 47 3 10 1 16
-4 13 -4 -3 -18 13 -29 36 -12 22 -17 38 -11 34 6 -3 11 -2 11 4 0 5 8 12 18
14 9 3 17 5 18 6 0 0 1 -6 1 -14z m29 -356 c12 -158 46 -254 102 -293 76 -52
124 -58 199 -24 26 12 51 21 56 20 4 -1 7 3 7 9 0 5 6 7 13 3 6 -4 9 -4 5 1
-4 4 0 24 9 44 8 20 23 67 32 104 l17 69 27 -35 c15 -19 32 -41 39 -49 32 -33
78 -97 78 -108 0 -27 -64 -122 -108 -160 -50 -43 -154 -89 -160 -71 -2 7 -10
4 -20 -5 -13 -14 -30 -16 -97 -11 -97 7 -139 21 -153 50 -6 12 -11 16 -11 10
-3 -49 -119 54 -161 142 -16 34 -30 66 -30 70 0 3 26 4 58 1 39 -4 49 -3 32 3
-14 5 -40 9 -57 10 -18 1 -33 4 -33 7 0 11 143 284 147 280 2 -2 6 -32 9 -67z
m-356 30 c0 -6 -4 -7 -10 -4 -5 3 -10 11 -10 16 0 6 5 7 10 4 6 -3 10 -11 10
-16z m14 -54 c-7 -18 -20 -19 -30 -3 -4 7 -3 8 4 4 7 -4 12 -2 12 3 0 6 4 11
10 11 5 0 7 -7 4 -15z m44 -24 c3 -10 0 -12 -12 -8 -10 4 -16 1 -16 -8 0 -22
-16 -26 -31 -8 -12 15 -12 16 4 10 13 -5 17 -1 17 14 0 23 30 23 38 0z m945
-52 c81 -18 144 -35 140 -39 -25 -22 -186 -100 -192 -93 -4 4 -36 43 -70 86
-47 58 -58 77 -44 77 10 0 85 -14 166 -31z m-923 17 c0 -2 3 -11 6 -20 4 -12
0 -16 -15 -16 -22 0 -47 -42 -36 -60 3 -5 1 -11 -5 -15 -6 -4 -10 7 -11 27 0
18 -2 41 -4 51 -2 11 5 22 18 27 24 10 47 12 47 6z m77 -55 c0 -11 -5 -18 -9
-15 -4 3 -5 11 -1 19 7 21 12 19 10 -4z m989 -68 c2 -9 -4 -26 -12 -37 -17
-25 -18 -40 -1 -30 9 5 9 4 0 -6 -6 -7 -9 -18 -7 -25 3 -7 0 -16 -7 -21 -8 -4
-10 -3 -5 4 4 7 3 19 -2 29 -9 16 1 49 20 63 4 3 6 16 3 29 -2 13 -1 21 2 17
4 -4 8 -14 9 -23z m-1086 -23 c0 -5 11 -12 25 -16 36 -9 51 -30 25 -37 -11 -3
-23 0 -27 5 -4 7 -1 8 7 3 9 -5 11 -4 6 3 -4 7 -14 12 -21 12 -8 0 -19 9 -25
20 -7 14 -7 20 0 20 5 0 10 -4 10 -10z m960 -20 c-8 -5 -22 -9 -30 -9 -10 0
-8 3 5 9 27 12 43 12 25 0z m36 -55 c-1 -8 -5 -17 -8 -21 -5 -4 -4 16 1 34 3
9 9 -1 7 -13z m25 -39 c5 3 9 2 8 -3 -4 -22 2 -25 16 -7 8 10 15 14 15 7 0 -6
-5 -15 -10 -18 -6 -4 -7 -11 -4 -17 4 -6 -5 -3 -19 8 -15 10 -26 26 -26 34 0
10 2 11 6 2 2 -6 9 -10 14 -6z m-272 -264 c-14 -5 -39 6 -39 17 0 5 11 4 25
-2 13 -7 20 -14 14 -15z"/>
<path d="M750 3771 c-7 -14 -7 -22 1 -27 10 -6 28 11 29 28 0 17 -20 17 -30
-1z"/>
<path d="M710 3635 c0 -17 5 -25 13 -22 6 2 12 12 12 22 0 10 -6 20 -12 23 -8
2 -13 -6 -13 -23z"/>
<path d="M775 3478 c1 -13 6 -21 11 -19 10 3 7 21 -5 34 -4 4 -7 -3 -6 -15z"/>
<path d="M785 3360 c3 -5 8 -10 11 -10 2 0 4 5 4 10 0 6 -5 10 -11 10 -5 0 -7
-4 -4 -10z"/>
<path d="M748 3323 c7 -3 16 -2 19 1 4 3 -2 6 -13 5 -11 0 -14 -3 -6 -6z"/>
<path d="M1614 4059 l7 -55 -38 4 c-50 6 -40 -3 13 -11 l41 -7 -9 57 c-12 75
-22 84 -14 12z"/>
<path d="M1699 3969 c30 -10 56 -17 58 -15 5 5 -86 36 -101 35 -6 0 13 -9 43
-20z"/>
<path d="M910 3539 c0 -5 5 -7 10 -4 6 3 10 8 10 11 0 2 -4 4 -10 4 -5 0 -10
-5 -10 -11z"/>
<path d="M925 3372 c-4 -10 0 -12 11 -8 8 3 18 6 20 6 2 0 4 4 4 8 0 15 -29 9
-35 -6z"/>
<path d="M970 3126 c0 -7 8 -20 17 -27 15 -12 16 -12 10 4 -4 10 -7 23 -7 28
0 5 -4 9 -10 9 -5 0 -10 -6 -10 -14z"/>
<path d="M1030 3010 c14 -4 34 -8 45 -8 l20 -1 -20 9 c-11 5 -31 8 -45 8 l-25
0 25 -8z"/>
<path d="M1448 2993 c6 -2 18 -2 25 0 6 3 1 5 -13 5 -14 0 -19 -2 -12 -5z"/>
<path d="M1000 2954 c0 -8 5 -12 10 -9 6 4 19 -4 30 -17 l19 -23 1 22 c0 12
-9 27 -19 33 -28 14 -41 13 -41 -6z"/>
<path d="M1112 2950 c0 -14 2 -19 5 -12 2 6 2 18 0 25 -3 6 -5 1 -5 -13z"/>
<path d="M1386 2914 c-4 -14 -5 -28 -3 -31 3 -2 8 8 11 23 4 14 5 28 3 31 -3
2 -8 -8 -11 -23z"/>
<path d="M1101 2904 c0 -11 3 -14 6 -6 3 7 2 16 -1 19 -3 4 -6 -2 -5 -13z"/>
<path d="M1470 2880 c11 -22 23 -40 25 -40 3 0 -4 18 -15 40 -11 22 -23 40
-25 40 -3 0 4 -18 15 -40z"/>
<path d="M1092 2850 c0 -14 2 -19 5 -12 2 6 2 18 0 25 -3 6 -5 1 -5 -13z"/>
<path d="M1366 2834 c-4 -20 -5 -38 -3 -40 3 -3 8 11 11 32 4 20 5 38 3 40 -3
3 -8 -11 -11 -32z"/>
<path d="M1115 2810 c-3 -6 1 -7 9 -4 18 7 21 14 7 14 -6 0 -13 -4 -16 -10z"/>
<path d="M2262 4163 c-11 -38 -30 -106 -42 -153 -12 -47 -30 -114 -40 -150
-18 -65 -25 -92 -100 -375 -22 -82 -49 -184 -60 -225 -11 -41 -49 -185 -85
-320 -64 -243 -80 -299 -96 -353 l-8 -27 211 2 212 3 26 110 26 110 192 3
c106 1 192 -1 192 -5 1 -5 13 -55 29 -113 l28 -105 206 -3 c114 -1 207 1 207
6 0 10 -37 153 -105 407 -31 116 -69 260 -85 320 -16 61 -38 145 -49 188 -47
173 -88 327 -142 532 -12 44 -30 110 -41 148 l-19 67 -219 0 -219 0 -19 -67z
m422 35 c-4 -7 -34 -52 -66 -100 -61 -91 -69 -96 -141 -89 -35 3 -42 9 -96 90
-31 47 -61 92 -65 99 -6 9 34 12 184 12 150 0 190 -3 184 -12z m-324 -104 l63
-95 -21 -42 c-12 -23 -55 -103 -97 -177 -41 -74 -107 -195 -146 -268 -39 -73
-73 -131 -76 -128 -3 2 5 40 17 83 36 129 50 184 75 278 13 50 32 124 44 165
47 176 71 268 71 274 0 14 11 0 70 -90z m409 -144 c23 -85 51 -186 61 -225 10
-38 25 -95 33 -125 62 -224 62 -224 47 -215 -14 9 -12 -7 5 -29 15 -19 26 -56
65 -201 12 -44 28 -105 36 -135 15 -53 74 -284 88 -344 7 -27 4 -25 -26 15
-19 24 -49 67 -68 94 -36 53 -79 95 -95 94 -5 0 -4 -3 3 -6 6 -2 9 -10 5 -16
-3 -7 -3 -9 1 -5 12 10 34 -15 106 -117 35 -49 68 -96 74 -104 18 -24 -13 -4
-146 94 -44 33 -69 80 -54 104 4 5 1 11 -6 13 -6 2 -12 23 -12 45 -1 23 -4 39
-7 37 -13 -8 -20 49 -10 75 6 14 17 52 26 84 8 31 22 82 30 113 9 31 14 59 12
61 -2 2 -17 -41 -32 -94 -45 -161 -47 -165 -55 -156 -5 4 -17 40 -29 78 -24
84 -207 745 -229 830 -9 38 15 0 123 -195 60 -107 116 -209 125 -226 10 -16
25 -45 34 -63 10 -18 20 -31 22 -28 3 2 -4 20 -14 38 -11 19 -67 120 -125 224
-57 105 -123 221 -145 259 l-40 69 66 100 66 99 12 -43 c6 -24 30 -114 53
-199z m-368 -56 c-5 -16 -53 -186 -106 -379 -119 -432 -144 -515 -156 -515 -4
0 -6 -6 -3 -14 6 -16 -46 -80 -57 -69 -4 4 -10 40 -12 78 -3 63 -3 60 -5 -25
-1 -61 -7 -101 -14 -109 -11 -10 -10 -11 4 -6 11 4 18 0 21 -12 3 -11 5 -6 6
12 1 17 13 44 27 60 19 23 24 26 20 10 -21 -93 -31 -125 -37 -125 -4 0 -9 -12
-11 -26 -2 -20 -22 -40 -78 -80 -113 -81 -114 -82 -79 -24 18 29 37 54 44 56
6 3 12 11 12 19 0 23 -31 -8 -62 -61 -14 -24 -27 -44 -29 -44 -1 0 7 36 18 79
11 44 23 78 26 76 4 -2 6 6 5 18 -1 12 7 54 17 92 10 39 33 122 50 185 17 63
33 126 37 140 4 19 7 12 12 -30 5 -52 6 -50 7 26 2 86 3 89 152 359 180 328
215 385 191 309z m245 -291 c-3 -4 -12 -1 -19 7 -10 10 -9 11 2 5 10 -6 12 -2
7 16 l-6 24 12 -23 c6 -12 8 -25 4 -29z m-90 -219 c28 -112 48 -206 46 -209
-7 -7 -212 -6 -212 0 0 3 8 38 19 78 10 39 33 134 51 210 18 75 36 134 39 131
3 -3 29 -98 57 -210z m-169 154 c-3 -8 -6 -5 -6 6 -1 11 2 17 5 13 3 -3 4 -12
1 -19z m278 2 c17 -19 17 -21 2 -33 -13 -9 -14 -16 -6 -27 9 -13 10 -12 5 3
-9 29 11 19 24 -12 6 -16 9 -39 5 -52 -5 -14 -4 -19 4 -15 6 4 13 -5 17 -21 3
-15 7 -34 10 -40 2 -8 -7 -13 -25 -13 -23 0 -30 -5 -33 -25 -3 -14 -1 -28 5
-32 5 -3 7 -1 3 5 -3 6 -2 13 3 16 13 8 21 -20 10 -31 -6 -6 -4 -10 6 -10 8 0
13 3 10 5 -3 3 3 11 13 19 16 12 15 13 -3 6 -18 -6 -19 -5 -5 12 8 10 10 16 3
12 -6 -4 -15 -2 -18 4 -5 7 1 9 16 7 18 -2 24 -9 23 -28 -1 -13 5 -30 12 -38
8 -7 14 -19 14 -25 0 -7 -7 -3 -15 7 -8 11 -15 15 -15 8 0 -6 -6 -9 -14 -6 -8
3 -17 0 -21 -6 -5 -8 -11 -5 -20 7 -13 17 -14 16 -8 -4 3 -13 10 -23 15 -23 5
0 6 -4 3 -10 -3 -5 0 -7 8 -4 8 3 14 -2 14 -11 0 -8 -4 -15 -8 -15 -13 0 -39
31 -39 46 0 8 -4 12 -10 9 -5 -3 -10 0 -11 7 0 7 -2 21 -4 31 -3 16 -1 16 13
5 14 -11 14 -10 -1 8 -13 16 -17 38 -16 98 1 69 3 75 17 64 12 -10 14 -10 8 0
-5 8 0 12 15 12 12 0 19 3 15 8 -4 4 -20 7 -34 7 -24 0 -27 4 -27 35 -1 19 -4
41 -8 48 -14 21 28 14 48 -8z m-384 -217 c-12 -20 -14 -14 -5 12 4 9 9 14 11
11 3 -2 0 -13 -6 -23z m66 -15 c-3 -8 -6 -5 -6 6 -1 11 2 17 5 13 3 -3 4 -12
1 -19z m23 -32 c0 -3 -4 -8 -10 -11 -5 -3 -10 -1 -10 4 0 6 5 11 10 11 6 0 10
-2 10 -4z m-63 -38 c-3 -8 -6 -5 -6 6 -1 11 2 17 5 13 3 -3 4 -12 1 -19z m53
1 c0 -4 -5 -11 -11 -14 -5 -4 -8 -21 -5 -38 l6 -32 -14 35 c-21 52 -20 69 4
63 11 -3 20 -9 20 -14z m366 -26 c13 -17 14 -17 8 0 -6 17 -5 17 13 7 23 -15
56 -138 42 -156 -5 -6 -5 -15 -1 -19 4 -5 -7 2 -24 16 -17 13 -29 27 -27 32 2
4 -3 7 -11 7 -9 0 -16 6 -16 14 0 29 18 25 34 -7 8 -17 16 -28 16 -23 0 5 7 3
15 -4 10 -8 15 -9 15 -2 0 6 -9 16 -21 22 -25 14 -40 51 -27 67 6 7 5 14 -3
19 -8 5 -9 3 -4 -6 5 -8 3 -11 -6 -8 -8 3 -13 11 -11 17 1 6 -5 14 -13 17 -8
3 -12 10 -9 15 8 13 15 11 30 -8z m-439 -15 c-3 -8 -6 -5 -6 6 -1 11 2 17 5
13 3 -3 4 -12 1 -19z m369 -15 c-3 -8 -2 -12 3 -8 5 3 16 -1 24 -9 11 -11 17
-12 26 -3 8 8 11 7 11 -5 0 -8 -6 -21 -14 -27 -11 -9 -20 -7 -40 12 -25 23
-38 76 -15 62 6 -4 8 -14 5 -22z m-419 -35 c-3 -7 -5 -2 -5 12 0 14 2 19 5 13
2 -7 2 -19 0 -25z m67 -3 c5 -22 4 -26 -4 -15 -5 8 -10 24 -10 34 0 26 6 18
14 -19z m276 -6 c-13 -9 -12 -10 3 -5 9 3 23 8 30 11 9 4 156 -110 204 -159 4
-3 -135 -6 -308 -5 l-314 0 40 20 c37 18 26 20 -20 4 -12 -4 -7 3 13 20 18 15
59 49 90 76 l57 49 110 0 c81 0 106 -3 95 -11z m-330 -35 c0 -22 -2 -25 -15
-14 -8 7 -15 18 -15 24 0 6 5 4 10 -4 8 -13 10 -12 10 3 0 9 2 17 5 17 3 0 5
-12 5 -26z m40 5 c0 -5 -7 -9 -15 -9 -15 0 -20 12 -9 23 8 8 24 -1 24 -14z
m530 -82 c0 -5 -4 -5 -10 -2 -5 3 -10 14 -10 23 0 15 2 15 10 2 5 -8 10 -19
10 -23z m38 -142 c-3 -3 -9 2 -12 12 -6 14 -5 15 5 6 7 -7 10 -15 7 -18z m12
-39 c4 -12 10 -39 14 -61 6 -37 3 -44 -43 -98 -32 -36 -52 -53 -57 -46 -4 7 0
17 9 24 18 13 24 31 8 20 -6 -3 -6 6 -1 24 4 16 6 32 2 35 -3 3 -1 6 5 6 6 0
9 9 6 21 -5 19 -3 20 18 14 32 -10 48 -25 27 -25 -20 0 -32 -16 -19 -24 5 -4
17 1 26 10 15 16 14 19 -17 52 -21 22 -27 33 -15 29 10 -4 16 -3 12 2 -3 5 1
12 7 14 8 3 6 6 -4 6 -22 1 -24 18 -2 18 9 0 19 -10 24 -21z"/>
<path d="M2285 3980 c-3 -5 -1 -10 4 -10 6 0 11 5 11 10 0 6 -2 10 -4 10 -3 0
-8 -4 -11 -10z"/>
<path d="M2240 3815 c-13 -16 -7 -45 9 -45 14 0 33 38 26 50 -9 14 -21 12 -35
-5z"/>
<path d="M2697 3868 c-8 -30 19 -61 33 -38 13 21 6 54 -12 58 -9 2 -18 -7 -21
-20z"/>
<path d="M2798 3432 c-19 -4 -22 -19 -12 -46 3 -9 11 -13 18 -9 30 19 41 10
36 -27 -1 -11 1 -12 10 -4 6 6 10 26 8 44 -3 34 -26 50 -60 42z"/>
<path d="M2953 2953 c-15 -6 -18 -63 -3 -63 6 0 10 4 10 10 0 5 7 7 16 3 12
-4 15 0 12 22 -3 29 -13 37 -35 28z"/>
<path d="M3005 2870 c-3 -5 -1 -10 4 -10 6 0 11 5 11 10 0 6 -2 10 -4 10 -3 0
-8 -4 -11 -10z"/>
<path d="M2227 3473 c-12 -11 -8 -23 8 -23 8 0 15 7 15 15 0 16 -12 20 -23 8z"/>
<path d="M2126 3325 c-36 -37 -31 -96 10 -103 18 -4 18 -3 1 10 -21 15 -13 50
9 41 22 -8 50 26 37 46 -14 22 -38 25 -57 6z"/>
<path d="M2125 3180 c-3 -5 -2 -10 4 -10 5 0 13 5 16 10 3 6 2 10 -4 10 -5 0
-13 -4 -16 -10z"/>
<path d="M2050 3118 c0 -7 5 -20 10 -28 8 -12 10 -11 10 7 0 12 -4 25 -10 28
-5 3 -10 0 -10 -7z"/>
<path d="M2019 2823 c-13 -16 -12 -17 4 -4 9 7 17 15 17 17 0 8 -8 3 -21 -13z"/>
<path d="M2630 3546 c0 -3 9 -10 20 -16 11 -6 20 -8 20 -6 0 3 -9 10 -20 16
-11 6 -20 8 -20 6z"/>
<path d="M2647 3401 c-4 -17 -3 -21 5 -13 5 5 8 16 6 23 -3 8 -7 3 -11 -10z"/>
<path d="M2674 3375 c-3 -8 -4 -20 -1 -27 3 -8 6 -6 6 6 1 12 6 16 16 12 8 -3
15 -1 15 3 0 16 -31 21 -36 6z"/>
<path d="M2515 3115 c-25 -12 -26 -14 -5 -9 28 7 60 23 45 23 -5 0 -23 -6 -40
-14z"/>
<path d="M2450 3090 c-8 -5 -10 -10 -5 -10 6 0 17 5 25 10 8 5 11 10 5 10 -5
0 -17 -5 -25 -10z"/>
<path d="M2347 3053 c-37 -14 -66 -27 -64 -30 4 -4 137 44 146 52 9 10 -16 3
-82 -22z"/>
<path d="M3210 3395 l0 -835 210 0 210 0 0 265 0 265 64 0 c51 0 65 -3 71 -17
8 -20 137 -390 162 -465 l16 -48 219 0 c131 0 218 4 218 10 0 5 -4 19 -10 32
-8 20 -162 455 -192 543 -9 28 -6 33 52 93 109 112 158 263 147 457 -11 176
-56 294 -147 385 -69 68 -135 104 -236 130 -71 18 -114 20 -431 20 l-353 0 0
-835z m680 807 c0 -5 22 -9 48 -10 94 -2 212 -61 287 -143 l38 -42 -77 -39
c-42 -21 -76 -40 -76 -43 0 -3 34 12 76 33 l76 37 19 -24 c37 -46 63 -157 63
-276 1 -81 -2 -110 -11 -111 -7 -1 -17 -2 -21 -3 -15 -2 -33 -52 -24 -67 7
-12 12 -10 32 8 l23 22 -7 -45 c-4 -24 -12 -48 -18 -54 -7 -7 -9 -4 -5 12 3
15 1 20 -8 17 -7 -3 -16 4 -20 15 -3 11 -22 43 -41 71 -19 27 -31 50 -27 50 5
0 0 5 -9 11 -10 5 -18 17 -18 24 0 8 -4 15 -10 15 -5 0 -10 12 -10 28 0 68
-55 211 -95 245 -39 34 -105 69 -157 83 -37 9 -116 14 -253 15 -123 0 -192 4
-180 9 11 5 61 23 110 41 190 67 285 103 281 107 -4 3 -83 -23 -231 -78 -27
-10 -88 -32 -135 -49 l-85 -31 -82 82 c-46 46 -83 86 -83 90 0 5 142 8 315 8
173 0 315 -4 315 -8z m-482 -507 c0 -181 -4 -316 -8 -300 -6 25 -8 26 -9 7 0
-13 4 -43 10 -68 10 -40 8 -57 -21 -159 -18 -63 -36 -115 -41 -115 -4 0 -9 17
-11 38 -3 32 -6 37 -28 37 -20 0 -26 -6 -28 -27 -2 -20 1 -28 12 -28 9 0 16
-5 16 -11 0 -5 4 -8 8 -5 5 3 9 -1 9 -9 0 -13 -17 -20 -40 -16 -5 1 -5 -3 -2
-9 4 -6 13 -9 21 -6 17 7 29 -13 25 -42 -3 -27 -30 -93 -31 -75 0 6 -8 9 -18
6 -15 -4 -18 -12 -15 -46 2 -29 1 -38 -6 -27 -6 9 -10 271 -10 684 l0 670 84
-85 84 -84 -1 -330z m87 96 c-3 -2 2 -12 11 -22 9 -10 14 -24 12 -31 -3 -7 1
-19 9 -26 7 -7 13 -22 13 -32 0 -10 5 -22 10 -25 6 -3 10 -14 10 -23 0 -11
-15 -2 -47 28 -37 34 -34 31 10 -15 31 -33 57 -70 57 -81 0 -11 5 -25 12 -32
6 -6 10 -14 7 -16 -2 -3 -25 14 -50 37 -83 78 -95 83 -16 7 84 -82 86 -89 36
-128 -24 -20 -32 -22 -44 -12 -9 8 -15 8 -15 2 0 -6 6 -12 13 -15 7 -3 -1 -17
-23 -38 -74 -71 -68 -84 -68 151 0 194 2 210 17 198 12 -10 12 -7 -2 9 -15 17
-18 36 -16 110 1 48 4 92 7 97 2 4 17 -25 33 -65 16 -40 26 -75 24 -78z m36
22 c13 -16 12 -17 -3 -4 -17 13 -22 21 -14 21 2 0 10 -8 17 -17z m340 -10 c63
-38 90 -173 51 -253 -28 -57 -69 -74 -186 -74 l-101 -1 -3 173 -2 172 106 0
c82 0 112 -4 135 -17z m-277 -104 c1 -13 -3 -27 -9 -31 -6 -5 -6 -11 3 -20 16
-16 15 -25 -3 -25 -8 0 -13 2 -10 5 2 3 0 13 -6 23 -7 14 -6 19 2 19 7 0 2 11
-11 25 -13 14 -24 33 -25 42 -1 10 -7 29 -14 43 -10 19 -2 15 29 -16 24 -24
43 -52 44 -65z m536 97 c0 -2 -7 -6 -15 -10 -8 -3 -15 -1 -15 4 0 6 7 10 15
10 8 0 15 -2 15 -4z m-17 -21 c21 9 35 -46 36 -135 0 -66 -8 -105 -36 -172
-13 -30 -19 -36 -30 -27 -11 10 -12 8 -7 -5 5 -14 2 -16 -22 -11 -26 5 -26 4
-6 -4 26 -12 27 -17 9 -36 -20 -20 -125 -85 -137 -85 -5 0 -10 8 -11 18 0 16
-1 16 -7 0 -6 -15 -23 -8 -125 53 -65 39 -117 72 -115 74 2 1 51 5 111 8 l107
5 1 -27 c1 -14 5 -37 10 -51 5 -16 6 -5 2 32 l-5 58 31 -11 c18 -6 34 -9 37
-6 3 3 -8 8 -25 12 -37 8 -39 17 -8 34 12 7 24 20 25 29 6 54 15 92 23 92 12
0 40 -56 32 -64 -4 -3 -1 -6 6 -6 7 0 21 -21 32 -46 12 -25 23 -43 26 -41 2 3
-5 24 -17 47 -12 23 -19 48 -16 56 3 8 2 12 -4 9 -18 -11 -28 30 -19 79 5 27
12 52 15 55 3 3 28 -7 57 -21 59 -32 75 -30 23 4 -20 13 -36 31 -36 41 0 10 4
16 8 13 5 -3 9 1 9 9 0 8 -4 15 -9 15 -5 0 -6 5 -2 11 5 8 8 8 14 0 3 -7 14
-9 23 -6z m-113 -74 c-16 -30 -28 -33 -22 -6 2 14 11 25 19 25 10 0 11 -4 3
-19z m-400 -106 c0 -8 -2 -15 -4 -15 -2 0 -6 7 -10 15 -3 8 -1 15 4 15 6 0 10
-7 10 -15z m160 -225 l125 -75 -107 -3 c-59 -1 -157 -1 -219 0 l-112 3 88 78
c49 42 91 76 94 75 4 -2 63 -37 131 -78z m297 -161 l84 -39 -5 -82 -5 -83 10
63 c6 35 12 62 14 60 3 -3 35 -92 95 -263 16 -44 42 -118 59 -164 17 -46 29
-86 27 -88 -2 -3 -54 28 -115 69 -89 59 -110 78 -111 97 0 13 -3 21 -7 17 -4
-4 -15 15 -24 41 -10 26 -43 120 -74 208 -80 225 -78 217 -53 209 12 -3 59
-24 105 -45z m-130 -20 c-3 -11 -1 -19 4 -19 5 0 9 -7 9 -15 0 -8 11 -40 25
-71 14 -31 25 -65 25 -74 0 -10 4 -20 8 -22 5 -1 20 -37 34 -78 14 -41 29 -83
33 -93 7 -16 -28 19 -138 138 -26 29 -35 46 -30 60 5 17 4 18 -10 7 -8 -7 -17
-9 -20 -5 -6 11 9 49 22 58 14 8 14 -7 1 -23 -5 -7 -3 -6 5 1 13 11 14 19 5
41 -11 30 3 62 22 50 6 -4 5 3 -2 15 -10 19 -14 20 -28 9 -9 -7 -7 -1 6 13 12
14 19 29 15 34 -5 4 -2 5 5 0 8 -4 12 -16 9 -26z m-549 -462 c-18 -15 -46 -39
-61 -53 -16 -14 -31 -23 -35 -20 -9 10 -3 91 8 94 6 2 10 22 10 45 0 23 7 67
16 97 8 30 17 62 19 71 2 9 18 70 37 135 l33 119 3 -230 2 -230 -32 -28z m86
422 c-3 -6 -1 -16 6 -24 14 -17 23 -65 12 -65 -5 0 -19 11 -32 26 -19 19 -22
27 -11 33 8 6 9 11 3 15 -6 3 -10 21 -10 38 l1 31 19 -22 c10 -13 15 -27 12
-32z m-14 -76 c0 -5 12 -16 25 -26 20 -14 24 -15 19 -2 -3 8 -1 15 5 15 6 0
12 -7 12 -15 2 -23 4 -28 17 -52 7 -13 9 -23 5 -23 -10 0 -103 92 -103 102 0
10 20 11 20 1z m32 -70 c31 -33 47 -73 28 -73 -14 0 -77 76 -77 93 1 25 9 22
49 -20z m-10 -50 c26 -25 40 -62 18 -48 -6 4 -7 -1 -3 -12 4 -13 -3 -10 -24
10 -18 17 -30 38 -30 53 0 31 4 30 39 -3z m96 -23 c7 -11 11 -20 9 -20 -2 0
-12 9 -22 20 -10 11 -14 20 -9 20 5 0 15 -9 22 -20z m16 -72 c-3 -11 0 -27 8
-36 18 -24 -29 15 -58 48 -29 33 -21 40 11 10 14 -13 27 -21 30 -18 3 2 -6 15
-20 28 -14 13 -25 28 -25 34 0 5 14 -3 30 -19 20 -20 28 -35 24 -47z m-120 33
c18 -20 12 -55 -9 -47 -8 3 -11 -2 -8 -14 3 -10 0 -21 -6 -24 -7 -4 -10 12 -9
49 2 60 6 65 32 36z m91 -58 c35 -42 40 -55 41 -100 l1 -53 -46 39 c-55 47
-97 91 -87 91 5 0 36 -23 70 -51 l61 -51 -60 59 c-60 58 -60 59 -45 86 8 15
17 27 20 27 3 0 24 -21 45 -47z m-290 -22 c3 -5 2 -12 -3 -15 -5 -3 -9 1 -9 9
0 17 3 19 12 6z m269 -89 c36 -35 66 -69 66 -75 0 -6 -29 18 -65 53 -36 35
-65 58 -64 50 0 -8 24 -35 53 -60 29 -25 59 -54 66 -65 7 -11 -20 10 -61 46
-56 50 -74 73 -74 93 -1 14 2 25 6 24 4 -2 37 -31 73 -66z m521 8 c3 -6 -1 -7
-9 -4 -18 7 -21 14 -7 14 6 0 13 -4 16 -10z m-68 -36 c-3 -3 -12 -4 -19 -1 -8
3 -5 6 6 6 11 1 17 -2 13 -5z"/>
<path d="M3950 4100 c0 -5 5 -10 11 -10 5 0 7 5 4 10 -3 6 -8 10 -11 10 -2 0
-4 -4 -4 -10z"/>
<path d="M4034 4096 c-8 -21 13 -55 49 -76 44 -27 51 -25 21 6 -16 15 -24 32
-21 44 3 11 0 22 -7 25 -6 3 2 3 17 0 19 -4 26 -2 22 5 -10 15 -75 12 -81 -4z"/>
<path d="M4147 4021 c-4 -17 -3 -21 5 -13 5 5 8 16 6 23 -3 8 -7 3 -11 -10z"/>
<path d="M4243 3875 c-6 -19 -7 -35 -3 -35 9 0 25 59 18 66 -3 2 -9 -12 -15
-31z"/>
<path d="M4253 3774 c-22 -22 -25 -32 -20 -70 8 -73 49 -100 85 -56 18 24 15
83 -8 120 -11 17 -22 32 -25 32 -3 0 -18 -12 -32 -26z m54 -82 c13 10 14 8 11
-11 -3 -24 -32 -50 -43 -39 -3 3 -3 19 1 34 4 16 9 23 12 16 3 -10 7 -10 19 0z"/>
<path d="M4275 3590 c-3 -6 1 -7 9 -4 18 7 21 14 7 14 -6 0 -13 -4 -16 -10z"/>
<path d="M3251 4105 c-1 -23 28 -167 35 -174 8 -8 4 23 -11 99 -18 87 -23 103
-24 75z"/>
<path d="M3292 3900 c0 -14 4 -36 8 -50 l8 -25 0 25 c0 14 -4 36 -8 50 l-8 25
0 -25z"/>
<path d="M3311 3800 c0 -14 4 -34 9 -45 8 -18 9 -18 9 5 0 14 -4 34 -9 45 -8
18 -9 18 -9 -5z"/>
<path d="M3354 3578 c17 -84 32 -145 34 -136 4 20 -47 270 -57 281 -4 4 6 -61
23 -145z"/>
<path d="M3290 3656 c0 -9 5 -16 10 -16 6 0 10 4 10 9 0 6 -4 13 -10 16 -5 3
-10 -1 -10 -9z"/>
<path d="M3280 3565 c-7 -9 -8 -15 -2 -15 5 0 12 7 16 15 3 8 4 15 2 15 -2 0
-9 -7 -16 -15z"/>
<path d="M3290 3429 c0 -5 5 -7 10 -4 6 3 10 8 10 11 0 2 -4 4 -10 4 -5 0 -10
-5 -10 -11z"/>
<path d="M3331 3384 c0 -11 3 -14 6 -6 3 7 2 16 -1 19 -3 4 -6 -2 -5 -13z"/>
<path d="M3301 3316 c-13 -16 -4 -46 14 -46 16 0 26 25 19 45 -8 19 -18 19
-33 1z"/>
<path d="M3256 3235 c-3 -8 -1 -17 3 -20 5 -3 11 2 15 10 3 8 1 17 -3 20 -5 3
-11 -2 -15 -10z"/>
<path d="M3258 2955 c-3 -14 -1 -28 3 -31 5 -3 9 9 9 25 0 38 -6 40 -12 6z"/>
<path d="M3486 3757 c3 -10 9 -15 12 -12 3 3 0 11 -7 18 -10 9 -11 8 -5 -6z"/>
<path d="M3490 3635 c13 -14 26 -25 28 -25 3 0 -5 11 -18 25 -13 14 -26 25
-28 25 -3 0 5 -11 18 -25z"/>
<path d="M3540 3586 c0 -2 7 -9 15 -16 9 -7 15 -8 15 -2 0 5 -7 12 -15 16 -8
3 -15 4 -15 2z"/>
<path d="M3540 3742 c0 -8 37 -42 45 -42 3 0 0 9 -7 20 -13 20 -38 35 -38 22z"/>
<path d="M4069 3599 l-24 -20 28 17 c15 9 27 18 27 20 0 8 -8 4 -31 -17z"/>
<path d="M3980 3440 c8 -5 22 -10 30 -10 13 0 13 1 0 10 -8 5 -22 10 -30 10
-13 0 -13 -1 0 -10z"/>
<path d="M4115 2907 c-4 -37 -5 -70 -2 -73 7 -8 20 99 15 122 -3 11 -8 -12
-13 -49z"/>
<path d="M4230 2764 c0 -8 5 -12 10 -9 6 3 10 10 10 16 0 5 -4 9 -10 9 -5 0
-10 -7 -10 -16z"/>
<path d="M3907 3133 c-4 -3 -7 -11 -7 -17 0 -6 5 -5 12 2 6 6 9 14 7 17 -3 3
-9 2 -12 -2z"/>
<path d="M3335 2871 c-3 -5 -1 -12 5 -16 5 -3 10 1 10 9 0 18 -6 21 -15 7z"/>
<path d="M3540 2818 c41 -45 50 -53 50 -45 0 2 -21 23 -47 47 l-48 45 45 -47z"/>
<path d="M3535 2790 c27 -27 51 -50 54 -50 3 0 -17 23 -44 50 -27 28 -51 50
-54 50 -3 0 17 -22 44 -50z"/>
<path d="M2345 2454 c-213 -42 -368 -196 -424 -424 -24 -96 -51 -329 -51 -435
0 -128 34 -389 61 -475 60 -186 205 -331 384 -381 67 -19 293 -19 360 0 158
44 277 142 344 284 71 150 95 297 94 582 0 464 -90 684 -327 800 -123 61 -289
79 -441 49z m125 -21 c0 -5 -17 -26 -38 -48 -144 -155 -251 -275 -271 -302
-12 -18 -26 -33 -30 -33 -4 0 -21 12 -37 26 -16 14 -44 37 -61 51 -40 31 -41
43 -4 97 88 127 240 208 404 215 20 0 37 -2 37 -6z m72 -40 c24 -26 69 -74
100 -107 55 -59 61 -79 18 -56 -11 6 -53 17 -92 25 -77 14 -138 9 -217 -19
-24 -9 -45 -15 -47 -14 -3 3 187 218 192 218 2 0 23 -21 46 -47z m189 10 c42
-15 96 -46 128 -72 63 -51 71 -59 112 -121 l30 -45 -68 -64 c-53 -49 -57 -54
-17 -22 28 22 57 47 64 56 19 23 26 19 43 -27 34 -97 54 -210 62 -358 l6 -105
-43 80 c-99 182 -223 374 -287 442 -12 12 -21 25 -21 28 0 3 -21 26 -48 52
-62 63 -156 165 -167 183 -13 22 122 4 206 -27z m-694 -292 c23 -21 53 -47 67
-57 l25 -19 -36 -60 c-52 -86 -131 -222 -161 -275 -13 -25 -27 -47 -30 -50 -8
-9 9 191 24 280 15 90 53 220 63 220 3 0 25 -18 48 -39z m698 -61 c3 -5 2 -10
-4 -10 -5 0 -13 5 -16 10 -3 6 -2 10 4 10 5 0 13 -4 16 -10z m-158 -30 c79
-48 96 -119 97 -415 1 -242 -7 -305 -46 -376 -28 -51 -64 -69 -137 -69 -57 0
-63 2 -98 38 -45 45 -59 89 -73 231 -13 138 -12 253 4 383 15 121 37 172 86
206 43 29 122 30 167 2z m466 -317 c46 -90 57 -120 37 -108 -6 3 -7 -1 -4 -9
3 -8 -8 -40 -26 -71 -32 -57 -48 -74 -29 -31 28 60 -24 107 -75 69 -30 -21
-35 -76 -11 -108 13 -17 19 -18 45 -8 l30 11 -22 -27 c-23 -27 -42 -32 -65
-18 -6 4 -13 1 -16 -5 -2 -7 -4 64 -5 157 0 94 -7 229 -16 300 -9 72 -16 134
-16 139 0 14 119 -186 173 -291z m-932 200 c-14 -91 -32 -374 -25 -385 9 -14
-9 -9 -28 9 -16 14 -18 14 -18 1 0 -9 7 -21 15 -28 8 -7 15 -9 15 -4 0 4 5 3
11 -3 9 -9 8 -16 -3 -27 -11 -11 -18 -12 -27 -3 -6 6 -11 8 -11 4 0 -3 12 -18
28 -33 15 -15 22 -24 15 -20 -6 4 -14 -2 -18 -14 -3 -11 -11 -20 -17 -20 -5 0
-8 -7 -4 -15 9 -26 -10 -16 -22 10 -16 34 -15 34 8 28 21 -6 22 0 5 67 -2 8
-4 18 -4 21 -2 16 -45 17 -58 1 -13 -16 -13 -15 -5 2 11 21 1 45 -32 80 -15
17 -18 18 -12 4 16 -46 15 -50 -5 -12 l-22 42 30 53 c139 249 186 329 191 325
2 -3 -1 -40 -7 -83z m746 -22 c-1 -22 -5 -27 -14 -19 -9 7 -10 16 -3 28 5 9 6
21 2 25 -4 5 -2 5 5 1 7 -4 11 -20 10 -35z m-34 -55 c9 1 15 -2 11 -7 -3 -5 2
-9 11 -9 10 0 14 5 9 13 -5 9 -3 9 7 -1 19 -18 25 -312 10 -447 -19 -156 -23
-178 -31 -168 -13 13 -130 363 -130 388 0 12 9 44 19 71 11 27 30 77 42 112
12 35 25 59 28 54 3 -5 14 -8 24 -6z m-673 -57 c0 -9 -6 -22 -14 -28 -19 -16
-14 -44 9 -47 10 -1 21 -8 25 -15 10 -15 40 -4 40 14 0 8 7 20 15 27 14 12 15
10 11 -14 -3 -17 0 -29 9 -32 7 -3 20 -23 29 -44 15 -38 14 -41 -25 -152 -22
-62 -54 -153 -72 -203 l-31 -90 -13 75 c-8 41 -16 161 -18 267 -4 155 -2 198
10 227 10 23 11 36 5 36 -6 0 -8 5 -4 11 8 13 24 -8 24 -32z m55 -19 c4 -6 11
-8 16 -4 6 3 5 -3 -3 -15 -14 -22 -33 -27 -43 -11 -3 5 -13 7 -23 4 -11 -4 -8
2 8 15 28 23 36 25 45 11z m885 -225 c0 -8 -4 -15 -10 -15 -5 0 -7 7 -4 15 4
8 8 15 10 15 2 0 4 -7 4 -15z m-785 -211 c4 -18 -9 -33 -66 -79 -39 -31 -72
-55 -74 -53 -3 2 12 49 31 104 20 54 48 132 63 173 l26 75 7 -100 c4 -54 10
-109 13 -120z m521 -141 c-3 -6 0 -13 6 -15 5 -2 -14 -36 -44 -76 -40 -55 -65
-79 -104 -97 -50 -26 -154 -48 -177 -39 -7 2 -36 51 -64 108 l-51 103 36 -13
c49 -17 95 -17 137 0 19 8 35 13 35 10 0 -2 -11 -27 -25 -54 -14 -28 -23 -50
-21 -50 3 0 22 32 42 71 21 39 47 75 58 79 12 5 16 9 9 9 -8 1 -7 13 5 44 20
54 18 52 39 36 17 -13 17 -13 0 7 -15 18 -16 34 -11 110 3 49 8 96 11 104 2 8
31 -61 64 -155 33 -93 57 -175 55 -182z m257 303 c-3 -12 -5 -36 -4 -53 2 -35
-21 -47 -33 -18 -3 8 -1 15 5 15 6 0 7 5 3 11 -4 8 -9 7 -15 -2 -4 -7 -11 -11
-14 -7 -10 9 34 75 50 75 11 0 13 -6 8 -21z m-32 -101 c28 5 29 4 23 -22 -10
-41 -14 -45 -32 -31 -15 12 -16 11 -3 -4 7 -10 18 -15 24 -11 14 8 0 -58 -15
-72 -8 -7 -9 -6 -4 2 3 6 2 14 -4 18 -6 4 -8 10 -5 15 9 14 -7 41 -21 36 -21
-8 -17 5 14 38 15 17 19 24 10 17 -10 -7 -18 -10 -19 -5 0 5 -4 -1 -9 -13 -5
-13 -16 -23 -24 -23 -13 0 -13 5 1 38 22 54 28 60 31 34 3 -19 8 -21 33 -17z
m-115 -17 c-16 -27 -42 -28 -44 -3 -1 18 3 22 27 21 24 -1 26 -4 17 -18z
m-930 -95 c-12 -12 -41 12 -44 38 l-4 24 28 -27 c15 -15 25 -31 20 -35z m911
40 c0 -7 -6 -13 -14 -13 -7 0 -13 6 -13 13 0 8 6 14 13 14 8 0 14 -6 14 -14z
m-576 -80 c43 -76 139 -266 139 -276 0 -16 -121 13 -185 44 -38 19 -135 131
-135 156 0 6 17 24 37 39 20 16 53 44 72 61 20 18 37 33 38 33 0 0 16 -26 34
-57z m-328 -83 c3 -11 1 -20 -4 -20 -5 0 -9 9 -9 20 0 11 2 20 4 20 2 0 6 -9
9 -20z m798 -238 c-13 -2 -27 0 -32 5 -6 6 3 7 23 4 28 -4 29 -6 9 -9z"/>
<path d="M2154 2290 c-11 -4 -33 -23 -48 -41 -21 -24 -24 -34 -14 -40 8 -5 21
-1 33 10 29 26 50 37 40 21 -6 -10 -4 -12 7 -7 27 10 14 -24 -18 -50 -21 -16
-24 -23 -12 -23 20 0 66 53 74 87 5 19 2 30 -11 40 -21 15 -22 15 -51 3z"/>
<path d="M2762 2323 c-20 -38 37 -104 87 -102 l26 2 -25 4 c-30 6 -52 22 -45
33 3 5 -1 10 -7 13 -10 4 -10 7 0 18 11 12 14 12 22 -1 8 -12 10 -12 10 -1 0
10 5 10 25 -3 25 -17 25 -16 13 4 -12 19 -65 50 -87 50 -6 0 -14 -8 -19 -17z"/>
<path d="M2937 2033 c-20 -20 -3 -79 27 -95 20 -10 20 -10 -2 14 l-22 25 34
-2 c33 -1 35 1 29 25 -3 14 -8 28 -10 33 -5 9 -47 9 -56 0z"/>
<path d="M1980 1984 c-12 -32 -13 -61 -1 -68 5 -4 7 3 4 14 -6 22 7 26 25 8 9
-9 12 -3 12 30 0 49 -24 59 -40 16z"/>
<path d="M2940 1711 c0 -11 4 -22 8 -25 14 -9 35 12 29 28 -9 23 -37 20 -37
-3z"/>
<path d="M2980 1650 c0 -5 5 -10 11 -10 5 0 7 5 4 10 -3 6 -8 10 -11 10 -2 0
-4 -4 -4 -10z"/>
<path d="M3023 1595 c0 -8 6 -16 14 -19 11 -4 11 -1 3 14 -13 24 -17 25 -17 5z"/>
<path d="M1991 1696 c-19 -23 -10 -61 14 -61 16 0 20 7 20 34 0 38 -15 50 -34
27z"/>
<path d="M2024 1615 c-16 -12 -17 -14 -2 -15 9 0 19 -8 21 -17 3 -10 5 -3 6
15 1 37 1 37 -25 17z"/>
<path d="M2798 1800 c-26 -29 -24 -60 3 -53 18 5 20 3 14 -16 -7 -23 7 -29 22
-8 22 27 22 47 0 72 l-22 26 -17 -21z"/>
<path d="M2757 1619 c7 -7 15 -10 18 -7 3 3 -2 9 -12 12 -14 6 -15 5 -6 -5z"/>
<path d="M2840 1590 c0 -11 7 -20 15 -20 8 0 15 9 15 20 0 11 -7 20 -15 20 -8
0 -15 -9 -15 -20z"/>
<path d="M2770 1484 c0 -8 5 -12 10 -9 6 3 10 10 10 16 0 5 -4 9 -10 9 -5 0
-10 -7 -10 -16z"/>
<path d="M2805 1390 c-3 -5 -1 -10 4 -10 6 0 11 5 11 10 0 6 -2 10 -4 10 -3 0
-8 -4 -11 -10z"/>
<path d="M2215 1651 c0 -28 1 -28 17 -14 14 12 15 19 7 30 -17 20 -24 16 -24
-16z"/>
<path d="M2130 1630 c-8 -16 -8 -20 3 -20 8 0 17 9 20 20 3 11 1 20 -4 20 -4
0 -13 -9 -19 -20z"/>
<path d="M2250 1619 c7 -11 14 -19 16 -16 7 7 -7 37 -17 37 -6 0 -5 -9 1 -21z"/>
<path d="M2212 1585 c-2 -30 13 -33 27 -6 8 15 7 20 -5 25 -9 3 -17 6 -18 6
-1 0 -3 -11 -4 -25z"/>
<path d="M2136 1504 c-20 -19 -20 -27 -1 -64 17 -33 36 -38 54 -16 10 11 8 16
-5 24 -15 9 -16 13 -5 26 11 13 11 19 1 31 -16 19 -25 19 -44 -1z m29 -72 c-8
-8 -25 10 -19 20 4 6 9 5 15 -3 4 -7 6 -15 4 -17z"/>
<path d="M2775 1220 c21 -22 41 -40 44 -40 3 0 -13 18 -34 40 -21 22 -41 40
-44 40 -3 0 13 -18 34 -40z"/>
<path d="M2705 1190 c27 -12 43 -12 25 0 -8 5 -22 9 -30 9 -10 0 -8 -3 5 -9z"/>
<path d="M2760 1176 c0 -2 9 -6 20 -9 11 -3 18 -1 14 4 -5 9 -34 13 -34 5z"/>
<path d="M2652 1114 c-22 -15 -31 -54 -13 -54 6 0 17 10 26 23 13 19 17 20 25
7 6 -9 10 -10 10 -3 0 7 7 10 15 7 9 -4 15 0 15 9 0 28 -44 35 -78 11z"/>
<path d="M2320 1090 c0 -5 6 -9 13 -7 6 1 11 -6 11 -15 -2 -18 7 -23 19 -11 8
7 -21 43 -35 43 -4 0 -8 -4 -8 -10z"/>
<path d="M2368 1013 c7 -3 16 -2 19 1 4 3 -2 6 -13 5 -11 0 -14 -3 -6 -6z"/>
<path d="M640 1596 l0 -846 383 0 c410 0 436 3 541 54 108 53 186 146 227 272
18 54 23 91 23 174 -1 163 -35 251 -132 341 l-59 55 45 50 c101 111 127 278
72 456 -37 119 -132 210 -270 259 -62 21 -82 22 -447 27 l-383 4 0 -846z m579
810 c-2 -2 -89 -38 -193 -80 l-190 -77 -80 80 -81 81 274 0 c151 0 272 -2 270
-4z m234 -16 c21 -6 35 -15 32 -20 -3 -6 1 -7 9 -4 23 9 95 -37 149 -95 26
-27 47 -54 47 -58 0 -4 -17 -17 -38 -29 -20 -11 -57 -32 -82 -46 l-45 -26 -68
63 -68 62 45 54 c24 29 43 56 40 58 -2 2 -14 -9 -26 -25 -13 -16 -33 -40 -45
-54 l-21 -25 -244 4 c-133 1 -244 4 -246 6 -1 1 80 37 180 79 l183 76 80 -4
c44 -3 97 -10 118 -16z m-665 -185 c-19 -16 -54 -47 -78 -69 -25 -21 -40 -36
-33 -32 7 4 9 0 6 -12 -3 -13 2 -18 17 -18 17 0 21 6 18 27 -2 21 8 36 50 74
l52 47 -1 -279 c-1 -197 -4 -268 -10 -244 -6 18 -12 31 -15 28 -3 -3 1 -28 10
-56 14 -48 14 -55 -6 -116 -11 -36 -25 -71 -32 -78 -6 -7 -12 -23 -14 -36 -3
-33 -20 -51 -39 -44 -12 5 -15 2 -11 -8 18 -47 17 -61 -2 -26 -11 20 -22 37
-24 37 -10 0 0 -39 16 -59 10 -13 17 -25 16 -25 -2 -1 -10 -7 -20 -14 -12 -10
-18 -10 -24 -1 -4 8 -3 9 5 5 18 -11 27 25 9 38 -13 9 -15 52 -17 274 l-2 262
27 0 c26 0 26 -1 11 -18 -10 -10 -17 -25 -17 -33 0 -7 12 3 27 24 19 27 29 34
35 25 6 -8 7 1 3 22 -7 34 -25 76 -64 150 -16 29 -19 60 -20 190 l-2 155 81
-80 81 -80 -33 -30z m926 -49 c8 -19 17 -64 21 -101 l8 -67 -51 26 c-43 22
-49 29 -45 48 5 22 5 22 -9 4 -10 -12 -20 -16 -29 -11 -8 5 -7 0 4 -12 18 -21
23 -43 8 -43 -5 0 -11 -8 -15 -17 -3 -10 -14 -33 -24 -50 l-19 -33 -11 83
c-15 122 -16 121 58 166 36 22 71 40 77 41 7 0 19 -15 27 -34z m-842 -33 c6
-16 19 -46 29 -68 77 -174 109 -252 109 -265 -1 -8 -20 -30 -43 -47 -23 -18
-61 -49 -84 -69 l-43 -37 0 257 c0 254 5 293 32 229z m440 -102 c31 -27 33
-33 33 -96 0 -63 -2 -68 -33 -96 -32 -29 -34 -29 -152 -29 l-120 0 0 125 0
125 120 0 c118 0 120 0 152 -29z m-346 -23 c47 -70 54 -88 53 -132 0 -22 -3
-34 -6 -26 -2 8 -16 39 -29 68 -13 29 -22 58 -19 63 4 5 2 9 -3 9 -8 0 -32 42
-32 55 0 12 9 2 36 -37z m535 33 c7 11 9 11 9 1 0 -7 5 -10 10 -7 6 4 10 -6
11 -22 0 -15 3 -48 6 -72 l5 -44 -38 23 c-22 13 -42 29 -46 34 -4 6 -13 11
-19 11 -7 0 -14 7 -16 15 -3 9 -1 11 4 5 12 -15 33 -17 47 -5 7 5 16 7 20 3 4
-4 4 0 0 10 -5 14 -9 15 -20 6 -9 -7 -14 -8 -14 -1 0 5 7 12 15 16 8 3 13 11
11 18 -1 7 -1 9 2 4 2 -4 8 -2 13 5z m199 -31 c36 -18 40 -24 39 -58 0 -20 -4
-46 -8 -57 -7 -18 -9 -17 -25 12 -9 18 -27 49 -41 69 -40 59 -31 68 35 34z m2
-127 c19 -31 19 -33 1 -33 -10 0 -31 11 -46 24 -16 14 -36 22 -46 19 -30 -8
-31 10 -5 68 l25 54 25 -50 c14 -28 35 -65 46 -82z m-232 42 c69 -35 71 -52
15 -143 -26 -42 -59 -92 -74 -109 l-27 -33 -18 51 c-10 27 -20 48 -22 46 -2
-2 3 -23 11 -47 8 -23 15 -44 15 -45 0 -2 -18 6 -41 17 -22 10 -43 17 -46 14
-3 -3 10 -12 28 -20 31 -13 14 -14 -203 -15 -131 -1 -238 1 -238 2 0 2 36 34
80 71 l80 68 38 -15 c20 -8 72 -32 116 -52 43 -20 80 -34 83 -31 4 4 -19 15
-142 69 l-50 22 95 6 c52 3 107 9 121 13 23 7 28 4 37 -21 l11 -28 -2 34 -2
34 95 33 c52 18 88 33 79 33 -8 1 -48 -10 -87 -23 l-71 -24 10 26 c21 54 42
92 50 92 6 0 32 -11 59 -25z m180 -71 c0 -9 -7 -14 -17 -12 -25 5 -28 28 -4
28 12 0 21 -6 21 -16z m-60 -231 c0 -13 3 -15 8 -5 10 15 79 -31 109 -75 47
-65 82 -166 83 -236 0 -27 0 -27 -77 31 -43 33 -91 67 -107 77 -28 19 -28 19
-23 99 l5 81 -11 -67 c-5 -38 -13 -67 -16 -67 -14 3 -144 150 -138 156 9 8 78
20 130 22 29 1 37 -3 37 -16z m-770 -169 c0 -69 -4 -103 -10 -99 -6 4 -8 10
-6 14 3 4 -4 13 -16 20 -11 7 -17 8 -13 2 3 -6 1 -11 -5 -11 -6 0 -8 -5 -4
-11 4 -8 9 -7 15 2 7 11 9 10 9 -4 0 -10 7 -20 15 -23 20 -8 20 -61 0 -61 -9
0 -11 5 -7 11 7 10 8 19 3 42 0 4 -8 1 -16 -6 -10 -8 -12 -16 -6 -19 6 -4 6
-12 1 -21 -7 -10 -10 -11 -10 -2 0 6 -9 12 -20 12 -11 0 -20 -5 -20 -11 0 -5
5 -7 12 -3 7 5 8 3 3 -5 -4 -8 -11 -9 -16 -4 -6 6 -3 25 8 49 9 21 17 41 18
44 2 16 59 190 62 190 2 0 3 -48 3 -106z m36 70 c-3 -8 -1 -14 5 -14 6 0 7 -4
4 -10 -3 -5 -1 -10 4 -10 6 0 10 -3 9 -7 0 -5 11 -35 27 -68 15 -33 47 -108
70 -167 l42 -106 -52 -52 c-36 -35 -57 -50 -67 -45 -7 5 -10 4 -5 0 7 -8 -29
-55 -42 -55 -3 0 -7 126 -7 280 -1 172 2 277 8 274 5 -3 7 -12 4 -20z m388
-71 c60 -5 72 -10 102 -40 32 -32 34 -37 34 -104 0 -136 -32 -159 -214 -159
l-126 0 0 148 c0 82 3 152 7 155 8 9 107 9 197 0z m-278 -45 c3 -4 -1 -5 -10
-4 -8 1 -18 5 -22 8 -3 4 1 5 10 4 8 -1 18 -5 22 -8z m729 -71 c44 -35 80 -68
80 -75 0 -15 -69 -65 -73 -52 -2 6 -10 7 -21 0 -10 -5 -21 -6 -25 -2 -4 3 -4
-1 -1 -10 5 -13 2 -15 -16 -11 -18 5 -21 3 -16 -10 4 -11 2 -14 -9 -10 -20 7
-18 31 4 36 14 4 14 5 -3 6 -18 1 -20 8 -21 65 -1 35 -4 82 -8 105 -8 50 -9
51 109 -42z m-125 -67 c0 -47 -6 -107 -13 -134 l-13 -50 -62 99 -62 99 32 33
c18 19 34 29 36 23 2 -5 9 -7 15 -3 7 4 6 0 -1 -10 -12 -14 -12 -19 1 -32 9
-8 17 -15 19 -15 8 0 5 57 -4 68 -6 7 -7 12 -1 12 5 0 16 12 24 26 l13 26 9
-29 c4 -15 8 -66 7 -113z m-590 114 c0 -8 -19 -13 -24 -6 -3 5 1 9 9 9 8 0 15
-2 15 -3z m31 -21 c13 -16 12 -17 -3 -4 -10 7 -18 15 -18 17 0 8 8 3 21 -13z
m-31 -30 c0 4 8 3 18 -2 14 -7 18 -24 19 -78 2 -64 1 -66 -11 -37 -8 17 -17
41 -21 55 -6 19 -5 22 7 14 9 -7 9 -5 -2 5 -8 8 -21 29 -28 45 -11 27 -11 28
3 11 8 -11 15 -17 15 -13z m495 -159 c29 -43 52 -80 51 -82 -2 -1 -29 7 -60
19 -32 11 -60 19 -62 16 -3 -3 24 -15 60 -27 36 -12 66 -24 66 -27 0 -12 -137
-110 -144 -102 -2 2 -8 18 -15 34 l-11 30 6 -33 6 -33 -152 76 c-84 42 -150
78 -148 80 2 2 74 5 161 6 116 2 152 6 138 14 -19 10 -19 11 5 40 13 17 24 37
24 46 0 16 11 32 17 25 2 -2 28 -39 58 -82z m-658 -21 c-2 -16 -4 -3 -4 27 0
30 2 43 4 28 2 -16 2 -40 0 -55z m-37 -20 c0 -7 -4 -13 -8 -13 -12 0 -32 23
-32 37 0 11 4 11 20 1 11 -7 20 -18 20 -25z m570 -169 c0 -2 -111 -4 -247 -4
l-248 1 90 84 89 83 158 -80 c87 -44 158 -82 158 -84z m-602 57 c22 -19 20
-31 -6 -31 -9 0 -12 3 -9 6 3 4 2 15 -4 25 -12 24 -8 24 19 0z m65 -12 c-8 -8
-13 -7 -18 2 -5 8 -4 10 3 5 7 -4 12 -2 12 5 0 7 3 9 7 6 4 -4 2 -12 -4 -18z
m-89 -55 c3 -8 2 -12 -4 -9 -6 3 -10 10 -10 16 0 14 7 11 14 -7z m18 -41 c-6
-3 -10 -8 -8 -12 3 -4 -5 -7 -16 -7 -19 0 -19 1 2 18 13 10 26 16 29 12 3 -4
0 -9 -7 -11z"/>
<path d="M1300 2353 c0 -5 10 -19 21 -33 l20 -25 -16 33 c-15 30 -25 41 -25
25z"/>
<path d="M1507 2293 c-10 -10 -8 -43 2 -43 5 0 7 10 4 21 -5 18 -3 20 18 14
18 -5 21 -4 9 4 -18 13 -24 13 -33 4z"/>
<path d="M1498 2203 c7 -3 16 -2 19 1 4 3 -2 6 -13 5 -11 0 -14 -3 -6 -6z"/>
<path d="M750 2056 c0 -2 7 -6 15 -10 8 -3 15 -1 15 4 0 6 -7 10 -15 10 -8 0
-15 -2 -15 -4z"/>
<path d="M750 1849 c0 -21 34 -113 38 -101 2 7 -4 34 -13 62 -16 48 -25 62
-25 39z"/>
<path d="M711 1791 c11 -32 39 -43 39 -15 0 11 -5 14 -16 10 -15 -6 -15 -4 -3
11 7 10 9 15 5 11 -5 -4 -15 -3 -22 3 -11 9 -12 6 -3 -20z"/>
<path d="M740 1712 c0 -12 19 -26 26 -19 2 2 -2 10 -11 17 -9 8 -15 8 -15 2z"/>
<path d="M686 1675 c-9 -14 -12 -25 -6 -25 5 0 10 5 10 11 0 8 6 7 18 -2 15
-13 16 -12 4 3 -8 9 -11 22 -7 28 14 22 -4 9 -19 -15z"/>
<path d="M735 1640 c3 -5 8 -10 11 -10 2 0 4 5 4 10 0 6 -5 10 -11 10 -5 0 -7
-4 -4 -10z"/>
<path d="M680 1596 c0 -8 4 -17 9 -20 5 -4 7 3 4 14 -6 23 -13 26 -13 6z"/>
<path d="M670 1550 c0 -5 5 -10 10 -10 6 0 10 5 10 10 0 6 -4 10 -10 10 -5 0
-10 -4 -10 -10z"/>
<path d="M730 1525 c0 -17 5 -25 13 -22 6 2 12 12 12 22 0 10 -6 20 -12 23 -8
2 -13 -6 -13 -23z"/>
<path d="M687 1456 c-6 -15 19 -43 29 -33 8 8 -5 47 -16 47 -4 0 -10 -6 -13
-14z"/>
<path d="M1676 2163 c-6 -14 -5 -15 5 -6 7 7 10 15 7 18 -3 3 -9 -2 -12 -12z"/>
<path d="M1656 2115 c-9 -26 -7 -32 5 -12 6 10 9 21 6 23 -2 3 -7 -2 -11 -11z"/>
<path d="M1495 2010 c-3 -5 -1 -10 4 -10 6 0 11 5 11 10 0 6 -2 10 -4 10 -3 0
-8 -4 -11 -10z"/>
<path d="M787 1416 c-3 -8 0 -20 8 -26 10 -8 13 -5 11 15 -1 28 -11 33 -19 11z"/>
<path d="M754 1336 c-3 -8 -4 -21 -1 -28 3 -8 6 -6 6 5 1 10 6 15 11 12 6 -3
10 -2 10 4 0 17 -20 23 -26 7z"/>
<path d="M1628 1266 c-6 -14 -8 -32 -4 -41 7 -20 37 -16 44 5 4 12 3 13 -10 3
-18 -16 -32 -5 -17 13 6 7 18 10 26 7 13 -5 15 -2 10 11 -4 10 -7 20 -7 22 0
2 -7 4 -15 4 -9 0 -20 -11 -27 -24z"/>
<path d="M1543 1342 c-1 -22 0 -24 9 -8 6 10 6 22 2 26 -5 5 -10 -3 -11 -18z"/>
<path d="M1470 1309 c0 -5 5 -7 10 -4 6 3 10 8 10 11 0 2 -4 4 -10 4 -5 0 -10
-5 -10 -11z"/>
<path d="M1341 1090 c0 -8 4 -24 9 -35 5 -13 9 -14 9 -5 0 8 -4 24 -9 35 -5
13 -9 14 -9 5z"/>
<path d="M3217 2433 c-4 -3 -7 -384 -7 -845 l0 -838 200 0 200 0 2 383 3 382
61 -125 c121 -245 281 -576 295 -607 l14 -33 192 0 193 0 -2 843 -3 842 -197
3 -198 2 -1 -312 c-1 -172 -1 -338 0 -368 1 -30 0 -52 -4 -48 -6 6 -294 593
-335 682 l-20 46 -194 0 c-106 0 -196 -3 -199 -7z m283 -98 c-41 -41 -79 -75
-85 -75 -6 0 -44 34 -85 75 l-74 75 159 0 159 0 -74 -75z m774 23 c-113 -123
-97 -120 -189 -28 l-80 80 159 0 159 0 -49 -52z m-605 -100 c38 -79 112 -232
165 -341 53 -109 96 -201 96 -205 0 -3 -28 25 -62 63 -98 109 -289 315 -382
413 l-50 52 79 80 c44 44 81 80 82 80 2 0 34 -64 72 -142z m-306 22 l47 -43 0
-516 c0 -366 -3 -512 -11 -501 -8 11 -9 4 -3 -25 11 -61 12 -178 2 -197 -6
-12 -5 -18 2 -18 26 0 -56 -101 -127 -155 -29 -23 -38 -17 -20 13 5 6 4 12 -1
12 -10 0 -15 172 -6 203 3 9 9 15 14 12 13 -8 40 42 47 90 7 53 -9 97 -43 120
l-24 15 0 500 c0 306 4 501 10 505 5 3 7 11 5 18 -2 7 -6 28 -9 47 l-6 34 37
-35 c21 -20 59 -55 86 -79z m717 35 l75 -74 2 -598 c1 -414 -1 -589 -8 -568
-12 34 -6 15 -92 326 l-66 236 26 84 c13 46 34 113 45 149 11 36 23 79 28 95
5 17 20 70 35 119 14 48 24 90 22 93 -3 2 -17 -35 -32 -84 -14 -48 -30 -99
-34 -113 -5 -14 -13 -41 -19 -60 -47 -158 -64 -210 -68 -210 -2 0 -4 153 -4
340 0 187 3 340 8 340 4 0 41 -34 82 -75z m235 -115 c-5 -8 -11 -8 -17 -2 -6
6 -7 16 -3 22 5 8 11 8 17 2 6 -6 7 -16 3 -22z m-594 -280 c58 -63 139 -154
181 -201 72 -84 75 -89 102 -190 30 -112 96 -349 123 -439 9 -30 18 -62 20
-70 5 -17 -52 77 -132 215 -29 50 -85 146 -125 215 -70 121 -161 277 -325 560
-43 74 -85 146 -93 160 -18 30 105 -93 249 -250z m589 251 c0 -6 -4 -13 -10
-16 -5 -3 -10 1 -10 9 0 9 5 16 10 16 6 0 10 -4 10 -9z m0 -51 c0 -5 -2 -10
-4 -10 -3 0 -8 5 -11 10 -3 6 -1 10 4 10 6 0 11 -4 11 -10z m-40 -32 c0 -6 3
-9 6 -5 13 13 29 -18 26 -50 -4 -33 -15 -42 -27 -23 -7 12 -25 4 -25 -11 0 -5
9 -9 20 -9 15 0 20 -7 20 -29 0 -44 -74 -668 -85 -718 -12 -54 -21 -15 -18 80
8 229 8 307 -1 310 -4 1 3 17 18 33 25 31 25 54 -1 33 -7 -6 -13 -10 -14 -8
-9 49 -7 55 24 50 4 0 7 4 7 10 0 5 4 8 9 4 5 -3 12 -1 16 5 3 5 -2 10 -12 10
-17 1 -17 1 0 14 24 18 22 63 -3 71 -23 7 -26 21 -7 28 8 3 4 13 -13 32 -14
16 -18 24 -10 20 13 -8 13 -7 1 8 -7 9 -10 17 -6 17 4 0 2 7 -5 15 -11 13 -10
14 4 9 13 -5 16 0 16 24 0 17 4 34 10 37 6 3 7 -1 4 -9 -7 -19 14 -21 36 -5
13 9 12 10 -2 5 -15 -4 -16 -1 -8 20 14 37 13 38 -17 20 l-28 -17 24 20 c26
24 41 27 41 9z m70 -119 c0 -18 -5 -29 -13 -29 -9 0 -14 13 -14 40 0 32 3 38
14 29 7 -6 13 -24 13 -40z m-886 -62 c-1 -17 5 -42 14 -56 l16 -26 -21 18
c-21 19 -22 18 -16 -4 4 -15 3 -20 -5 -15 -16 10 -13 113 2 113 7 0 11 -13 10
-30z m885 -102 c1 -98 -2 -131 -14 -148 -18 -25 -19 -37 -4 -37 5 0 7 5 4 10
-3 6 -1 10 5 10 8 0 10 -65 9 -219 -2 -202 -3 -220 -20 -224 -23 -6 -32 3 -18
19 7 8 7 19 1 30 -6 11 -12 13 -16 6 -4 -6 -12 -10 -19 -8 -7 1 -9 1 -4 -1 4
-3 7 -13 7 -23 0 -10 10 -26 22 -34 16 -11 18 -16 8 -17 -11 0 -11 -2 -2 -6 6
-2 12 -13 12 -23 0 -10 4 -21 9 -24 5 -4 7 12 5 34 -2 22 1 40 6 40 6 0 9 -34
8 -82 0 -46 -3 -67 -5 -48 -6 45 -17 57 -39 39 -16 -13 -17 -11 -12 14 3 15 1
30 -3 33 -5 3 -9 16 -9 30 0 26 -18 31 -39 12 -8 -7 -12 -8 -9 -3 3 6 9 48 12
93 4 46 11 93 15 105 5 12 6 29 3 37 -3 8 -1 12 3 7 13 -11 55 34 55 59 0 26
-22 37 -40 21 -10 -10 -11 -3 -7 33 4 25 9 75 13 112 4 44 11 69 21 72 8 3 11
11 7 17 -22 35 -5 189 20 189 10 0 14 -30 15 -125z m-840 -35 c-8 -7 -5 -53 4
-67 14 -23 -9 -14 -33 12 -25 26 -21 47 5 25 20 -17 19 -3 -2 18 -12 12 -18
13 -21 4 -5 -17 -22 -15 -22 4 0 8 5 12 10 9 6 -3 10 -2 10 4 0 5 -6 11 -12
14 -7 2 -10 8 -5 13 4 4 14 -2 23 -14 22 -32 38 -27 17 6 l-17 27 25 -25 c13
-14 22 -27 18 -30z m732 27 c-13 -13 -26 -3 -16 12 3 6 11 8 17 5 6 -4 6 -10
-1 -17z m-720 -121 c5 3 6 -2 3 -10 -3 -9 -8 -16 -10 -16 -13 0 -74 66 -74 79
0 10 13 2 36 -22 20 -20 40 -34 45 -31z m25 -98 c3 -11 3 -22 0 -25 -3 -3 4
-19 15 -35 40 -56 12 -37 -53 35 -55 61 -65 78 -66 112 l-2 39 50 -53 c27 -29
52 -62 56 -73z m20 -113 c11 -21 -6 -8 -55 42 -39 40 -71 80 -71 90 1 21 102
-85 126 -132z m-18 -27 c9 -16 23 -28 32 -29 10 0 11 -2 2 -6 -7 -3 -19 1 -27
7 -25 21 -16 -2 12 -32 45 -47 20 -40 -27 7 -25 24 -49 44 -55 45 -5 0 20 -29
55 -65 77 -78 72 -87 -7 -12 -30 28 -60 54 -66 56 -7 2 21 -27 60 -64 40 -37
70 -72 67 -77 -5 -8 -145 115 -153 135 -2 5 3 13 10 18 9 5 10 9 3 9 -7 0 -12
16 -12 36 l0 36 46 -43 c26 -24 38 -33 27 -19 -11 13 -32 37 -47 51 -16 15
-28 38 -28 51 1 20 6 17 46 -27 25 -27 52 -62 62 -77z m235 57 c-3 -9 -8 -14
-10 -11 -3 3 -2 9 2 15 9 16 15 13 8 -4z m45 -73 c5 -16 -21 -15 -36 0 -7 7
-12 18 -12 26 0 12 3 12 22 0 12 -8 24 -20 26 -26z m-309 -111 c58 -52 70 -69
68 -92 -2 -26 -3 -27 -22 -11 -12 11 -9 3 8 -20 40 -54 22 -47 -48 19 l-60 58
63 -65 c34 -36 62 -72 62 -79 0 -7 -20 9 -45 35 -30 33 -53 49 -69 49 -29 1
-31 3 61 -94 29 -31 53 -63 52 -71 0 -8 -33 20 -73 64 l-73 78 0 99 c0 55 1
98 3 97 1 -2 34 -32 73 -67z m351 -116 c7 -9 8 -15 2 -15 -5 0 -12 7 -16 15
-3 8 -4 15 -2 15 2 0 9 -7 16 -15z m-318 -60 c20 -22 38 -47 38 -55 0 -8 -25
12 -55 45 -83 92 -69 101 17 10z m-290 -32 c-9 -25 -10 -21 -10 32 0 55 1 57
10 28 7 -21 7 -40 0 -60z m306 -67 c12 -11 22 -26 22 -34 0 -9 -16 0 -39 24
-76 77 -88 86 -96 73 -5 -7 -4 -10 2 -6 5 4 23 -7 38 -23 16 -17 25 -30 20
-30 -4 0 0 -9 10 -20 10 -11 24 -20 32 -20 7 0 13 -7 13 -15 0 -8 -4 -15 -8
-15 -11 0 -83 75 -78 81 3 3 -4 5 -14 5 -13 0 2 -20 53 -67 40 -37 69 -70 66
-73 -3 -4 -38 23 -76 58 l-70 65 -1 67 -1 66 52 -58 c29 -32 62 -67 75 -78z
m692 84 c0 -11 -7 -20 -15 -20 -17 0 -18 2 -9 24 9 23 24 20 24 -4z m-305 -1
c11 -16 1 -19 -13 -3 -7 8 -8 14 -3 14 5 0 13 -5 16 -11z m366 -112 c-6 -15
-17 -27 -26 -27 -22 0 -19 27 5 40 11 6 21 18 21 28 1 14 2 14 6 1 2 -8 -1
-28 -6 -42z m-61 28 c0 -8 -4 -15 -10 -15 -5 0 -7 7 -4 15 4 8 8 15 10 15 2 0
4 -7 4 -15z m-719 -12 c13 -16 12 -17 -3 -4 -10 7 -18 15 -18 17 0 8 8 3 21
-13z m686 -25 c-3 -7 -5 -2 -5 12 0 14 2 19 5 13 2 -7 2 -19 0 -25z m-694 -57
c31 -30 57 -59 57 -65 0 -6 -21 10 -47 35 -85 80 -100 85 -25 8 72 -75 102
-122 37 -59 -19 19 -35 29 -35 23 0 -6 18 -27 40 -47 22 -20 37 -36 32 -36 -4
0 -41 34 -82 75 -41 41 -68 75 -61 75 9 0 10 4 4 13 -5 6 -10 22 -11 35 -1 28
3 25 91 -57z m731 16 c-5 -15 -3 -17 7 -11 12 6 12 5 0 -9 -18 -22 -28 -21
-34 3 -3 10 0 18 5 17 6 -1 13 4 16 12 2 8 0 11 -5 8 -5 -3 -10 0 -10 8 0 11
4 12 14 3 8 -6 11 -19 7 -31z m85 -43 c1 -56 -2 -83 -9 -79 -14 9 -13 -8 3
-25 10 -12 9 -12 -5 -1 -10 7 -18 20 -18 28 0 8 -4 12 -8 9 -5 -3 -21 7 -36
23 -27 28 -27 28 -6 34 18 4 19 3 9 -9 -10 -12 -9 -13 3 -9 9 4 19 -1 23 -12
7 -16 9 -15 14 7 4 14 3 37 -3 51 -7 21 -5 30 10 47 10 11 20 21 20 21 1 1 2
-38 3 -85z m-759 50 c0 -8 -5 -12 -10 -9 -6 4 -8 11 -5 16 9 14 15 11 15 -7z"/>
<path d="M3583 2219 c-13 -13 3 -59 19 -59 5 0 6 5 3 11 -4 6 1 16 11 23 18
13 12 36 -10 36 -6 0 -17 -5 -23 -11z"/>
<path d="M3252 2250 c0 -25 4 -56 8 -70 8 -24 8 -24 8 5 1 17 -3 48 -7 70 l-9
40 0 -45z"/>
<path d="M3272 2115 c0 -22 4 -53 8 -70 7 -28 8 -28 8 10 0 22 -4 54 -8 70 -7
28 -8 28 -8 -10z"/>
<path d="M3294 1943 c5 -31 12 -51 14 -44 6 18 -8 101 -17 101 -4 0 -3 -25 3
-57z"/>
<path d="M3312 1830 c0 -14 4 -38 8 -55 l8 -30 0 30 c0 17 -4 41 -8 55 l-8 25
0 -25z"/>
<path d="M3332 1700 c-1 -19 3 -53 7 -75 8 -35 9 -36 9 -10 0 17 -3 50 -7 75
-8 42 -9 43 -9 10z"/>
<path d="M3277 1653 c-4 -3 -6 -18 -6 -32 1 -17 3 -20 6 -8 9 34 25 17 21 -23
-4 -46 4 -51 20 -15 16 35 15 49 -6 68 -20 19 -26 20 -35 10z"/>
<path d="M3352 1540 c0 -19 4 -48 8 -65 l8 -30 0 35 c0 19 -4 49 -8 65 l-8 30
0 -35z"/>
<path d="M3307 1514 c-8 -8 1 -24 14 -24 5 0 9 7 9 15 0 15 -12 20 -23 9z"/>
<path d="M3372 1385 c0 -22 4 -53 8 -70 l8 -30 0 30 c1 17 -3 48 -7 70 l-9 40
0 -40z"/>
<path d="M3286 1385 c-9 -24 -8 -25 20 -25 19 0 25 5 22 17 -4 23 -34 28 -42
8z"/>
<path d="M3335 1290 c3 -5 8 -10 11 -10 2 0 4 5 4 10 0 6 -5 10 -11 10 -5 0
-7 -4 -4 -10z"/>
<path d="M3308 1052 c-7 -9 -18 -26 -24 -37 -10 -18 -9 -21 7 -22 10 -1 20 6
22 15 4 15 5 15 6 0 0 -10 8 -18 16 -18 10 0 15 10 15 34 0 39 -21 53 -42 28z"/>
<path d="M4070 2161 c0 -12 5 -21 10 -21 6 0 10 6 10 14 0 8 -4 18 -10 21 -5
3 -10 -3 -10 -14z"/>
<path d="M4080 1636 c0 -22 11 -46 21 -46 5 0 9 14 9 30 0 20 -5 30 -15 30 -8
0 -15 -6 -15 -14z"/>
<path d="M4225 1960 c-3 -5 1 -10 10 -10 9 0 13 5 10 10 -3 6 -8 10 -10 10 -2
0 -7 -4 -10 -10z"/>
<path d="M4250 1926 c0 -9 5 -16 10 -16 6 0 10 4 10 9 0 6 -4 13 -10 16 -5 3
-10 -1 -10 -9z"/>
<path d="M4220 1580 c0 -5 5 -10 10 -10 6 0 10 5 10 10 0 6 -4 10 -10 10 -5 0
-10 -4 -10 -10z"/>
<path d="M4310 1825 c0 -8 5 -15 10 -15 6 0 10 7 10 15 0 8 -4 15 -10 15 -5 0
-10 -7 -10 -15z"/>
<path d="M4306 1591 c-4 -5 -2 -12 3 -15 5 -4 12 -2 15 3 4 5 2 12 -3 15 -5 4
-12 2 -15 -3z"/>
<path d="M4282 1350 c-9 -24 -9 -36 -1 -46 16 -19 22 -17 36 11 6 14 7 25 2
25 -5 0 -13 10 -18 22 -7 20 -9 19 -19 -12z"/>
<path d="M3485 1598 c22 -26 41 -45 44 -42 3 2 -15 24 -38 47 l-44 42 38 -47z"/>
<path d="M3450 1450 c0 -5 5 -10 11 -10 5 0 7 5 4 10 -3 6 -8 10 -11 10 -2 0
-4 -4 -4 -10z"/>
<path d="M3467 1301 c-3 -13 6 -30 29 -52 19 -18 34 -27 34 -21 0 10 5 10 20
2 11 -6 20 -8 20 -5 0 8 -74 74 -79 69 -2 -2 7 -12 20 -23 13 -11 21 -23 16
-27 -12 -13 -55 35 -50 57 3 10 3 19 0 19 -2 0 -7 -9 -10 -19z"/>
<path d="M3450 946 c0 -10 50 -59 56 -54 2 3 -10 17 -26 33 -17 16 -30 25 -30
21z"/>
</g>
</svg>
