<?xml version="1.0" standalone="no"?>
<!DOCTYPE svg PUBLIC "-//W3C//DTD SVG 20010904//EN"
 "http://www.w3.org/TR/2001/REC-SVG-20010904/DTD/svg10.dtd">
<svg version="1.0" xmlns="http://www.w3.org/2000/svg"
 width="669.000000pt" height="373.000000pt" viewBox="0 0 669.000000 373.000000"
 preserveAspectRatio="xMidYMid meet">

<g transform="translate(0.000000,373.000000) scale(0.100000,-0.100000)"
fill="#000000" stroke="none">
<path d="M666 3269 c-103 -35 -185 -103 -231 -190 -56 -108 -66 -160 -81 -417
-25 -461 -12 -1722 20 -1852 36 -145 102 -253 195 -316 71 -48 114 -59 236
-59 104 0 114 2 183 34 157 74 242 235 263 496 12 146 8 519 -4 532 -10 10
-322 11 -332 1 -4 -4 -10 -128 -13 -276 -4 -247 -7 -273 -26 -312 -26 -55 -46
-67 -83 -54 -41 14 -71 65 -78 137 -3 34 -5 449 -3 922 3 837 4 861 23 900 27
54 62 73 103 56 58 -24 73 -110 70 -403 -2 -124 1 -230 5 -235 5 -4 84 -8 175
-8 l167 0 3 200 c5 343 -18 527 -83 655 -25 49 -113 138 -163 164 -90 47 -248
58 -346 25z m214 -11 c0 -5 -5 -19 -11 -31 -10 -22 -10 -22 6 -2 9 11 21 19
26 17 6 -1 8 2 4 8 -12 19 32 10 91 -20 83 -41 144 -108 182 -200 53 -128 61
-202 65 -548 l2 -223 -30 33 c-17 18 -52 61 -78 95 l-47 61 31 77 c17 42 28
79 26 82 -3 2 -12 -17 -21 -44 -39 -114 -42 -109 -49 83 -4 121 -12 197 -23
234 -9 30 -17 61 -19 69 -6 41 -142 141 -191 141 -33 0 -35 10 -9 55 14 23 25
46 25 51 0 5 -14 -15 -30 -43 -21 -36 -37 -53 -50 -53 -11 0 -20 -4 -20 -10 0
-5 -7 -10 -15 -10 -26 0 -114 -49 -127 -70 -17 -26 -22 -25 -36 5 -11 25 -6
31 22 26 5 -1 6 6 2 15 -3 9 -1 24 6 32 10 12 10 14 1 8 -8 -4 -13 -1 -13 8 0
9 8 16 17 16 21 0 14 7 -12 12 -12 2 -20 -3 -20 -11 0 -8 -9 -15 -20 -17 -11
-2 -21 -8 -23 -14 -3 -8 -8 -8 -18 0 -11 10 -13 7 -11 -16 1 -15 -4 -29 -10
-31 -17 -6 -16 16 1 50 13 24 13 27 -1 27 -40 0 91 102 167 130 68 24 210 30
210 8z m-406 -206 c-4 -15 -8 -31 -8 -37 -1 -5 -5 -13 -9 -16 -4 -3 -11 -23
-14 -44 -5 -29 -3 -36 6 -30 7 4 11 15 8 25 -2 10 -1 24 4 31 6 10 9 4 9 -18
0 -33 -12 -46 -42 -48 -12 -1 -17 4 -14 14 3 9 8 32 11 51 11 54 49 138 53
117 2 -10 0 -31 -4 -45z m109 23 c-3 -9 -8 -14 -10 -11 -3 3 -2 9 2 15 9 16
15 13 8 -4z m97 -48 c0 -2 -15 -16 -32 -33 l-33 -29 29 33 c28 30 36 37 36 29z
m-96 -33 c4 -9 5 -17 4 -18 -2 -1 -22 -12 -45 -24 -24 -13 -43 -21 -43 -19 0
7 65 77 71 77 4 0 10 -7 13 -16z m-81 -19 c-7 -21 -12 -19 -10 4 0 11 5 18 9
15 4 -3 5 -11 1 -19z m62 -51 c-38 -72 -55 -118 -46 -127 10 -10 3 -47 -9 -47
-4 0 -7 24 -7 54 1 36 5 53 11 48 6 -3 5 1 -2 10 -17 21 -3 54 33 78 36 24 40
21 20 -16z m61 -49 c16 -91 17 -88 -38 -150 l-52 -60 57 54 c31 30 58 53 61
50 10 -10 36 -134 36 -170 0 -41 -13 -46 -23 -9 -3 11 -1 18 4 14 5 -3 9 4 9
16 0 12 -4 19 -9 15 -5 -3 -12 5 -14 17 -2 13 -5 1 -6 -25 l-1 -48 -44 30
c-70 48 -79 60 -71 95 3 17 12 65 20 107 7 42 21 94 30 115 l17 39 9 -30 c6
-16 12 -43 15 -60z m45 31 c5 3 4 -6 -3 -20 -15 -34 -24 -33 -22 2 2 35 4 40
11 24 2 -6 9 -10 14 -6z m30 -166 c-5 -63 -7 -70 -14 -42 -5 27 10 130 18 120
1 -2 -1 -37 -4 -78z m356 -97 c-3 -10 -5 -2 -5 17 0 19 2 27 5 18 2 -10 2 -26
0 -35z m-365 -250 c3 -82 4 -337 2 -568 -7 -714 -4 -852 20 -909 8 -20 12 -36
9 -36 -3 0 1 -8 10 -18 10 -10 14 -22 10 -25 -7 -7 34 -10 106 -7 28 1 41 -2
37 -9 -4 -7 -1 -8 8 -5 9 3 16 2 16 -4 0 -5 9 -12 20 -15 12 -3 20 -1 19 6 -3
24 3 52 8 39 4 -10 9 -9 20 5 13 17 14 16 7 -7 -4 -13 -13 -30 -21 -38 -8 -8
-12 -21 -9 -29 3 -8 6 -19 6 -24 0 -5 4 -9 10 -9 5 0 7 8 3 18 -5 13 -3 14 6
6 19 -17 -13 -60 -62 -85 -117 -60 -251 -20 -317 96 -51 88 -64 216 -60 590 4
517 3 608 -5 932 -4 172 -5 319 -1 328 5 13 20 6 79 -34 l74 -51 5 -147z m365
175 c-3 -7 -5 -2 -5 12 0 14 2 19 5 13 2 -7 2 -19 0 -25z m-545 -229 c3 -32 1
-37 -8 -25 -9 13 -8 66 1 66 2 0 5 -18 7 -41z m3 -417 c-3 -18 -10 -30 -16
-26 -6 4 -8 22 -3 48 8 48 10 66 15 121 2 25 4 11 7 -35 2 -41 0 -90 -3 -108z
m22 -84 c-2 -13 -4 -5 -4 17 -1 22 1 32 4 23 2 -10 2 -28 0 -40z m-44 -1 c-3
-6 3 -17 13 -25 16 -13 17 -14 2 -9 -14 5 -18 1 -18 -16 0 -16 -3 -18 -9 -8
-5 7 -6 22 -4 32 4 12 0 19 -10 19 -8 0 -20 6 -26 14 -10 11 -9 16 5 24 19 11
57 -15 47 -31z m44 -84 c-3 -10 -5 -2 -5 17 0 19 2 27 5 18 2 -10 2 -26 0 -35z
m-22 28 c3 -5 2 -12 -3 -15 -5 -3 -9 1 -9 9 0 17 3 19 12 6z m-7 -83 c1 -22 4
-43 6 -46 2 -4 -8 -7 -23 -7 -26 0 -27 1 -15 35 7 20 8 36 3 38 -16 6 -10 18
9 19 15 1 19 -6 20 -39z m-131 -10 c-3 -8 -6 -5 -6 6 -1 11 2 17 5 13 3 -3 4
-12 1 -19z m82 -208 c15 0 35 -60 24 -71 -17 -17 -43 30 -42 76 1 23 4 30 6
18 2 -13 8 -23 12 -23z m768 -2 c-2 -7 -10 -12 -16 -10 -6 1 -10 -1 -9 -5 3
-15 -14 -43 -23 -37 -5 3 -30 -27 -55 -67 l-47 -72 -21 35 c-12 18 -42 61 -68
95 -27 34 -48 64 -48 67 0 3 66 6 146 6 112 0 145 -3 141 -12z m17 -388 l-7
-115 -26 55 c-44 90 -62 122 -67 117 -3 -2 17 -45 44 -94 34 -62 47 -98 45
-119 -10 -90 -30 -167 -59 -229 l-32 -70 -1 50 c0 28 -6 72 -13 99 l-12 49 44
39 c25 21 41 38 36 38 -4 0 -24 -14 -44 -31 l-36 -32 -8 24 c-5 13 -7 34 -5
46 2 12 0 20 -4 17 -10 -6 -11 -2 -14 181 -2 151 -2 153 57 232 39 54 47 69
26 57 -7 -4 -8 -3 -4 5 4 6 11 9 15 6 5 -2 19 7 32 21 l24 26 8 -129 c4 -70 4
-180 1 -243z m-205 -214 c-9 -8 -10 -7 -5 7 3 10 7 26 7 35 1 9 4 6 6 -7 3
-13 -1 -28 -8 -35z m55 7 c6 -44 4 -50 -20 -71 -14 -13 -27 -22 -29 -20 -5 5
30 138 36 138 4 0 9 -21 13 -47z m-184 -27 c0 -3 -4 -8 -10 -11 -5 -3 -10 -1
-10 4 0 6 5 11 10 11 6 0 10 -2 10 -4z m113 -41 c-8 -25 -19 -43 -23 -40 -11
7 -7 30 9 49 7 8 10 20 6 26 -3 5 1 10 9 10 13 0 13 -5 -1 -45z m59 -37 c-7
-7 -12 -8 -12 -2 0 14 12 26 19 19 2 -3 -1 -11 -7 -17z m-49 -22 c-10 -13 -20
-22 -22 -20 -4 4 29 44 36 44 2 0 -4 -11 -14 -24z m87 -17 c0 -17 -3 -18 -21
-9 -16 9 -18 14 -9 26 15 17 30 9 30 -17z m-7 -69 c-4 -22 -9 -25 -46 -25 -30
0 -43 5 -45 17 -4 23 19 34 30 14 5 -9 14 -14 19 -11 5 4 6 11 3 17 -4 6 -3 8
2 5 6 -3 16 -2 24 3 18 11 19 10 13 -20z m-177 -15 c-11 -8 -24 -15 -30 -15
-5 0 -1 7 10 15 10 8 24 14 29 14 6 0 1 -6 -9 -14z m194 -26 c0 -11 -47 -12
-54 -1 -2 4 9 8 25 8 16 1 29 -2 29 -7z m-283 -25 c-3 -3 -12 -4 -19 -1 -8 3
-5 6 6 6 11 1 17 -2 13 -5z m218 -14 c-3 -4 -15 -6 -27 -2 -21 5 -21 6 -2 12
21 8 37 3 29 -10z m42 4 c-3 -3 -12 -4 -19 -1 -8 3 -5 6 6 6 11 1 17 -2 13 -5z
m-27 -39 c-7 -8 -20 -15 -29 -15 -12 1 -11 5 8 21 26 22 41 18 21 -6z m-45
-24 c3 -5 2 -12 -3 -15 -5 -3 -9 1 -9 9 0 17 3 19 12 6z"/>
<path d="M630 3190 c-8 -5 -10 -10 -5 -10 6 0 17 5 25 10 8 5 11 10 5 10 -5 0
-17 -5 -25 -10z"/>
<path d="M931 3185 c0 -5 6 -21 14 -35 8 -14 14 -20 14 -15 0 6 -6 21 -14 35
-8 14 -14 21 -14 15z"/>
<path d="M523 3133 c9 -2 25 -2 35 0 9 3 1 5 -18 5 -19 0 -27 -2 -17 -5z"/>
<path d="M648 3113 c7 -3 16 -2 19 1 4 3 -2 6 -13 5 -11 0 -14 -3 -6 -6z"/>
<path d="M703 3103 c9 -2 25 -2 35 0 9 3 1 5 -18 5 -19 0 -27 -2 -17 -5z"/>
<path d="M590 2681 c0 -6 4 -13 10 -16 6 -3 7 1 4 9 -7 18 -14 21 -14 7z"/>
<path d="M626 2483 c-9 -23 -7 -24 14 -13 16 9 19 8 13 -6 -4 -12 -3 -15 6
-10 17 11 10 39 -11 42 -9 1 -19 -5 -22 -13z"/>
<path d="M575 2258 c-18 -26 -20 -47 -3 -30 18 18 25 15 41 -18 14 -27 14 -31
-1 -40 -15 -10 -15 -10 3 -8 11 2 20 10 21 18 0 8 4 23 9 33 22 52 -37 91 -70
45z"/>
<path d="M570 2196 c0 -8 4 -17 9 -20 5 -4 7 3 4 14 -6 23 -13 26 -13 6z"/>
<path d="M590 2118 c0 -5 11 -8 24 -8 14 0 27 3 29 8 3 4 -8 7 -24 7 -16 0
-29 -3 -29 -7z"/>
<path d="M610 1786 c0 -2 7 -7 16 -10 8 -3 12 -2 9 4 -6 10 -25 14 -25 6z"/>
<path d="M593 1665 c-3 -9 -3 -18 -1 -21 3 -3 8 4 11 16 6 23 -1 27 -10 5z"/>
<path d="M617 1522 c-21 -23 -22 -52 -1 -52 8 0 13 4 9 9 -3 6 4 15 15 21 22
12 27 40 7 40 -8 0 -21 -8 -30 -18z"/>
<path d="M652 1301 c-16 -29 -19 -42 -11 -47 7 -4 9 -3 6 3 -3 5 3 24 14 42
11 18 18 35 16 37 -2 2 -13 -14 -25 -35z"/>
<path d="M614 1233 c-3 -10 -12 -33 -20 -51 -8 -18 -14 -36 -14 -40 1 -12 32
49 40 80 9 30 3 40 -6 11z"/>
<path d="M661 1164 c0 -11 3 -14 6 -6 3 7 2 16 -1 19 -3 4 -6 -2 -5 -13z"/>
<path d="M608 1003 c7 -3 16 -2 19 1 4 3 -2 6 -13 5 -11 0 -14 -3 -6 -6z"/>
<path d="M648 993 c7 -3 16 -2 19 1 4 3 -2 6 -13 5 -11 0 -14 -3 -6 -6z"/>
<path d="M580 976 c0 -2 8 -10 18 -17 15 -13 16 -12 3 4 -13 16 -21 21 -21 13z"/>
<path d="M660 916 c0 -2 8 -10 18 -17 15 -13 16 -12 3 4 -13 16 -21 21 -21 13z"/>
<path d="M756 790 c4 -19 13 -50 20 -70 l14 -35 -6 35 c-4 19 -13 50 -20 70
l-14 35 6 -35z"/>
<path d="M1115 1201 c8 -17 12 -38 9 -48 -5 -17 -5 -17 6 -1 8 13 7 25 -5 48
-8 16 -18 30 -21 30 -2 0 2 -13 11 -29z"/>
<path d="M4685 3276 c-155 -40 -259 -156 -310 -341 -26 -97 -35 -454 -30
-1240 2 -480 7 -750 15 -810 18 -130 59 -232 133 -328 102 -132 386 -169 531
-69 107 74 163 160 203 309 25 96 26 106 33 578 8 463 5 1184 -5 1370 -5 88
-41 253 -64 291 -10 16 -10 15 -5 -11 3 -16 12 -46 19 -65 29 -77 35 -198 38
-758 3 -316 2 -569 -2 -564 -3 6 -5 -112 -4 -261 l3 -272 -81 -85 -81 -85 6
125 c4 69 7 176 8 238 2 105 4 115 24 131 18 14 20 21 11 31 -10 10 -7 11 13
5 23 -7 24 -6 8 10 -18 19 -36 13 -46 -15 -4 -11 -7 146 -8 348 -1 358 -12
912 -20 982 -11 106 -48 191 -107 249 -62 59 -190 72 -273 28 -80 -42 -161
-161 -165 -240 -1 -21 -1 -20 -8 3 -4 14 -4 30 1 37 6 7 6 19 -1 30 -6 11 -11
13 -11 5 0 -26 -19 0 -36 50 -33 100 -14 155 83 233 123 100 317 116 452 38
57 -33 128 -99 148 -136 8 -16 17 -27 19 -24 10 10 -45 85 -93 126 -83 72
-140 94 -251 97 -57 2 -118 -2 -147 -10z m15 -230 c0 -2 -8 -10 -17 -17 -16
-13 -17 -12 -4 4 13 16 21 21 21 13z m-242 -86 c5 -22 6 -37 1 -34 -5 3 -9 -4
-9 -16 0 -12 -5 -18 -10 -15 -6 4 -7 11 -4 17 4 7 2 8 -4 4 -14 -8 -15 7 -6
53 9 42 20 39 32 -9z m158 -17 c-8 -21 -18 -37 -23 -36 -5 1 -9 -7 -9 -18 0
-16 3 -15 23 9 17 20 21 22 16 7 -11 -34 -44 -76 -55 -69 -7 4 -7 9 0 13 5 3
9 17 8 31 -2 26 32 100 45 100 5 0 2 -17 -5 -37z m-196 -38 c9 -12 6 -41 -7
-73 -7 -17 -9 -5 -9 50 0 40 2 64 4 53 2 -11 8 -24 12 -30z m66 -51 c-3 -7 2
-15 10 -18 24 -9 16 -52 -13 -72 -16 -10 -30 -17 -33 -17 -12 3 -60 -33 -60
-44 0 -7 -5 -13 -11 -13 -9 0 -10 21 -5 73 8 92 10 105 20 114 5 4 6 -5 3 -22
-18 -92 -19 -124 -4 -121 8 1 22 8 31 15 8 7 20 10 26 6 11 -7 13 0 15 65 1
25 3 56 4 70 l2 25 10 -24 c5 -14 8 -30 5 -37z m144 17 c-13 -25 -13 -32 2
-28 27 5 15 -30 -18 -51 -26 -16 -35 -18 -31 -8 4 10 1 13 -9 9 -9 -3 -13 -12
-9 -21 3 -8 0 -21 -6 -28 -9 -11 -8 -14 1 -14 10 0 10 -3 1 -14 -9 -10 -9 -16
-1 -21 6 -4 9 -13 6 -21 -3 -8 0 -13 7 -11 7 1 12 -5 12 -13 0 -9 -8 -14 -20
-13 -19 1 -18 0 3 -17 14 -11 20 -24 16 -31 -4 -7 -3 -9 3 -6 6 4 28 -9 49
-28 37 -33 38 -35 20 -49 -17 -14 -17 -16 -3 -30 19 -20 24 -20 24 -1 0 8 -4
12 -9 9 -4 -3 -8 -1 -8 5 0 5 5 13 10 16 16 10 24 -24 11 -52 -9 -19 -15 -22
-24 -14 -10 8 -17 2 -31 -22 l-17 -32 21 24 c11 13 23 21 27 18 7 -8 -16 -67
-27 -67 -16 0 -42 39 -34 52 6 9 3 9 -10 -1 -15 -13 -16 -15 -1 -23 8 -5 12
-14 9 -20 -4 -6 -3 -8 3 -5 6 4 16 0 22 -7 8 -10 9 -16 1 -21 -15 -10 -12 -19
13 -34 20 -12 21 -12 6 3 -14 15 -13 22 15 78 l31 62 3 -558 c1 -404 -1 -563
-9 -572 -8 -10 -8 -14 0 -14 6 0 11 -17 11 -40 0 -22 -5 -40 -11 -40 -6 0 -8
-9 -4 -20 7 -22 -27 -74 -40 -62 -5 4 -5 2 -2 -4 3 -6 -14 -39 -39 -74 -62
-84 -41 -69 26 20 30 38 57 70 61 70 3 0 8 -46 11 -103 6 -129 30 -190 82
-212 58 -24 84 -17 108 32 24 47 43 57 36 18 -3 -13 -1 -22 3 -19 9 5 12 -8 7
-23 -5 -13 -28 -12 -29 0 0 7 -5 -4 -11 -23 -5 -19 -17 -43 -25 -52 -29 -32
-2 -19 30 15 18 18 29 28 25 23 -13 -17 -9 -28 7 -22 10 3 18 -1 21 -12 3 -9
9 -24 14 -33 10 -19 -16 -47 -69 -74 -43 -22 -158 -15 -199 11 -82 50 -130
146 -146 283 -6 60 -10 404 -10 906 0 989 -2 960 39 945 15 -6 27 -6 30 1 4 5
10 7 15 4 4 -3 10 2 14 10 6 16 -14 16 -26 0 -4 -5 -10 -6 -14 -3 -3 4 4 21
16 37 24 35 36 41 20 12z m213 -12 c56 -43 57 -70 58 -1040 0 -832 -2 -879
-39 -941 -32 -55 -96 -45 -128 19 -21 42 -20 -28 -25 1208 -4 660 -1 694 51
747 34 33 49 35 83 7z m-191 -105 c-4 -32 -30 -67 -43 -58 -5 3 2 20 16 38 14
18 25 37 25 41 0 5 -6 0 -14 -11 -8 -10 -18 -16 -22 -12 -9 10 16 40 30 35 6
-2 10 -17 8 -33z m-237 6 c-3 -5 -12 -10 -18 -10 -7 0 -6 4 3 10 19 12 23 12
15 0z m99 -37 c-5 -27 -8 -83 -7 -126 1 -66 -1 -76 -13 -66 -15 12 -19 49 -6
49 5 0 7 14 4 30 -3 22 -8 28 -16 21 -18 -15 -33 0 -41 41 -6 31 -4 38 14 48
24 12 45 5 35 -12 -5 -7 -2 -8 5 -3 9 5 9 11 3 17 -7 7 -7 17 1 29 21 33 30
21 21 -28z m172 21 c1 -9 0 -13 -4 -10 -3 4 -7 14 -8 22 -1 9 0 13 4 10 3 -4
7 -14 8 -22z m-83 -26 c-15 -16 -15 -21 -3 -28 9 -6 20 -4 31 6 20 18 33 18
26 -1 -4 -8 -2 -17 4 -21 5 -3 7 -14 4 -25 -4 -11 -2 -19 5 -19 6 0 9 4 6 8
-2 4 -1 14 5 22 6 10 9 -12 9 -65 l0 -80 -24 50 c-12 28 -30 56 -39 64 -10 7
-17 19 -17 25 0 6 -9 18 -20 26 -25 18 -25 28 -2 54 16 20 16 20 0 7 -11 -8
-18 -9 -18 -3 0 15 23 21 38 9 10 -8 9 -14 -5 -29z m87 -19 c0 -11 -4 -18 -10
-14 -5 3 -7 12 -3 20 7 21 13 19 13 -6z m-44 -127 c-8 -8 -65 51 -59 61 4 6
18 -4 34 -23 16 -19 27 -36 25 -38z m-136 -179 c0 -60 -4 -93 -9 -84 -5 7 -7
43 -6 80 2 36 4 74 4 84 1 9 3 17 6 17 3 0 5 -44 5 -97z m-55 -53 c3 -5 1 -10
-4 -10 -6 0 -11 5 -11 10 0 6 2 10 4 10 3 0 8 -4 11 -10z m27 -25 c4 -20 2
-23 -8 -14 -7 6 -10 17 -7 25 7 20 10 18 15 -11z m15 -77 c-3 -7 -5 -2 -5 12
0 14 2 19 5 13 2 -7 2 -19 0 -25z m430 -35 c-3 -10 -5 -4 -5 12 0 17 2 24 5
18 2 -7 2 -21 0 -30z m-428 -47 c-9 -8 -10 -5 -5 14 3 14 6 32 7 40 1 8 4 2 6
-14 3 -16 -1 -34 -8 -40z m-12 -58 c-3 -11 0 -21 9 -25 8 -3 14 -15 13 -27 0
-20 -1 -20 -12 -2 -7 10 -22 28 -34 39 -21 19 -21 21 -5 33 21 16 35 7 29 -18z
m-78 15 c-4 -23 3 -32 19 -26 18 7 17 5 -12 -17 -11 -8 -17 -10 -13 -3 4 6 2
13 -5 15 -6 2 -9 12 -5 21 6 17 18 24 16 10z m531 -186 c0 -10 -4 -15 -10 -12
-5 3 -10 18 -10 33 0 21 2 24 10 12 5 -8 10 -23 10 -33z m-510 -25 c0 -8 10
-24 22 -37 12 -12 23 -30 24 -39 4 -29 -25 -17 -54 23 -22 30 -28 47 -24 72 4
30 6 31 18 14 8 -10 14 -25 14 -33z m640 -142 c0 -16 -2 -30 -4 -30 -2 0 -6
14 -8 30 -3 17 -1 30 4 30 4 0 8 -13 8 -30z m-133 -17 c-3 -10 -5 -4 -5 12 0
17 2 24 5 18 2 -7 2 -21 0 -30z m0 -65 c-3 -8 -6 -5 -6 6 -1 11 2 17 5 13 3
-3 4 -12 1 -19z m-420 -10 c-3 -8 -6 -5 -6 6 -1 11 2 17 5 13 3 -3 4 -12 1
-19z m550 -105 c-2 -21 -4 -4 -4 37 0 41 2 58 4 38 2 -21 2 -55 0 -75z m-550
45 c-3 -8 -6 -5 -6 6 -1 11 2 17 5 13 3 -3 4 -12 1 -19z m410 -95 c-3 -10 -5
-4 -5 12 0 17 2 24 5 18 2 -7 2 -21 0 -30z m8 -133 c3 -5 1 -10 -4 -10 -6 0
-11 5 -11 10 0 6 2 10 4 10 3 0 8 -4 11 -10z m5 -70 c8 -15 8 -18 -3 -14 -8 3
-14 11 -14 19 0 20 4 19 17 -5z m-6 -95 c3 -8 1 -15 -4 -15 -6 0 -10 7 -10 15
0 8 2 15 4 15 2 0 6 -7 10 -15z m307 -203 c-3 -85 -23 -188 -52 -272 -24 -71
-63 -140 -79 -140 -11 0 -4 15 26 57 15 20 14 21 -5 16 -11 -3 -19 -9 -16 -13
3 -4 -6 -10 -20 -12 -30 -6 -42 18 -20 42 8 9 12 20 8 25 -5 4 2 3 14 -4 12
-6 23 -16 26 -23 3 -8 9 -3 15 12 9 22 11 22 12 5 1 -18 1 -19 11 -2 5 9 21
58 33 107 19 73 21 90 10 90 -8 0 -14 4 -14 9 0 4 -18 11 -41 14 -22 3 -43 8
-46 11 -9 8 18 37 28 30 5 -3 9 -1 9 4 0 14 92 123 98 117 3 -3 4 -35 3 -73z
m-78 -109 c10 -6 8 -23 -7 -58 l-13 -30 -27 53 -27 54 33 -7 c18 -4 36 -9 41
-12z m-48 -66 c9 -21 12 -49 8 -72 -5 -34 -8 -36 -34 -33 -15 3 -26 1 -23 -4
3 -4 -2 -8 -11 -8 -9 0 -14 4 -11 9 4 5 1 11 -6 13 -9 3 -5 26 12 85 27 88 32
89 65 10z m80 26 c-4 -16 -9 -39 -12 -53 -2 -14 -9 -29 -15 -35 -8 -7 -9 -5
-5 7 3 10 2 20 -3 23 -9 6 4 47 23 73 15 20 20 14 12 -15z m-213 -37 c6 4 5
-2 -1 -15 -16 -28 -21 -26 -20 7 0 15 3 21 6 14 2 -6 9 -9 15 -6z m18 -67 c-7
-11 -14 -18 -17 -15 -3 3 0 12 7 21 18 21 23 19 10 -6z m20 -48 c-10 -20 -30
-37 -30 -26 0 11 25 45 33 45 4 0 3 -9 -3 -19z m37 -81 c-2 -24 -17 -15 -17
11 0 11 4 18 9 14 6 -3 9 -14 8 -25z m-60 -22 c-3 -8 -6 -5 -6 6 -1 11 2 17 5
13 3 -3 4 -12 1 -19z m-1 -113 c-11 -8 -25 -15 -30 -15 -6 1 0 7 14 15 32 19
40 18 16 0z"/>
<path d="M4595 2549 c-4 -6 -5 -12 -2 -15 2 -3 7 2 10 11 7 17 1 20 -8 4z"/>
<path d="M4616 2497 c-4 -18 -4 -18 15 -1 23 21 23 21 5 21 -8 0 -17 -9 -20
-20z"/>
<path d="M4614 2448 l-19 -23 23 19 c12 11 22 21 22 23 0 8 -8 2 -26 -19z"/>
<path d="M4650 2336 c0 -2 8 -10 18 -17 15 -13 16 -12 3 4 -13 16 -21 21 -21
13z"/>
<path d="M4565 2120 c-8 -26 11 -60 36 -60 19 0 20 14 3 68 -6 19 -32 14 -39
-8z m29 -12 c1 -7 5 -19 9 -25 5 -8 3 -13 -7 -13 -17 0 -31 34 -21 51 8 12 16
7 19 -13z"/>
<path d="M4596 1677 c3 -10 9 -15 12 -12 3 3 0 11 -7 18 -10 9 -11 8 -5 -6z"/>
<path d="M4612 1580 c0 -14 2 -19 5 -12 2 6 2 18 0 25 -3 6 -5 1 -5 -13z"/>
<path d="M4594 1368 l-19 -23 23 19 c12 11 22 21 22 23 0 8 -8 2 -26 -19z"/>
<path d="M4584 1318 l-19 -23 23 19 c12 11 22 21 22 23 0 8 -8 2 -26 -19z"/>
<path d="M4609 1293 c-13 -16 -12 -17 4 -4 16 13 21 21 13 21 -2 0 -10 -8 -17
-17z"/>
<path d="M4629 1263 l-24 -26 27 19 c15 10 28 22 28 27 0 12 -5 8 -31 -20z"/>
<path d="M4654 1247 c-11 -12 -28 -33 -39 -47 -18 -21 -15 -21 17 5 34 28 53
53 45 61 -2 2 -12 -6 -23 -19z"/>
<path d="M4639 1173 c-13 -16 -12 -17 4 -4 16 13 21 21 13 21 -2 0 -10 -8 -17
-17z"/>
<path d="M4651 1084 c0 -11 3 -14 6 -6 3 7 2 16 -1 19 -3 4 -6 -2 -5 -13z"/>
<path d="M4658 953 c7 -3 16 -2 19 1 4 3 -2 6 -13 5 -11 0 -14 -3 -6 -6z"/>
<path d="M5160 960 c0 -19 3 -21 12 -12 9 9 9 15 0 24 -9 9 -12 7 -12 -12z"/>
<path d="M5217 953 c-4 -3 -7 -11 -7 -17 0 -6 5 -5 12 2 6 6 9 14 7 17 -3 3
-9 2 -12 -2z"/>
<path d="M5069 801 c-8 -41 -6 -50 12 -40 10 5 23 17 28 27 7 14 4 17 -15 18
-13 1 -25 -1 -25 -5z"/>
<path d="M1668 3263 c-62 -3 -78 -7 -82 -21 -6 -22 -72 -572 -86 -717 -5 -60
-17 -164 -25 -230 -22 -178 -75 -626 -86 -735 -5 -52 -12 -106 -15 -120 -3
-14 -19 -135 -34 -270 -16 -135 -41 -345 -56 -467 -19 -147 -25 -226 -19 -232
11 -11 331 -18 341 -8 5 5 45 302 64 473 13 123 14 124 137 124 l102 0 5 -52
c3 -29 10 -105 16 -168 14 -162 41 -355 51 -371 6 -11 45 -14 173 -14 90 0
168 3 172 7 8 9 -6 157 -36 393 -11 83 -25 193 -30 245 -6 52 -19 160 -30 240
-11 80 -24 197 -30 260 -6 63 -24 223 -40 355 -16 132 -34 281 -40 330 -5 50
-14 128 -20 175 -6 47 -17 148 -25 225 -9 77 -20 163 -25 190 -5 28 -11 77
-15 110 -6 72 -25 221 -31 253 -4 20 -10 22 -67 23 -34 0 -91 2 -127 3 -36 1
-100 1 -142 -1z m297 -40 c-8 -16 -43 -73 -78 -127 -82 -129 -103 -138 -145
-63 -16 29 -52 89 -80 135 l-52 82 185 0 186 0 -16 -27z m50 -188 c9 -71 27
-218 40 -325 25 -204 50 -422 85 -750 12 -107 39 -334 60 -505 21 -170 41
-337 44 -370 3 -33 10 -91 16 -130 17 -112 50 -438 45 -443 -3 -3 -5 5 -5 17
0 12 -4 20 -9 17 -10 -6 -129 127 -142 159 -8 20 -60 361 -78 520 -6 44 -16
123 -25 175 -20 126 -50 358 -81 611 -14 113 -30 230 -35 260 -6 30 -15 88
-20 129 -14 115 -27 210 -55 394 -14 93 -25 172 -25 175 0 6 65 116 125 214
l30 47 7 -32 c4 -18 14 -91 23 -163z m-243 -314 c-5 -3 -12 -33 -16 -66 -3
-33 -8 -80 -11 -105 -4 -37 -3 -41 5 -21 15 35 17 25 10 -59 -5 -64 -7 -70
-13 -43 -5 18 -12 35 -17 38 -5 3 -4 -11 2 -32 12 -43 16 -213 6 -206 -5 2 -8
-19 -8 -47 0 -28 4 -49 9 -46 4 3 6 -6 3 -19 -2 -14 -8 -22 -13 -19 -13 8 -11
-50 2 -63 9 -9 6 -18 -9 -37 -16 -21 -19 -36 -15 -84 2 -31 6 -63 8 -70 3 -7
0 -10 -5 -7 -6 3 -10 -3 -10 -14 0 -12 6 -21 13 -21 9 0 9 -2 -1 -8 -7 -5 -16
-23 -22 -40 -6 -22 -5 -30 2 -26 6 4 8 -1 3 -16 -5 -15 -4 -20 4 -16 13 9 13
-5 2 -137 -10 -105 -30 -155 -43 -101 -6 27 -6 26 -5 -8 1 -30 -8 -46 -47 -92
-26 -31 -49 -56 -51 -56 -3 0 -2 26 0 58 3 31 5 74 4 95 0 20 4 37 10 37 5 0
7 9 4 19 -3 10 7 90 21 177 26 160 66 468 87 664 6 57 12 107 14 111 3 3 7 35
10 70 3 35 10 87 15 114 4 28 19 111 32 185 l23 135 3 -119 c1 -66 -1 -122 -6
-125z m-51 42 c-4 -28 -6 -32 -9 -15 -3 22 3 52 11 52 1 0 1 -17 -2 -37z
m-164 -15 c-3 -8 -6 -5 -6 6 -1 11 2 17 5 13 3 -3 4 -12 1 -19z m-10 -50 c-3
-8 -6 -5 -6 6 -1 11 2 17 5 13 3 -3 4 -12 1 -19z m160 -25 c-3 -10 -5 -2 -5
17 0 19 2 27 5 18 2 -10 2 -26 0 -35z m-173 -240 c-4 -16 -11 -32 -16 -38 -9
-9 -1 39 9 58 9 16 13 5 7 -20z m46 -25 c-1 -30 -3 -38 -9 -28 -8 14 -4 70 5
70 2 0 4 -19 4 -42z m81 -69 c-8 -40 -9 -41 -10 -11 -1 19 -5 31 -11 27 -6 -3
-7 1 -3 10 5 13 7 14 14 3 7 -10 9 -8 9 6 0 11 2 17 5 15 2 -3 1 -25 -4 -50z
m-61 11 c0 -5 -2 -10 -4 -10 -3 0 -8 5 -11 10 -3 6 -1 10 4 10 6 0 11 -4 11
-10z m-88 -52 c-6 -6 -7 0 -4 19 5 21 7 23 10 9 2 -10 0 -22 -6 -28z m94 -13
c1 -15 -3 -25 -12 -25 -17 0 -17 5 -4 31 14 24 15 24 16 -6z m-95 -37 c-3 -21
-6 -26 -9 -15 -3 17 3 47 11 47 2 0 1 -15 -2 -32z m134 -42 c-4 -25 -11 -46
-17 -46 -10 0 -4 72 7 90 13 21 17 2 10 -44z m169 -48 c3 -51 19 -226 35 -388
15 -162 26 -298 24 -302 -2 -5 -40 -8 -84 -8 l-80 0 6 73 c4 39 13 124 21 187
7 63 21 194 29 290 18 207 24 252 34 245 5 -2 11 -46 15 -97z m-282 -43 c-9
-24 -18 -43 -20 -41 -7 7 19 86 28 86 5 0 2 -20 -8 -45z m93 16 c3 -5 2 -12
-3 -15 -5 -3 -9 1 -9 9 0 17 3 19 12 6z m-10 -61 c-3 -5 -11 -10 -16 -10 -6 0
-7 5 -4 10 3 6 11 10 16 10 6 0 7 -4 4 -10z m122 -12 c-3 -8 -6 -5 -6 6 -1 11
2 17 5 13 3 -3 4 -12 1 -19z m-270 -70 c-3 -7 -5 -2 -5 12 0 14 2 19 5 13 2
-7 2 -19 0 -25z m106 2 c3 -11 0 -23 -5 -27 -7 -3 -8 -1 -4 5 4 7 3 12 -1 12
-5 0 -9 9 -10 20 -2 25 13 18 20 -10z m160 -15 c-3 -9 -8 -14 -10 -11 -3 3 -2
9 2 15 9 16 15 13 8 -4z m-126 -42 c-3 -10 -5 -2 -5 17 0 19 2 27 5 18 2 -10
2 -26 0 -35z m-150 -30 c-3 -10 -5 -2 -5 17 0 19 2 27 5 18 2 -10 2 -26 0 -35z
m108 37 c3 -5 1 -10 -4 -10 -6 0 -11 5 -11 10 0 6 2 10 4 10 3 0 8 -4 11 -10z
m-85 -155 c-18 -46 -20 -24 -7 70 l12 90 3 -66 c2 -36 -2 -78 -8 -94z m83 115
c4 -16 -14 -50 -27 -50 -1 0 0 35 3 63 2 15 19 6 24 -13z m34 -55 c-4 -36 -11
-73 -17 -83 -10 -16 -8 9 5 83 2 11 4 30 4 43 1 12 4 22 7 22 4 0 4 -29 1 -65z
m-150 -27 c-3 -7 -5 -2 -5 12 0 14 2 19 5 13 2 -7 2 -19 0 -25z m91 -83 c-1
-14 -6 -25 -11 -25 -5 0 -6 7 -3 16 3 9 6 20 6 25 0 5 2 9 5 9 3 0 4 -11 3
-25z m182 15 c0 -5 -2 -10 -4 -10 -3 0 -8 5 -11 10 -3 6 -1 10 4 10 6 0 11 -4
11 -10z m-148 -72 c-5 -18 -10 -59 -11 -91 -2 -54 -18 -122 -21 -87 0 8 -3 37
-4 65 -3 29 2 61 9 75 7 14 16 42 18 60 7 45 8 49 14 28 2 -9 0 -32 -5 -50z
m-105 -50 c2 -18 0 -20 -7 -8 -12 18 -13 30 -2 30 4 0 9 -10 9 -22z m53 -148
c0 -5 -4 -10 -10 -10 -5 0 -10 5 -10 10 0 6 5 10 10 10 6 0 10 -4 10 -10z m23
-15 c-3 -9 -8 -14 -10 -11 -3 3 -2 9 2 15 9 16 15 13 8 -4z m-92 -24 c0 -3 2
-14 4 -23 4 -24 0 -23 -18 5 -13 20 -13 24 -1 24 8 0 14 -3 15 -6z m87 -19
c-2 -8 -10 -17 -18 -19 -13 -4 -13 -3 0 7 11 9 12 13 3 17 -19 7 -16 23 2 16
9 -3 15 -12 13 -21z m-44 -19 c-8 -53 -12 -63 -25 -63 -7 0 -8 7 -4 18 4 9 8
28 10 42 3 37 4 40 14 40 6 0 7 -17 5 -37z m360 23 c-14 -11 -13 -13 11 -24
14 -7 24 -8 20 -2 -3 6 1 7 9 4 9 -3 14 -10 11 -14 -3 -4 9 -13 25 -20 34 -14
55 -38 24 -27 -18 7 -18 6 1 -8 11 -8 33 -27 49 -41 l28 -26 -225 4 c-124 1
-229 6 -233 10 -4 4 11 27 32 50 22 24 51 58 64 76 l24 33 88 -2 c71 -1 85 -4
72 -13z m-324 -56 c0 -11 -4 -20 -8 -20 -4 0 -8 9 -8 20 0 11 4 20 8 20 4 0 8
-9 8 -20z m-143 -22 c-3 -8 -6 -5 -6 6 -1 11 2 17 5 13 3 -3 4 -12 1 -19z m87
-47 c3 -5 -2 -15 -12 -22 -15 -12 -16 -12 -5 2 7 9 10 19 6 22 -3 4 -4 7 0 7
3 0 8 -4 11 -9z m33 -108 c-3 -10 -5 -4 -5 12 0 17 2 24 5 18 2 -7 2 -21 0
-30z m48 -43 c-3 -5 -1 -11 5 -15 6 -4 8 -11 4 -16 -3 -5 0 -17 8 -26 11 -15
11 -16 -4 -10 -22 8 -23 -6 -3 -23 18 -15 20 -34 3 -24 -8 5 -9 2 -5 -9 3 -10
2 -17 -4 -17 -6 0 -6 -7 1 -19 13 -25 13 -34 -1 -25 -16 10 6 -29 25 -46 9 -7
16 -17 16 -23 0 -6 -11 0 -25 13 -14 13 -25 19 -25 13 0 -6 7 -16 15 -23 8 -7
15 -20 15 -29 0 -14 -2 -14 -11 -1 -8 12 -9 11 -5 -6 4 -13 -3 -32 -19 -54
-26 -35 -28 -40 -20 -40 2 0 15 16 29 36 l24 35 26 -34 c14 -19 26 -42 25 -53
0 -14 -2 -15 -6 -4 -4 8 -13 21 -21 30 -14 13 -15 12 -8 -10 11 -36 18 -187
10 -238 l-5 -43 -50 72 c-66 96 -77 118 -74 154 3 38 21 190 42 364 15 125 17
132 30 107 8 -15 11 -31 8 -36z m82 -322 c-3 -7 -5 -2 -5 12 0 14 2 19 5 13 2
-7 2 -19 0 -25z m470 -10 c-3 -7 -5 -2 -5 12 0 14 2 19 5 13 2 -7 2 -19 0 -25z
m-476 -8 c5 0 9 -5 9 -11 0 -8 -5 -8 -15 1 -8 7 -14 20 -14 29 1 13 2 13 6 -1
2 -10 9 -18 14 -18z m486 -42 c-3 -8 -6 -5 -6 6 -1 11 2 17 5 13 3 -3 4 -12 1
-19z m-37 -116 c0 -36 -17 -17 -18 20 -1 23 2 28 8 18 6 -8 10 -25 10 -38z"/>
<path d="M1972 3110 c0 -14 2 -19 5 -12 2 6 2 18 0 25 -3 6 -5 1 -5 -13z"/>
<path d="M1951 2994 c0 -11 3 -14 6 -6 3 7 2 16 -1 19 -3 4 -6 -2 -5 -13z"/>
<path d="M1942 2920 c0 -14 2 -19 5 -12 2 6 2 18 0 25 -3 6 -5 1 -5 -13z"/>
<path d="M1930 2669 c-7 -11 -10 -23 -7 -25 2 -2 9 7 15 21 14 30 7 33 -8 4z"/>
<path d="M1958 2653 c-19 -5 -33 -43 -25 -65 3 -7 6 -3 6 8 1 12 8 27 17 34
22 19 57 -18 58 -63 1 -43 26 -46 26 -3 0 36 -34 97 -52 95 -7 -1 -21 -3 -30
-6z"/>
<path d="M2005 2169 c12 -39 27 -48 23 -15 -2 16 -9 31 -17 34 -10 3 -11 -2
-6 -19z"/>
<path d="M2087 2060 c3 -11 7 -20 9 -20 2 0 4 9 4 20 0 11 -4 20 -9 20 -5 0
-7 -9 -4 -20z"/>
<path d="M2064 1882 c-6 -4 -13 -15 -17 -25 -5 -14 -2 -16 16 -12 18 5 25 -1
40 -35 9 -22 17 -48 17 -58 1 -13 4 -11 15 8 22 39 18 69 -14 101 -31 30 -39
33 -57 21z"/>
<path d="M2115 1704 c-13 -10 -15 -14 -4 -14 20 0 43 16 32 23 -4 3 -17 -1
-28 -9z"/>
<path d="M2166 1465 c-9 -14 -13 -25 -8 -25 5 0 14 11 20 25 6 14 10 25 8 25
-2 0 -11 -11 -20 -25z"/>
<path d="M2130 1410 c-6 -11 -8 -20 -6 -20 3 0 10 9 16 20 6 11 8 20 6 20 -3
0 -10 -9 -16 -20z"/>
<path d="M2141 1181 c35 -37 71 -71 79 -75 8 -4 -19 27 -60 68 -41 42 -77 76
-79 76 -2 0 24 -31 60 -69z"/>
<path d="M2231 1014 c0 -11 3 -14 6 -6 3 7 2 16 -1 19 -3 4 -6 -2 -5 -13z"/>
<path d="M2210 957 c0 -31 4 -57 8 -57 10 0 9 97 -1 106 -4 4 -7 -18 -7 -49z"/>
<path d="M2201 870 c0 -15 -5 -30 -10 -35 -4 -6 -11 -23 -14 -40 -6 -29 -6
-29 4 -5 6 14 16 35 21 46 6 12 8 30 5 40 -3 14 -5 13 -6 -6z"/>
<path d="M2231 849 c6 -24 13 -46 15 -49 9 -8 -8 74 -16 84 -5 4 -4 -11 1 -35z"/>
<path d="M2245 760 c2 -19 6 -44 7 -55 2 -11 6 -22 9 -25 3 -3 11 -25 17 -50
l11 -45 -5 48 c-3 27 -14 74 -25 105 -14 41 -18 47 -14 22z"/>
<path d="M2191 754 c0 -11 3 -14 6 -6 3 7 2 16 -1 19 -3 4 -6 -2 -5 -13z"/>
<path d="M1808 1423 c7 -3 16 -2 19 1 4 3 -2 6 -13 5 -11 0 -14 -3 -6 -6z"/>
<path d="M1837 1389 c7 -7 15 -10 18 -7 3 3 -2 9 -12 12 -14 6 -15 5 -6 -5z"/>
<path d="M1890 1366 c0 -2 7 -7 16 -10 8 -3 12 -2 9 4 -6 10 -25 14 -25 6z"/>
<path d="M2360 3155 c0 -60 0 -425 -1 -810 0 -385 0 -967 0 -1293 l1 -592 178
2 177 3 3 562 c2 475 4 563 16 563 9 0 17 -16 21 -42 13 -89 58 -330 96 -508
21 -102 55 -269 75 -372 21 -103 40 -192 44 -197 6 -10 336 -19 345 -9 6 6
-26 197 -60 363 -28 133 -99 492 -141 711 l-27 142 40 48 c53 63 79 117 104
212 18 66 21 118 26 372 3 202 1 303 -6 320 -8 19 -10 3 -6 -72 3 -65 1 -98
-6 -98 -5 0 -8 -4 -5 -8 4 -8 -24 -87 -64 -177 -13 -29 -22 -65 -17 -65 3 0
22 43 42 95 21 53 39 94 40 93 10 -12 13 -196 5 -290 -9 -103 -28 -196 -29
-145 -1 9 -18 34 -38 54 -21 20 -37 40 -36 45 2 4 -1 8 -6 8 -15 0 -18 33 -6
60 28 57 24 71 -4 21 -17 -30 -33 -57 -36 -60 -3 -2 -3 96 1 220 5 201 2 289
-21 529 -2 19 -8 47 -14 63 -6 16 -7 27 -1 27 5 0 7 7 4 15 -4 8 -9 13 -13 10
-6 -3 -80 45 -128 85 -17 14 -125 29 -236 32 -105 3 -104 3 -41 46 16 10 15
11 -6 1 -14 -7 -37 -20 -51 -30 l-26 -18 -89 90 -89 89 180 -1 c146 -1 316
-12 269 -18 -5 0 -19 -8 -30 -16 -11 -10 -2 -8 23 5 41 20 89 27 80 13 -3 -5
7 -8 22 -9 30 -1 123 -44 157 -72 11 -9 34 -35 50 -57 57 -76 130 -272 93
-250 -12 8 -12 6 0 -8 7 -9 17 -32 21 -50 l8 -32 1 35 c2 96 -98 354 -130 334
-5 -3 -6 1 -4 9 7 16 -64 69 -131 97 -57 25 -293 43 -496 38 l-128 -3 0 -110z
m203 -145 c3 -11 1 -18 -4 -14 -5 3 -9 12 -9 20 0 20 7 17 13 -6z m10 -64 c-3
-4 7 -19 22 -32 16 -13 24 -24 19 -24 -6 0 -15 5 -22 12 -15 15 -17 -5 -2 -32
10 -18 29 -100 35 -145 1 -11 7 -31 13 -45 5 -14 6 -26 1 -28 -5 -2 -2 -13 6
-25 18 -25 20 -61 4 -51 -6 3 -3 -5 6 -20 23 -35 27 -33 19 12 -6 34 -6 36 9
23 14 -11 17 -31 15 -110 l-1 -96 -73 -75 -74 -75 -1 260 c-3 478 -3 489 15
473 8 -7 12 -17 9 -22z m118 -73 c13 -16 12 -17 -3 -4 -17 13 -22 21 -14 21 2
0 10 -8 17 -17z m-27 -77 c10 -16 14 -26 8 -22 -10 6 -26 -23 -17 -32 3 -3 5
1 5 8 0 9 6 8 20 -5 20 -18 27 -36 13 -34 -21 3 -34 -2 -28 -11 4 -6 11 -8 16
-5 5 3 6 0 3 -8 -3 -8 -1 -18 5 -22 6 -3 11 -14 11 -23 0 -13 -5 -12 -21 8
-18 22 -19 22 -10 3 6 -12 16 -25 21 -28 6 -3 10 -14 10 -23 0 -33 -39 21 -45
63 -3 22 -8 49 -10 60 -2 11 -6 28 -8 37 -2 10 -6 21 -10 24 -18 18 -4 25 15
8 17 -14 16 -11 -5 14 -15 19 -27 39 -27 45 0 13 28 -16 54 -57z m163 44 c37
-22 49 -41 63 -104 14 -62 14 -587 0 -652 -15 -71 -51 -104 -116 -107 l-49 -2
-3 443 -2 442 37 0 c21 0 52 -9 70 -20z m-440 -292 c-3 -7 -5 -2 -5 12 0 14 2
19 5 13 2 -7 2 -19 0 -25z m0 -120 c-3 -8 -6 -5 -6 6 -1 11 2 17 5 13 3 -3 4
-12 1 -19z m67 -13 c3 -8 1 -15 -4 -15 -6 0 -10 7 -10 15 0 8 2 15 4 15 2 0 6
-7 10 -15z m613 -32 c-3 -10 -5 -2 -5 17 0 19 2 27 5 18 2 -10 2 -26 0 -35z
m-358 -211 l3 -207 -76 -75 c-84 -82 -97 -94 -77 -67 9 11 10 17 2 17 -8 0
-11 57 -11 192 l0 193 77 77 c43 43 78 78 78 78 0 0 2 -93 4 -208z m251 98 c0
-5 -5 -10 -11 -10 -5 0 -7 5 -4 10 3 6 8 10 11 10 2 0 4 -4 4 -10z m103 -5
c-3 -9 -8 -14 -10 -11 -3 3 -2 9 2 15 9 16 15 13 8 -4z m-46 -30 c0 -8 -4 -12
-9 -9 -4 3 -8 9 -8 15 0 5 4 9 8 9 5 0 9 -7 9 -15z m43 -36 c0 -18 -4 -28 -10
-24 -6 4 -7 12 -4 18 4 7 1 7 -7 -1 -12 -11 -11 -15 4 -27 11 -8 17 -23 15
-35 -3 -21 -4 -21 -30 9 l-27 30 25 31 c14 16 28 30 30 30 2 0 4 -14 4 -31z
m-73 6 c0 -8 -4 -15 -9 -15 -10 0 -11 14 -1 23 9 10 10 9 10 -8z m40 -87 c26
-24 30 -48 8 -48 -9 0 -12 6 -8 17 4 11 3 14 -6 9 -7 -5 -10 -15 -7 -23 3 -8
1 -13 -5 -11 -6 2 -10 6 -9 8 1 3 -3 17 -9 31 -16 43 0 51 36 17z m-47 -37 c7
-24 5 -33 -8 -40 -28 -15 -43 17 -25 52 17 33 20 32 33 -12z m-50 25 c0 -3 -4
-8 -10 -11 -5 -3 -10 -1 -10 4 0 6 5 11 10 11 6 0 10 -2 10 -4z m-460 -30 c14
-18 14 -18 -7 -6 -12 8 -19 18 -16 23 3 4 6 7 7 5 1 -2 8 -12 16 -22z m657
-26 c9 -13 17 -40 16 -59 0 -28 1 -30 4 -8 2 15 9 25 14 21 5 -3 6 -11 3 -17
-4 -7 -4 -9 1 -5 9 9 35 -9 35 -23 0 -14 -30 -10 -31 4 0 10 -2 10 -6 0 -3 -8
-24 -13 -55 -13 -50 0 -50 0 -43 28 4 15 8 38 10 52 4 46 5 48 20 46 9 -1 23
-13 32 -26z m-78 -17 c-1 -16 -4 -39 -8 -52 -6 -22 -7 -21 -19 13 -11 29 -11
40 -2 51 19 23 30 18 29 -12z m-134 7 c-3 -5 -1 -10 6 -10 8 0 9 -3 0 -14 -9
-11 -6 -12 14 -8 14 2 28 8 31 13 9 15 31 10 37 -8 2 -10 8 -26 12 -35 6 -16
0 -18 -59 -18 -40 0 -66 4 -66 11 0 5 -5 7 -11 3 -17 -10 10 -24 47 -24 49 0
94 -11 94 -23 0 -19 -120 -128 -138 -126 -9 1 -19 0 -22 -1 -3 -1 -71 -4 -151
-6 l-146 -4 75 80 c63 66 81 80 106 80 60 0 105 20 138 60 32 38 46 51 33 30z
m-438 -85 c0 -8 -4 -15 -9 -15 -4 0 -8 7 -8 15 0 8 4 15 8 15 5 0 9 -7 9 -15z
m704 -29 c-6 -8 -23 -16 -36 -19 -22 -4 -23 -2 -13 11 11 13 10 14 -9 3 -17
-9 -23 -9 -23 0 0 8 -4 8 -15 -1 -8 -7 -13 -16 -10 -20 3 -5 1 -11 -5 -15 -11
-7 -14 37 -3 48 3 4 33 7 66 7 50 0 58 -2 48 -14z m8 -60 c-9 -8 -10 -7 -5 7
3 10 7 24 7 30 1 7 3 4 6 -7 3 -10 -1 -23 -8 -30z m-649 24 c0 -5 -5 -10 -11
-10 -5 0 -7 5 -4 10 3 6 8 10 11 10 2 0 4 -4 4 -10z m510 -5 c0 -8 -7 -15 -16
-15 -8 0 -13 -4 -10 -9 3 -5 -3 -11 -14 -14 -19 -5 -19 -4 -2 18 9 13 20 21
25 18 4 -2 7 1 7 6 0 6 2 11 5 11 3 0 5 -7 5 -15z m-510 -31 c0 -8 -4 -12 -10
-9 -5 3 -10 10 -10 16 0 5 5 9 10 9 6 0 10 -7 10 -16z m623 1 c-3 -9 -8 -14
-10 -11 -3 3 -2 9 2 15 9 16 15 13 8 -4z m-726 -100 c-14 -26 -22 -4 -12 33 7
25 8 25 15 7 4 -11 3 -29 -3 -40z m92 13 c-1 -40 -1 -41 -9 -15 -8 26 -4 57 6
57 2 0 4 -19 3 -42z m611 9 c0 -2 -12 -14 -27 -28 l-28 -24 24 28 c23 25 31
32 31 24z m-141 -75 c7 -7 20 -11 27 -8 8 3 14 1 14 -5 0 -6 4 -8 9 -4 17 10
24 -15 47 -159 13 -78 39 -217 59 -311 20 -93 40 -192 45 -220 4 -27 16 -81
25 -120 9 -38 20 -95 25 -125 5 -30 16 -86 24 -125 9 -38 16 -81 16 -95 0 -24
-1 -24 -22 7 -13 18 -54 60 -91 94 -44 40 -67 68 -64 78 3 9 8 25 12 36 4 13
1 11 -9 -5 -17 -29 -19 -25 -35 60 -10 54 -14 77 -27 155 -3 22 -10 47 -14 55
-9 19 -47 181 -54 235 -3 22 -12 67 -20 100 -47 198 -84 386 -78 403 4 12 86
-22 111 -46z m-391 -213 c-5 -3 -1 -20 11 -40 11 -19 27 -61 36 -94 40 -150
41 -155 17 -155 -16 0 -22 9 -27 42 -8 46 -19 37 -28 -23 -5 -33 -3 -37 17
-41 13 -3 33 -1 44 3 l22 8 1 -217 c1 -119 3 -275 5 -347 3 -116 2 -128 -11
-111 -8 11 -15 34 -16 50 -1 28 -2 29 -8 8 -6 -22 -11 -17 -51 46 -25 39 -48
68 -51 66 -3 -2 -7 2 -9 9 -1 7 -4 248 -6 537 l-3 525 33 -130 c20 -77 30
-132 24 -136z m-78 89 c0 -78 -3 -139 -6 -136 -3 4 -6 53 -6 110 1 147 1 168
7 168 3 0 5 -64 5 -142z m-43 -60 c-3 -8 -6 -5 -6 6 -1 11 2 17 5 13 3 -3 4
-12 1 -19z m193 -158 c0 -20 -2 -22 -10 -10 -5 8 -10 26 -10 40 0 20 2 22 10
10 5 -8 10 -26 10 -40z m-163 -32 c-3 -7 -5 -2 -5 12 0 14 2 19 5 13 2 -7 2
-19 0 -25z m480 -530 c-3 -8 -6 -5 -6 6 -1 11 2 17 5 13 3 -3 4 -12 1 -19z"/>
<path d="M2681 2512 c-1 -8 -6 -10 -13 -6 -8 5 -7 1 2 -10 15 -19 26 -7 17 17
-4 9 -6 9 -6 -1z"/>
<path d="M2681 2454 c0 -11 3 -14 6 -6 3 7 2 16 -1 19 -3 4 -6 -2 -5 -13z"/>
<path d="M2656 2732 c-3 -5 1 -9 9 -9 8 0 15 4 15 9 0 4 -4 8 -9 8 -6 0 -12
-4 -15 -8z"/>
<path d="M3001 2114 c0 -11 3 -14 6 -6 3 7 2 16 -1 19 -3 4 -6 -2 -5 -13z"/>
<path d="M2959 1632 c11 -16 28 -35 38 -43 9 -8 2 5 -17 29 -38 48 -52 57 -21
14z"/>
<path d="M3030 1545 c13 -14 26 -25 28 -25 3 0 -5 11 -18 25 -13 14 -26 25
-28 25 -3 0 5 -11 18 -25z"/>
<path d="M3045 1338 l-40 -43 43 40 c23 21 42 40 42 42 0 8 -9 0 -45 -39z"/>
<path d="M3166 875 c-9 -26 -7 -32 5 -12 6 10 9 21 6 23 -2 3 -7 -2 -11 -11z"/>
<path d="M3141 809 c-6 -18 -9 -34 -7 -36 2 -2 9 10 15 28 6 18 9 34 7 36 -2
2 -9 -10 -15 -28z"/>
<path d="M2660 1241 c0 -5 5 -13 10 -16 6 -3 10 -2 10 4 0 5 -4 13 -10 16 -5
3 -10 2 -10 -4z"/>
<path d="M2606 1158 c-9 -28 -14 -112 -7 -93 8 18 9 16 13 -10 2 -16 4 3 3 42
0 72 -2 85 -9 61z"/>
<path d="M2632 860 c0 -14 2 -19 5 -12 2 6 2 18 0 25 -3 6 -5 1 -5 -13z"/>
<path d="M2652 710 c0 -14 2 -19 5 -12 2 6 2 18 0 25 -3 6 -5 1 -5 -13z"/>
<path d="M6038 3263 l-46 -4 -5 -62 c-5 -61 1 -1151 7 -1255 2 -29 0 -55 -4
-57 -8 -5 -66 247 -140 600 -27 132 -61 294 -75 360 -14 66 -30 145 -36 175
-6 30 -19 84 -29 120 -10 36 -21 77 -24 93 l-6 27 -160 0 -160 0 0 -147 c0
-82 0 -704 -1 -1383 -1 -679 -1 -1244 0 -1255 1 -19 6 -20 168 -15 l168 5 6
155 c3 85 4 366 3 624 -1 259 1 465 6 460 5 -5 18 -56 29 -114 11 -58 45 -208
76 -335 30 -126 62 -261 71 -300 9 -38 35 -151 59 -250 24 -99 46 -195 50
-213 l7 -32 166 2 167 3 1 985 c0 542 3 1109 6 1260 5 281 -1 533 -14 546 -8
8 -216 13 -290 7z m-378 -16 c0 -2 -7 -17 -15 -34 -13 -25 -22 -57 -24 -86 -1
-5 -5 -5 -11 -2 -6 4 -7 -1 -3 -11 4 -11 2 -15 -4 -11 -12 7 -36 -40 -28 -54
4 -5 2 -9 -3 -9 -6 0 -15 -14 -21 -32 l-11 -32 -40 64 c-22 36 -43 74 -46 85
-4 11 -10 22 -13 25 -11 8 -51 80 -51 91 0 5 57 9 135 9 74 0 135 -2 135 -3z
m650 -4 c0 -1 -26 -33 -58 -70 -31 -38 -63 -80 -71 -95 l-14 -28 -22 23 c-11
12 -20 24 -19 26 2 2 -4 10 -12 19 -19 19 -94 117 -94 123 0 3 65 4 145 4 80
0 145 -1 145 -2z m10 -1384 c0 -1355 -1 -1362 -20 -1344 -16 15 -20 33 -22 99
l-2 81 -5 -69 -6 -70 -29 40 c-17 21 -33 41 -36 44 -16 13 -18 44 -5 87 17 54
17 59 9 50 -3 -3 -12 -23 -19 -44 -12 -33 -14 75 -17 782 -3 969 -3 1092 1
1332 l2 182 71 96 c40 52 73 95 75 95 2 0 3 -613 3 -1361z m-610 1176 c17 -82
49 -224 71 -316 38 -161 54 -238 104 -484 14 -66 33 -158 44 -204 11 -47 18
-88 15 -93 -3 -4 3 -30 12 -58 13 -41 14 -53 4 -65 -7 -9 -10 -18 -6 -22 3 -3
6 -1 6 5 0 7 4 12 8 12 5 0 8 -18 8 -39 -1 -22 2 -37 6 -35 5 3 8 2 9 -3 0 -4
2 -18 5 -31 2 -14 0 -21 -6 -17 -5 3 -10 -1 -10 -10 0 -10 5 -13 12 -9 8 5 9
2 4 -11 -8 -21 34 -256 44 -250 4 2 7 -13 7 -33 1 -36 23 -188 63 -432 11 -69
20 -129 20 -134 0 -26 -12 12 -43 134 -19 74 -58 218 -86 320 -29 102 -61 223
-72 270 -63 266 -58 248 -143 539 -48 164 -86 314 -86 343 -1 13 -8 41 -16 63
-8 22 -32 105 -54 185 -22 80 -49 178 -60 219 l-21 74 58 128 c32 70 61 122
65 116 3 -7 20 -79 38 -162z m297 -167 c-3 -7 -5 -2 -5 12 0 14 2 19 5 13 2
-7 2 -19 0 -25z m-630 -75 c-2 -16 -4 -5 -4 22 0 28 2 40 4 28 2 -13 2 -35 0
-50z m630 35 c-3 -8 -6 -5 -6 6 -1 11 2 17 5 13 3 -3 4 -12 1 -19z m-447 -168
c6 -74 20 -226 31 -338 12 -112 18 -206 15 -209 -3 -4 -1 -12 6 -20 9 -11 7
-12 -8 -6 -17 6 -17 5 -5 -10 12 -16 8 -22 -13 -18 -5 1 -6 -5 -2 -14 3 -9 6
-29 6 -43 0 -20 3 -23 9 -13 12 18 17 0 31 -114 5 -44 12 -98 15 -120 12 -81
20 -253 12 -248 -5 3 -3 -4 4 -15 9 -14 10 -32 2 -71 -6 -28 -6 -54 -2 -57 5
-3 9 9 9 27 0 18 2 30 5 27 3 -2 7 -213 10 -468 2 -254 3 -461 1 -459 -4 4
-84 126 -121 184 -19 29 -20 65 -23 1080 -2 577 -1 1048 1 1045 3 -3 10 -66
17 -140z m454 -13 c2 -15 0 -27 -5 -27 -5 0 -9 14 -9 32 0 37 7 34 14 -5z
m-487 -174 c-2 -27 -3 -5 -3 47 0 52 1 74 3 48 2 -27 2 -69 0 -95z m488 127
c3 -5 1 -10 -4 -10 -6 0 -11 5 -11 10 0 6 2 10 4 10 3 0 8 -4 11 -10z m5 -160
c0 -5 -5 -10 -11 -10 -5 0 -7 5 -4 10 3 6 8 10 11 10 2 0 4 -4 4 -10z m-3
-173 c-2 -23 -3 -1 -3 48 0 50 1 68 3 42 2 -26 2 -67 0 -90z m120 71 c-3 -8
-6 -5 -6 6 -1 11 2 17 5 13 3 -3 4 -12 1 -19z m-617 -3 c7 -9 8 -15 2 -15 -5
0 -12 7 -16 15 -3 8 -4 15 -2 15 2 0 9 -7 16 -15z m-16 -20 c3 -8 1 -15 -4
-15 -6 0 -10 7 -10 15 0 8 2 15 4 15 2 0 6 -7 10 -15z m16 -48 c0 -7 -4 -6
-10 3 -8 12 -10 10 -11 -10 0 -14 -3 -19 -6 -12 -7 18 5 44 17 37 5 -3 10 -12
10 -18z m563 -23 c-8 -4 -10 -26 -6 -70 3 -41 1 -64 -5 -64 -12 0 -27 83 -18
99 4 5 1 13 -6 17 -8 5 -6 10 8 15 10 4 24 8 29 8 6 -1 5 -3 -2 -5z m55 -49
c-2 -9 -8 -12 -17 -6 -11 7 -11 13 0 32 11 20 14 21 17 7 2 -10 2 -25 0 -33z
m-608 -305 c-1 -144 -5 -258 -10 -255 -5 3 -8 33 -8 68 0 34 -1 67 -3 72 -1 6
-3 60 -4 120 -2 61 -6 124 -9 140 -5 22 -4 25 3 10 l8 -20 5 20 c2 11 1 35 -3
52 -4 19 -3 30 2 27 5 -3 9 2 9 10 0 9 2 16 5 16 3 0 5 -117 5 -260z m610 220
c0 -5 -5 -10 -11 -10 -5 0 -7 5 -4 10 3 6 8 10 11 10 2 0 4 -4 4 -10z m-69
-53 c-8 -8 -11 -3 -11 19 1 25 2 27 11 11 8 -14 8 -22 0 -30z m57 -39 c-1 -54
-14 -39 -16 19 -2 33 1 44 7 33 5 -8 9 -31 9 -52z m-508 12 c0 -5 -5 -10 -11
-10 -5 0 -7 5 -4 10 3 6 8 10 11 10 2 0 4 -4 4 -10z m460 0 c0 -5 -2 -10 -4
-10 -3 0 -8 5 -11 10 -3 6 -1 10 4 10 6 0 11 -4 11 -10z m-596 -331 c-3 -5
-12 -9 -20 -9 -8 0 -14 -8 -14 -17 0 -15 -2 -16 -10 -3 -6 9 -5 17 2 21 5 3
11 18 11 33 l2 27 17 -22 c10 -11 15 -25 12 -30z m405 -79 c-1 -19 -24 53 -32
100 -4 19 2 8 13 -25 11 -33 19 -67 19 -75z m-455 -66 c26 -4 32 -13 16 -27
-9 -8 -11 -8 -6 0 3 6 2 14 -4 18 -5 3 -10 -2 -10 -12 -1 -17 -2 -17 -15 1 -8
11 -15 31 -14 45 l1 26 7 -24 c3 -13 15 -25 25 -27z m86 -1 c0 -24 -3 -33 -9
-25 -7 12 -4 62 5 62 2 0 4 -17 4 -37z m387 -25 c-3 -7 -5 -2 -5 12 0 14 2 19
5 13 2 -7 2 -19 0 -25z m-390 -80 c-2 -13 -4 -3 -4 22 0 25 2 35 4 23 2 -13 2
-33 0 -45z m417 -13 c5 -22 4 -26 -4 -15 -5 8 -10 24 -10 34 0 26 6 18 14 -19z
m-524 5 c0 -5 -2 -10 -4 -10 -3 0 -8 5 -11 10 -3 6 -1 10 4 10 6 0 11 -4 11
-10z m56 -15 c4 -8 10 -12 15 -9 5 3 9 0 9 -5 0 -6 -5 -11 -11 -11 -6 0 -8
-10 -4 -22 5 -22 5 -22 -7 -4 -7 11 -21 28 -30 38 -23 23 -23 28 2 28 11 0 23
-7 26 -15z m52 -142 c-1 -111 -2 -118 -7 -53 -5 64 -9 75 -24 74 -14 -2 -15 1
-6 12 6 8 15 11 20 8 5 -3 9 15 9 40 0 25 2 46 5 46 3 0 4 -57 3 -127z m393
34 c-10 -9 -11 -8 -5 6 3 10 9 15 12 12 3 -3 0 -11 -7 -18z m29 -45 c0 -7 -4
-10 -10 -7 -5 3 -10 16 -10 28 0 18 2 19 10 7 5 -8 10 -21 10 -28z m-73 -104
c-3 -8 -6 -5 -6 6 -1 11 2 17 5 13 3 -3 4 -12 1 -19z m-340 -190 c-3 -7 -5 -2
-5 12 0 14 2 19 5 13 2 -7 2 -19 0 -25z m0 -155 c-3 -10 -5 -4 -5 12 0 17 2
24 5 18 2 -7 2 -21 0 -30z"/>
<path d="M6220 2830 c0 -5 7 -10 16 -10 11 0 15 -6 11 -20 -6 -21 9 -28 16 -7
7 22 -5 47 -24 47 -11 0 -19 -4 -19 -10z"/>
<path d="M6245 2670 c4 -14 7 -38 7 -53 -1 -15 3 -25 8 -22 15 10 12 59 -6 81
-15 18 -15 18 -9 -6z"/>
<path d="M6250 2535 c-8 -9 -8 -15 -2 -15 12 0 26 19 19 26 -2 2 -10 -2 -17
-11z"/>
<path d="M6220 2350 c23 -23 25 -42 9 -72 -9 -17 -13 -18 -20 -7 -6 10 -9 7
-9 -11 l1 -25 24 28 c14 15 25 37 25 48 0 29 -18 59 -35 59 -11 0 -10 -5 5
-20z"/>
<path d="M6245 2169 c-6 -17 -9 -19 -17 -8 -8 11 -9 10 -4 -3 3 -10 1 -18 -4
-18 -6 0 -10 -6 -10 -12 1 -15 50 38 50 53 0 16 -8 10 -15 -12z"/>
<path d="M6250 2049 c0 -5 5 -7 10 -4 6 3 10 8 10 11 0 2 -4 4 -10 4 -5 0 -10
-5 -10 -11z"/>
<path d="M6260 1651 c0 -6 4 -13 10 -16 6 -3 7 1 4 9 -7 18 -14 21 -14 7z"/>
<path d="M6273 1585 c0 -22 2 -30 4 -17 2 12 2 30 0 40 -3 9 -5 -1 -4 -23z"/>
<path d="M6272 1520 c0 -14 2 -19 5 -12 2 6 2 18 0 25 -3 6 -5 1 -5 -13z"/>
<path d="M6254 1395 c-3 -8 -1 -27 4 -42 10 -27 10 -26 11 15 1 43 -5 54 -15
27z"/>
<path d="M6303 1345 c0 -22 2 -30 4 -17 2 12 2 30 0 40 -3 9 -5 -1 -4 -23z"/>
<path d="M6292 1269 c-1 -20 -4 -58 -7 -85 l-5 -49 11 40 c5 22 8 60 6 85 -3
40 -4 41 -5 9z"/>
<path d="M6253 1145 c0 -27 2 -38 4 -22 2 15 2 37 0 50 -2 12 -4 0 -4 -28z"/>
<path d="M6270 1107 c0 -13 -4 -27 -9 -32 -6 -6 -6 -48 -2 -105 l8 -95 2 80
c1 44 6 101 10 128 4 26 4 47 -1 47 -4 0 -8 -10 -8 -23z"/>
<path d="M6280 1001 c0 -5 5 -13 10 -16 6 -3 10 -2 10 4 0 5 -4 13 -10 16 -5
3 -10 2 -10 -4z"/>
<path d="M6232 900 c0 -14 2 -19 5 -12 2 6 2 18 0 25 -3 6 -5 1 -5 -13z"/>
<path d="M6215 830 c-4 -17 -5 -34 -2 -36 3 -3 8 9 12 26 4 17 5 34 2 36 -3 3
-8 -9 -12 -26z"/>
<path d="M6263 825 c0 -22 2 -30 4 -17 2 12 2 30 0 40 -3 9 -5 -1 -4 -23z"/>
<path d="M6232 635 c0 -16 2 -22 5 -12 2 9 2 23 0 30 -3 6 -5 -1 -5 -18z"/>
<path d="M6302 570 c0 -19 2 -27 5 -17 2 9 2 25 0 35 -3 9 -5 1 -5 -18z"/>
<path d="M5730 2354 c0 -6 7 -19 16 -30 14 -18 14 -18 3 6 -14 31 -19 36 -19
24z"/>
<path d="M5800 2221 c0 -6 4 -13 10 -16 6 -3 7 1 4 9 -7 18 -14 21 -14 7z"/>
<path d="M5830 2165 c0 -11 49 -94 50 -84 0 4 -11 27 -25 50 -14 24 -25 40
-25 34z"/>
<path d="M5911 1995 c0 -5 6 -21 14 -35 8 -14 14 -20 14 -15 0 6 -6 21 -14 35
-8 14 -14 21 -14 15z"/>
<path d="M5617 1734 c-4 -4 -7 -14 -7 -23 0 -11 3 -12 11 -4 6 6 10 16 7 23
-2 6 -7 8 -11 4z"/>
<path d="M5612 1670 c0 -14 2 -19 5 -12 2 6 2 18 0 25 -3 6 -5 1 -5 -13z"/>
<path d="M5570 1471 c5 -11 15 -23 20 -26 14 -9 12 19 -2 33 -19 19 -30 14
-18 -7z"/>
<path d="M5646 1305 c-4 -25 -12 -45 -18 -45 -6 0 -8 -9 -5 -20 3 -11 1 -18
-4 -14 -14 9 -10 -43 4 -58 12 -11 12 -16 0 -27 -12 -11 -17 -10 -28 5 -8 11
-15 14 -15 8 0 -6 11 -23 24 -37 l24 -26 15 32 c24 53 30 77 16 77 -8 0 -9 20
-4 75 7 82 1 102 -9 30z"/>
<path d="M5621 1064 c0 -11 3 -14 6 -6 3 7 2 16 -1 19 -3 4 -6 -2 -5 -13z"/>
<path d="M5611 1027 c0 -10 -5 -16 -10 -13 -4 3 -6 -7 -3 -22 4 -26 4 -26 -12
-7 -13 18 -15 18 -16 3 0 -10 9 -22 20 -28 17 -9 20 -7 26 14 3 13 4 35 1 47
-3 16 -5 18 -6 6z"/>
<path d="M3358 3248 c-4 -11 -3 -2534 1 -2720 l1 -68 237 0 c256 0 340 9 420
47 200 93 262 286 250 787 -7 309 -32 424 -114 532 l-37 47 23 36 c99 160 116
260 108 641 -7 310 -17 383 -72 495 -48 100 -126 161 -254 199 -71 21 -556 24
-563 4z m392 -29 l-35 -31 40 26 c74 48 186 30 300 -49 33 -23 67 -56 76 -73
9 -18 22 -38 28 -46 6 -7 23 -47 36 -87 21 -61 27 -101 32 -227 6 -151 6 -153
-18 -178 -13 -14 -39 -35 -58 -47 -20 -12 -29 -23 -22 -25 7 -2 16 -1 20 4 3
5 24 25 45 44 l38 35 -4 -198 c-2 -154 -6 -200 -17 -206 -7 -5 -11 -13 -7 -19
3 -6 -1 -27 -11 -46 -9 -20 -20 -31 -23 -26 -4 6 -24 -2 -49 -21 -24 -17 -40
-25 -36 -19 13 20 88 85 96 83 4 -1 10 4 13 13 5 12 2 13 -17 3 -12 -6 -30
-18 -40 -27 -13 -12 -22 -13 -42 -4 -19 9 -23 8 -19 -2 3 -7 -4 -24 -15 -37
-12 -14 -20 -18 -21 -11 0 26 33 127 44 134 6 4 7 8 1 8 -6 0 -10 103 -11 288
-1 232 -5 299 -18 351 -19 75 -57 147 -75 143 -7 -1 -10 2 -7 6 3 5 -3 17 -14
27 -11 10 -20 14 -20 10 0 -5 -6 -2 -12 7 -24 28 -134 47 -300 49 l-97 1 -49
57 c-27 31 -56 70 -64 86 l-16 30 192 2 191 2 -35 -30z m-180 -261 c5 -23 14
-56 21 -73 7 -16 11 -36 10 -44 -1 -7 2 -10 7 -7 5 3 7 -6 4 -21 -3 -17 -1
-24 6 -19 11 7 10 -13 -3 -45 -7 -19 10 -35 20 -19 3 5 1 10 -5 10 -6 0 -8 5
-5 11 4 6 10 8 13 5 9 -9 10 -66 1 -66 -5 0 -5 -8 -2 -17 6 -16 5 -17 -12 -3
-16 13 -16 11 3 -26 12 -23 18 -45 14 -50 -4 -5 1 -2 11 5 14 11 17 11 17 -2
0 -8 7 -18 15 -21 13 -5 14 -17 10 -68 -4 -35 -8 -68 -10 -75 -2 -7 0 -15 5
-18 6 -4 10 -83 10 -187 l0 -180 -72 -74 c-39 -41 -74 -74 -77 -74 -3 0 -7
253 -9 563 -3 436 -1 559 8 550 7 -6 16 -31 20 -55z m226 -109 c85 -22 93 -54
95 -383 2 -277 -3 -319 -45 -371 -18 -22 -33 -29 -74 -33 l-52 -5 -2 109 c-1
60 -1 210 0 334 1 124 2 255 2 293 0 75 0 75 76 56z m-359 -141 c-3 -8 -6 -5
-6 6 -1 11 2 17 5 13 3 -3 4 -12 1 -19z m43 -22 c0 -3 -7 -3 -15 0 -8 4 -15
13 -15 21 0 12 2 12 15 -1 8 -8 15 -17 15 -20z m220 -45 c0 -24 0 -24 -15 -5
-8 10 -15 25 -15 32 0 7 -5 10 -12 6 -7 -4 -8 -3 -4 4 11 19 46 -9 46 -37z
m-257 -20 c-3 -13 2 -21 17 -26 20 -6 21 -7 3 -21 -27 -21 -30 -18 -31 31 -1
25 3 43 7 40 5 -3 7 -14 4 -24z m77 -142 c0 -11 -4 -17 -10 -14 -5 3 -10 15
-10 26 0 11 5 17 10 14 6 -3 10 -15 10 -26z m-80 -10 c0 -13 8 -23 21 -26 21
-6 21 -7 4 -19 -17 -13 -12 -40 6 -29 5 4 9 -1 9 -9 0 -18 -16 -21 -25 -6 -4
6 -10 8 -15 5 -4 -3 -10 5 -14 18 -9 35 -7 87 4 87 6 0 10 -9 10 -21z m50 -9
c0 -5 -2 -10 -4 -10 -3 0 -8 5 -11 10 -3 6 -1 10 4 10 6 0 11 -4 11 -10z m27
-52 c-3 -7 -5 -2 -5 12 0 14 2 19 5 13 2 -7 2 -19 0 -25z m0 -40 c-3 -8 -6 -5
-6 6 -1 11 2 17 5 13 3 -3 4 -12 1 -19z m425 -20 c-7 -7 -12 -8 -12 -2 0 14
12 26 19 19 2 -3 -1 -11 -7 -17z m-412 -119 c0 -60 -4 -109 -8 -109 -5 0 -8
32 -7 71 0 39 -2 72 -5 74 -3 2 -4 22 -2 44 8 80 22 28 22 -80z m520 14 c-1
-28 -3 -34 -10 -22 -8 14 -3 59 6 59 2 0 4 -17 4 -37z m-80 -9 c0 -8 -4 -12
-10 -9 -5 3 -10 13 -10 21 0 8 5 12 10 9 6 -3 10 -13 10 -21z m8 -51 c6 -2 12
3 12 10 0 8 4 7 10 -3 6 -10 10 -11 10 -2 0 6 7 12 15 12 8 0 15 -4 15 -10 0
-12 -35 -31 -44 -23 -3 3 -6 1 -6 -5 0 -6 -10 -14 -22 -18 -27 -8 -34 -6 -30
8 2 6 -5 8 -15 4 -14 -6 -13 -2 5 14 12 11 22 26 23 33 0 7 3 6 7 -3 4 -8 13
-16 20 -17z m57 -86 c-23 -79 -29 -81 -135 -63 -25 5 -42 5 -39 2 6 -7 15 -9
87 -21 23 -4 42 -11 42 -15 0 -13 -91 -88 -127 -105 -25 -12 -62 -15 -167 -13
l-135 3 74 78 74 77 55 0 c31 0 56 4 56 8 0 5 20 18 44 30 44 22 71 28 62 14
-2 -4 4 -8 15 -8 12 0 18 5 14 13 -3 8 14 26 43 44 26 16 48 25 50 20 2 -5 -4
-34 -13 -64z m-115 28 c0 -2 -6 -5 -13 -8 -8 -3 -14 1 -14 8 0 7 6 11 14 8 7
-3 13 -6 13 -8z m-480 -25 c0 -5 -7 -7 -15 -4 -8 4 -15 8 -15 10 0 2 7 4 15 4
8 0 15 -4 15 -10z m90 -10 c0 -5 -2 -10 -4 -10 -3 0 -8 5 -11 10 -3 6 -1 10 4
10 6 0 11 -4 11 -10z m-65 -19 c-3 -6 -11 -11 -17 -11 -6 0 -6 6 2 15 14 17
26 13 15 -4z m-25 -80 c0 -11 -3 -22 -7 -24 -5 -3 -8 6 -8 19 0 13 3 24 8 24
4 0 7 -9 7 -19z m87 -23 c-3 -7 -5 -2 -5 12 0 14 2 19 5 13 2 -7 2 -19 0 -25z
m-90 -40 c-3 -8 -6 -5 -6 6 -1 11 2 17 5 13 3 -3 4 -12 1 -19z m683 -97 c39
-41 84 -126 75 -141 -4 -6 -2 -10 4 -10 9 0 17 -21 37 -105 l7 -30 -37 33
c-20 17 -40 32 -44 32 -4 0 13 -18 38 -39 l44 -39 4 -256 c4 -289 -11 -437
-53 -535 l-24 -56 -1 47 c0 26 4 49 10 53 5 3 7 12 4 20 -4 8 -9 13 -13 10 -4
-2 -8 1 -8 8 -1 7 -6 36 -12 66 -11 54 -11 54 27 105 21 28 42 58 47 66 11 20
-53 -49 -72 -77 -8 -13 -19 -20 -24 -17 -5 3 -9 -3 -9 -13 0 -10 -13 -34 -29
-53 l-30 -35 14 48 c36 121 27 579 -13 717 -9 30 -16 57 -16 60 -2 20 -83 114
-118 137 l-42 28 50 6 c126 15 144 12 184 -30z m-544 -78 c18 -41 18 -52 -1
-27 -20 27 -19 15 11 -72 22 -62 24 -80 15 -100 -14 -32 -14 -54 0 -34 9 12
10 10 6 -8 -4 -17 -2 -22 7 -19 17 7 39 -39 31 -64 -4 -11 -2 -19 3 -19 5 0
16 -18 24 -39 14 -36 14 -39 0 -33 -14 5 -15 4 -2 -10 8 -9 18 -14 21 -12 4 2
6 -100 7 -227 l0 -231 -60 -67 c-88 -97 -88 -97 -89 1 0 46 -2 142 -4 213 -13
451 -9 848 8 805 5 -14 16 -39 23 -57z m269 -116 c53 -53 59 -91 60 -392 0
-253 -1 -272 -20 -304 -29 -50 -63 -70 -120 -73 l-50 -3 0 345 c-1 190 1 371
3 403 l5 57 44 0 c38 0 51 -6 78 -33z m-383 -27 c4 0 8 -7 8 -16 0 -8 4 -13 9
-9 5 3 12 1 16 -5 4 -6 11 -8 16 -5 5 4 9 -22 8 -62 -1 -51 -3 -61 -9 -41 -12
40 -60 98 -82 98 -16 0 -17 3 -8 20 6 11 8 25 5 31 -4 5 -3 18 1 27 6 14 9 13
17 -10 6 -16 14 -28 19 -28z m-37 -226 c15 -4 22 -13 21 -27 -1 -29 -32 -34
-41 -8 -3 12 -12 21 -19 21 -11 0 -13 13 -6 55 1 6 6 0 12 -13 6 -12 21 -25
33 -28z m94 -171 c-1 -64 -2 -66 -9 -24 -4 25 -12 47 -18 49 -7 2 -12 10 -12
18 0 8 6 11 17 7 11 -4 14 -3 9 5 -4 7 -2 12 3 12 7 0 11 -26 10 -67z m484
-117 c-10 -16 -21 19 -15 49 l6 30 7 -35 c4 -19 5 -39 2 -44z m44 34 c-1 -12
-5 -16 -10 -11 -5 5 -6 14 -3 20 11 16 15 13 13 -9z m-617 -27 c0 -32 -12 -23
-16 12 -1 14 2 23 7 20 5 -4 9 -18 9 -32z m24 12 c3 -8 1 -15 -4 -15 -6 0 -10
7 -10 15 0 8 2 15 4 15 2 0 6 -7 10 -15z m534 -62 c-1 -5 3 -18 10 -30 10 -19
7 -25 -27 -55 -22 -18 -48 -40 -59 -48 -15 -11 -18 -20 -12 -35 8 -19 9 -19 9
2 1 24 35 48 53 37 6 -4 8 -3 5 2 -7 12 0 22 32 49 23 20 23 20 20 0 -2 -11
-8 -23 -14 -27 -6 -5 -5 -8 3 -8 6 0 12 -8 13 -17 0 -10 5 -2 11 17 14 52 24
56 22 8 -2 -73 -25 -128 -76 -183 -68 -74 -94 -82 -272 -84 l-149 -2 67 71
c36 39 66 75 66 81 0 5 4 8 9 4 5 -3 13 -1 16 5 4 6 21 8 38 5 22 -4 45 1 71
14 31 16 42 18 48 8 8 -12 8 -11 12 29 1 6 6 18 12 25 7 8 15 29 19 48 7 34
35 74 35 51 0 -7 5 -6 14 2 8 7 14 15 14 18 -1 12 2 20 7 20 3 0 4 -3 3 -7z
m141 -166 c-7 -15 -16 -24 -20 -21 -5 3 -9 -4 -9 -16 0 -11 -7 -23 -16 -27
-13 -5 -13 -7 -2 -14 10 -7 8 -9 -6 -9 -11 0 -16 -5 -13 -13 3 -8 1 -20 -5
-28 -8 -11 -9 -11 -5 2 3 9 0 22 -6 28 -8 8 1 28 33 76 43 62 74 76 49 22z
m-602 -110 c-2 -23 -3 -1 -3 48 0 50 1 68 3 42 2 -26 2 -67 0 -90z m611 41
c-8 -17 -43 -27 -36 -10 29 60 32 64 39 45 3 -10 2 -26 -3 -35z m-110 -70 c-1
-41 -8 -54 -19 -37 -7 11 -9 10 -9 -3 0 -10 -4 -18 -10 -18 -5 0 -10 4 -10 9
0 13 26 32 33 24 4 -3 7 -1 7 5 0 7 -7 12 -17 12 -14 0 -14 2 2 20 23 26 24
26 23 -12z m126 -83 c-4 -8 -10 -12 -15 -9 -11 6 -2 24 11 24 5 0 7 -7 4 -15z
m-34 1 c0 -2 -7 -7 -16 -10 -8 -3 -12 -2 -9 4 6 10 25 14 25 6z m10 -36 c0
-10 -9 -24 -20 -30 -16 -8 -20 -8 -20 4 0 13 25 46 36 46 2 0 4 -9 4 -20z
m-70 -74 c0 -2 -7 -7 -16 -10 -8 -3 -12 -2 -9 4 6 10 25 14 25 6z"/>
<path d="M3689 3173 c-13 -16 -12 -17 4 -4 16 13 21 21 13 21 -2 0 -10 -8 -17
-17z"/>
<path d="M3888 3163 c7 -3 16 -2 19 1 4 3 -2 6 -13 5 -11 0 -14 -3 -6 -6z"/>
<path d="M3820 3111 c0 -6 4 -13 10 -16 6 -3 7 1 4 9 -7 18 -14 21 -14 7z"/>
<path d="M4060 3040 c0 -5 -5 -9 -11 -7 -6 1 -14 -4 -16 -12 -4 -9 0 -11 15
-7 14 5 27 -2 46 -24 14 -18 26 -36 26 -41 0 -6 5 -7 10 -4 18 11 10 56 -15
80 -24 25 -55 33 -55 15z"/>
<path d="M4145 2760 c-3 -5 -1 -10 4 -10 6 0 11 5 11 10 0 6 -2 10 -4 10 -3 0
-8 -4 -11 -10z"/>
<path d="M4145 2630 c10 -35 25 -49 25 -23 0 11 -7 27 -16 34 -15 12 -16 11
-9 -11z"/>
<path d="M4126 2542 c-2 -4 4 -9 15 -9 11 -1 17 2 14 8 -7 11 -22 12 -29 1z"/>
<path d="M4101 2425 c0 -5 6 -21 14 -35 8 -14 14 -20 14 -15 0 6 -6 21 -14 35
-8 14 -14 21 -14 15z"/>
<path d="M4131 2355 c0 -5 15 -41 34 -80 19 -38 32 -59 29 -45 -8 29 -63 140
-63 125z"/>
<path d="M4137 2211 c-5 -24 -11 -32 -22 -27 -8 3 -15 1 -15 -4 0 -6 7 -10 15
-10 8 0 15 -6 15 -14 0 -7 -7 -19 -15 -26 -8 -7 -15 -17 -15 -23 0 -5 9 -2 20
8 11 10 20 26 20 35 0 13 7 16 28 14 l27 -4 -28 11 c-19 7 -25 15 -19 22 5 7
6 21 2 32 -6 16 -8 14 -13 -14z"/>
<path d="M3551 2724 c0 -11 3 -14 6 -6 3 7 2 16 -1 19 -3 4 -6 -2 -5 -13z"/>
<path d="M3552 2655 c0 -16 2 -22 5 -12 2 9 2 23 0 30 -3 6 -5 -1 -5 -18z"/>
<path d="M3943 2155 c0 -8 4 -12 9 -9 5 3 6 10 3 15 -9 13 -12 11 -12 -6z"/>
<path d="M3821 1974 c0 -11 3 -14 6 -6 3 7 2 16 -1 19 -3 4 -6 -2 -5 -13z"/>
<path d="M4080 1696 c0 -2 8 -10 18 -17 15 -13 16 -12 3 4 -13 16 -21 21 -21
13z"/>
<path d="M4116 1651 c-3 -5 2 -15 12 -22 15 -12 16 -12 5 2 -7 9 -10 19 -6 22
3 4 4 7 0 7 -3 0 -8 -4 -11 -9z"/>
<path d="M4120 1322 c0 -11 7 -22 15 -26 8 -3 15 -17 15 -32 0 -26 1 -27 20
-9 17 15 18 21 6 49 -15 37 -56 50 -56 18z"/>
<path d="M4143 1203 c16 -4 17 -6 3 -16 -11 -9 -13 -20 -7 -47 5 -19 9 -29 10
-21 1 8 7 11 17 7 11 -4 15 -2 11 8 -4 10 -1 13 9 9 17 -6 18 1 4 28 -8 14 -7
19 2 20 17 1 -32 17 -52 17 -9 0 -8 -2 3 -5z"/>
<path d="M4191 938 c-11 -18 -11 -20 2 -15 13 5 14 0 7 -25 -8 -25 -7 -28 5
-18 16 13 19 47 7 67 -5 9 -11 6 -21 -9z"/>
<path d="M3574 1432 c3 -6 2 -12 -4 -14 -12 -4 10 -58 23 -58 14 0 3 73 -12
78 -8 3 -11 0 -7 -6z"/>
<path d="M3591 1216 c-11 -13 -10 -18 3 -31 9 -9 16 -20 16 -25 0 -5 5 -21 11
-37 l11 -28 15 37 c12 31 13 41 1 65 -15 32 -40 40 -57 19z"/>
<path d="M3608 1083 c7 -3 16 -2 19 1 4 3 -2 6 -13 5 -11 0 -14 -3 -6 -6z"/>
<path d="M3605 1031 c-3 -6 -1 -11 4 -11 15 0 14 -27 -1 -33 -7 -2 -10 -8 -5
-12 10 -12 25 5 29 34 3 25 -15 40 -27 22z"/>
<path d="M3884 834 c-10 -8 -13 -13 -6 -9 7 4 21 1 30 -7 16 -12 16 -11 2 6
-14 18 -13 19 3 13 11 -4 16 -3 12 3 -9 14 -18 13 -41 -6z"/>
<path d="M4724 3198 l-19 -23 23 19 c21 18 27 26 19 26 -2 0 -12 -10 -23 -22z"/>
<path d="M2722 3173 c-23 -15 -40 -29 -38 -31 3 -2 72 41 85 54 12 11 -9 1
-47 -23z"/>
<path d="M4744 3164 c3 -9 6 -18 6 -20 0 -2 5 -4 11 -4 8 0 8 4 0 14 -9 11 -9
15 1 19 8 3 6 6 -6 6 -13 1 -16 -4 -12 -15z"/>
<path d="M4588 3146 c-15 -8 -29 -12 -31 -9 -3 2 -8 -1 -12 -7 -3 -6 -3 -10 2
-9 4 1 16 1 25 0 21 -1 13 -31 -9 -31 -8 0 -11 5 -7 13 5 9 4 9 -6 0 -15 -14
-5 -33 19 -33 23 0 73 49 69 68 -4 22 -19 24 -50 8z"/>
<path d="M5050 3076 c0 -4 7 -14 15 -22 8 -9 15 -11 15 -6 0 5 -7 15 -15 22
-8 7 -15 9 -15 6z"/>
<path d="M2990 3011 c0 -6 4 -13 10 -16 6 -3 7 1 4 9 -7 18 -14 21 -14 7z"/>
<path d="M4520 2999 c-7 -11 -9 -23 -6 -26 8 -9 36 17 36 33 0 21 -18 17 -30
-7z"/>
<path d="M3120 2895 c0 -2 18 -14 40 -25 22 -11 40 -18 40 -15 0 2 -18 14 -40
25 -22 11 -40 18 -40 15z"/>
<path d="M5170 2816 c0 -9 5 -16 10 -16 6 0 10 4 10 9 0 6 -4 13 -10 16 -5 3
-10 -1 -10 -9z"/>
<path d="M3091 2775 c0 -5 6 -21 14 -35 8 -14 14 -20 14 -15 0 6 -6 21 -14 35
-8 14 -14 21 -14 15z"/>
<path d="M5174 2725 c-1 -14 2 -25 7 -25 5 0 9 11 9 25 0 33 -15 33 -16 0z"/>
<path d="M3123 2700 c11 -35 100 -230 104 -226 4 4 -78 193 -97 223 -7 10 -10
12 -7 3z"/>
<path d="M5152 2521 c1 -3 -6 -20 -15 -38 -9 -18 -17 -42 -17 -55 1 -20 3 -18
15 9 15 36 47 37 40 2 -3 -12 0 -17 7 -13 11 7 7 -36 -7 -68 -4 -11 -3 -18 3
-18 14 0 44 92 40 123 -2 14 -9 32 -16 40 -13 15 -53 30 -50 18z"/>
<path d="M5170 2225 c0 -9 6 -12 15 -9 8 4 15 10 15 15 0 5 -7 9 -15 9 -8 0
-15 -7 -15 -15z"/>
<path d="M3197 2129 c4 -13 8 -18 11 -10 2 7 -1 18 -6 23 -8 8 -9 4 -5 -13z"/>
<path d="M3211 2034 c0 -11 3 -14 6 -6 3 7 2 16 -1 19 -3 4 -6 -2 -5 -13z"/>
<path d="M5154 1912 c1 -34 5 -62 10 -62 5 0 15 -8 22 -17 12 -16 13 -14 8 17
-3 19 -12 49 -19 65 -7 17 -15 37 -17 44 -2 8 -4 -13 -4 -47z"/>
<path d="M5146 1796 c3 -8 15 -16 26 -19 14 -4 19 -11 15 -21 -4 -9 -2 -16 4
-16 5 0 13 -10 18 -22 7 -20 9 -18 13 16 4 34 1 39 -21 47 -14 5 -34 13 -43
19 -13 7 -16 6 -12 -4z"/>
<path d="M5136 1685 c-15 -12 -20 -29 -22 -75 -2 -42 1 -58 8 -54 7 5 9 1 5
-9 -3 -10 -2 -17 4 -17 6 0 9 8 8 18 -2 9 3 27 9 40 7 12 11 26 8 30 -2 4 5 8
16 8 18 0 19 -5 14 -41 -4 -24 -3 -35 2 -27 5 8 13 13 18 12 5 -1 10 4 12 12
2 9 0 8 -8 -2 -9 -12 -10 -7 -5 20 8 38 8 39 6 57 -1 16 -30 43 -44 43 -7 0
-21 -7 -31 -15z"/>
<path d="M5221 1674 c0 -11 3 -14 6 -6 3 7 2 16 -1 19 -3 4 -6 -2 -5 -13z"/>
<path d="M5187 1453 c-2 -5 -4 -24 -5 -43 -2 -33 -1 -34 13 -16 17 22 20 66 6
66 -6 0 -12 -3 -14 -7z"/>
<path d="M5190 1151 c0 -6 4 -13 10 -16 6 -3 7 1 4 9 -7 18 -14 21 -14 7z"/>
</g>
</svg>
