<?xml version="1.0" standalone="no"?>
<!DOCTYPE svg PUBLIC "-//W3C//DTD SVG 20010904//EN"
 "http://www.w3.org/TR/2001/REC-SVG-20010904/DTD/svg10.dtd">
<svg version="1.0" xmlns="http://www.w3.org/2000/svg"
 width="669.000000pt" height="373.000000pt" viewBox="0 0 669.000000 373.000000"
 preserveAspectRatio="xMidYMid meet">

<g transform="translate(0.000000,373.000000) scale(0.100000,-0.100000)"
fill="#000000" stroke="none">
<path d="M896 2509 c-115 -17 -230 -89 -281 -174 -64 -110 -68 -136 -73 -428
-4 -306 3 -367 53 -472 63 -130 162 -201 318 -226 69 -12 89 -11 165 5 110 22
165 49 224 109 78 79 128 211 128 340 l0 37 -150 0 -150 0 0 -37 c-1 -66 -31
-135 -70 -161 -29 -20 -43 -23 -84 -18 -53 6 -86 29 -114 81 -15 26 -17 67
-17 295 0 256 1 266 23 307 28 54 62 76 116 77 86 2 135 -53 144 -161 l5 -63
91 -1 c107 -2 199 1 205 7 2 2 -1 47 -7 99 -25 217 -145 353 -342 384 -73 12
-100 12 -184 0z m272 -44 c124 -49 197 -141 227 -286 18 -83 19 -102 5 -94
-14 9 -12 -8 3 -25 12 -13 -39 20 -77 50 -38 30 -66 63 -66 79 0 39 -58 108
-130 156 -91 60 -229 49 -324 -26 -49 -39 -96 -107 -96 -139 0 -8 -4 -21 -9
-29 -8 -13 -12 -13 -28 -1 -17 14 -17 13 1 -7 16 -19 17 -31 10 -90 -4 -37 -6
-94 -5 -125 l3 -58 -41 0 c-39 0 -53 11 -31 25 5 3 15 15 21 26 10 20 10 20
-17 3 l-27 -18 7 39 c4 22 12 48 18 58 9 18 10 18 31 0 22 -18 22 -18 5 3 -10
11 -18 25 -18 31 0 6 -9 9 -20 6 -12 -3 -20 0 -20 6 0 7 -5 9 -11 5 -13 -8 -4
27 19 71 l16 30 7 -30 c6 -29 7 -29 8 8 1 27 5 36 14 31 9 -5 9 -4 0 6 -6 7
-9 18 -7 24 2 6 -4 12 -15 12 -15 0 -17 -4 -11 -16 6 -12 0 -30 -21 -61 l-30
-44 6 40 c20 123 62 212 128 271 83 74 177 105 312 101 72 -2 104 -8 163 -32z
m-380 -417 c7 -7 12 -23 12 -37 l-1 -26 -19 24 c-31 36 -23 70 8 39z m-178
-28 c0 -3 -7 -15 -15 -26 -14 -18 -14 -18 -15 7 0 16 5 26 15 26 8 0 15 -3 15
-7z m127 -100 c5 0 22 -13 37 -29 28 -30 28 -30 5 -25 -20 3 -19 2 6 -10 17
-9 26 -15 21 -16 -6 0 -5 -5 2 -12 8 -8 12 -45 12 -102 l0 -90 -47 44 c-26 25
-41 37 -33 27 12 -16 11 -23 -5 -50 l-18 -32 25 23 c13 12 27 22 31 22 14 0
59 -79 51 -91 -4 -7 -3 -9 4 -5 6 3 14 -4 18 -16 15 -49 46 -77 95 -87 27 -6
54 -9 61 -7 7 3 24 7 38 10 14 3 41 19 59 35 19 17 50 32 75 37 34 6 38 8 20
15 -23 8 -38 65 -21 76 6 3 7 1 3 -5 -4 -7 -2 -13 3 -13 26 -3 30 -4 37 -11 4
-5 11 -8 16 -8 5 0 -11 18 -36 39 -34 30 -41 41 -30 45 23 9 222 7 228 -2 2
-4 -26 -33 -64 -63 -46 -36 -70 -63 -74 -82 -9 -45 -65 -117 -114 -148 -76
-48 -145 -62 -211 -42 -77 23 -107 41 -154 93 -50 55 -71 106 -65 151 3 16 1
29 -3 29 -3 0 -10 25 -14 56 -5 44 -3 61 11 82 16 24 16 25 1 13 -16 -12 -17
-9 -17 39 l0 52 30 -7 c19 -4 30 -3 30 4 0 6 -13 11 -30 11 -29 0 -30 1 -30
48 l1 47 18 -22 c11 -13 23 -23 28 -23z m31 20 c15 -25 4 -25 -28 0 -23 18
-23 20 -5 20 11 0 26 -9 33 -20z m42 -36 c0 -8 -4 -12 -10 -9 -5 3 -10 10 -10
16 0 5 5 9 10 9 6 0 10 -7 10 -16z m-130 -89 l0 -45 -35 31 c-19 18 -35 36
-35 40 0 4 15 10 33 12 17 2 33 5 35 5 1 1 2 -18 2 -43z m482 -240 c2 -13 -4
-21 -16 -23 -14 -3 -17 0 -12 13 3 9 6 24 6 33 0 21 17 3 22 -23z"/>
<path d="M698 2369 c-21 -12 -24 -33 -4 -26 8 3 17 1 19 -6 3 -9 7 -9 17 0 13
12 7 43 -7 43 -4 0 -16 -5 -25 -11z"/>
<path d="M657 2273 c-9 -20 -14 -39 -12 -42 3 -2 12 13 20 34 21 49 14 56 -8
8z"/>
<path d="M1350 2184 c0 -6 7 -19 16 -30 14 -18 14 -18 3 6 -14 31 -19 36 -19
24z"/>
<path d="M722 1894 c-7 -8 -8 -14 -3 -14 10 0 25 19 20 25 -2 1 -10 -3 -17
-11z"/>
<path d="M755 1804 l-30 -26 39 23 39 23 -7 -30 c-5 -24 -4 -26 5 -11 11 19 6
47 -8 47 -4 0 -21 -12 -38 -26z"/>
<path d="M800 1550 c0 -5 5 -10 10 -10 6 0 10 5 10 10 0 6 -4 10 -10 10 -5 0
-10 -4 -10 -10z"/>
<path d="M4649 2510 c-71 -9 -176 -58 -228 -105 -48 -45 -95 -132 -117 -216
-23 -90 -31 -461 -12 -584 9 -62 10 -105 4 -140 -11 -60 6 -153 36 -205 56
-94 135 -145 239 -154 44 -4 58 -3 44 3 -11 5 -14 10 -7 10 6 1 12 5 12 10 0
6 -12 6 -32 0 -35 -10 -72 -3 -63 12 8 13 -9 11 -22 -2 -14 -14 -44 3 -105 62
-44 42 -63 69 -38 54 6 -3 10 -1 10 4 0 6 -7 11 -15 11 -12 0 -35 55 -35 87 0
6 -5 13 -12 15 -7 3 -9 14 -3 34 4 17 10 23 12 15 4 -10 7 -11 13 -1 6 9 14 1
28 -26 60 -115 214 -195 381 -197 39 0 68 -4 65 -9 -3 -4 -9 -8 -15 -8 -5 0
-18 -9 -29 -20 -11 -11 -30 -20 -42 -20 -13 -1 -34 -7 -48 -15 l-25 -14 23 -1
c31 0 99 36 145 76 20 19 44 34 53 34 60 0 208 110 245 182 63 124 64 128 64
453 0 289 -1 303 -23 368 -27 76 -81 162 -129 201 -48 40 -131 74 -208 86 -77
11 -85 11 -166 0z m228 -32 c18 -9 47 -19 64 -23 34 -8 154 -118 145 -134 -3
-5 1 -14 9 -21 8 -7 15 -18 15 -25 0 -7 7 -26 15 -41 8 -16 15 -47 15 -68 0
-38 0 -39 -20 -21 -11 10 -20 24 -20 31 0 7 -5 16 -12 20 -8 5 -9 0 -5 -16 3
-13 1 -33 -4 -44 -9 -19 -9 -19 4 -4 18 22 37 5 36 -32 -1 -16 -3 -19 -6 -7
-2 9 -8 17 -13 17 -9 0 6 -87 20 -112 16 -28 12 -33 -22 -33 -30 0 -34 -4 -42
-37 -5 -21 -13 -38 -18 -38 -4 0 -8 -51 -8 -113 0 -185 -31 -291 -103 -357
-38 -34 -44 -36 -50 -12 -3 11 -5 7 -6 -10 -1 -22 -8 -29 -48 -42 -72 -24 -92
-24 -153 -6 -136 41 -215 139 -228 282 -2 32 -8 58 -13 58 -19 0 -39 33 -33
55 5 20 3 23 -20 21 -28 -3 -45 22 -24 35 8 5 14 3 16 -6 2 -9 8 -13 13 -10
12 8 11 36 -1 55 -7 12 -12 12 -29 -4 -20 -18 -20 -18 -18 10 2 21 8 30 24 32
12 2 27 10 35 19 11 14 10 15 -9 9 -20 -6 -24 -1 -38 41 -8 26 -14 37 -12 22
2 -14 -2 -31 -10 -37 -11 -11 -13 1 -13 67 0 44 5 83 10 86 6 3 10 11 10 16 0
6 -4 7 -10 4 -31 -19 11 134 58 215 50 85 136 143 257 174 44 11 210 0 242
-16z m263 -444 c0 -13 -5 -24 -10 -24 -6 0 -9 13 -8 29 3 35 18 31 18 -5z
m-16 -166 c-9 -30 -9 -31 -33 -23 -12 3 -21 15 -21 26 0 15 7 19 31 19 27 0
30 -3 23 -22z m17 -1 c-10 -9 -11 -8 -5 6 3 10 9 15 12 12 3 -3 0 -11 -7 -18z
m-88 -13 c-3 -8 2 -21 12 -28 11 -8 15 -18 10 -25 -5 -9 -11 -7 -21 7 -14 21
-16 74 -2 66 4 -3 5 -11 1 -20z m-633 -209 c0 -22 -4 -25 -35 -25 -25 0 -35 4
-35 16 0 8 4 12 10 9 5 -3 20 1 32 9 29 20 28 21 28 -9z m-93 -202 c-11 -10
-26 8 -20 23 5 15 7 14 15 -1 6 -9 7 -19 5 -22z"/>
<path d="M4466 2389 c-14 -11 -26 -27 -26 -35 0 -20 13 -17 27 5 7 11 24 21
39 23 35 4 45 28 11 28 -13 0 -36 -9 -51 -21z"/>
<path d="M4935 2391 c-3 -6 1 -23 9 -38 14 -26 15 -27 16 -5 0 25 3 26 31 12
10 -6 19 -7 19 -2 0 22 -64 50 -75 33z"/>
<path d="M4675 2381 c-93 -24 -174 -95 -212 -186 -21 -50 -26 -82 -30 -191
l-6 -131 32 -24 c32 -24 32 -24 9 -29 -29 -7 -36 -39 -12 -57 17 -12 17 -13 0
-13 -16 0 -16 -1 1 -24 10 -14 29 -28 43 -31 14 -4 28 -12 32 -18 6 -9 8 -9 8
1 0 6 4 12 8 12 4 0 14 -28 21 -61 12 -58 30 -97 59 -127 20 -22 106 -49 127
-41 11 4 34 12 51 19 22 8 40 27 60 63 27 49 29 61 34 207 4 85 8 148 9 140 2
-8 3 -18 3 -21 -1 -11 61 -4 65 8 3 7 -3 10 -15 6 -13 -3 -25 3 -34 16 -8 12
-17 19 -19 16 -3 -2 -6 5 -6 16 -2 18 1 18 23 -8 19 -23 27 -26 41 -17 26 16
23 56 -5 70 -19 9 -20 13 -8 17 9 4 16 14 16 23 0 15 2 16 18 2 35 -30 46 -33
40 -10 -4 12 -3 24 1 26 13 8 -6 119 -29 174 -28 64 -110 143 -167 160 -56 17
-123 22 -158 13z m120 -151 c47 -23 59 -42 75 -126 13 -66 9 -477 -4 -507 -8
-16 -11 -14 -31 15 -36 53 -125 108 -176 108 -11 0 -18 -4 -14 -10 3 -5 13 -6
22 -3 11 4 14 2 9 -5 -4 -7 1 -9 16 -7 40 8 140 -72 154 -123 11 -40 -54 -92
-115 -92 -49 0 -79 17 -108 61 l-28 42 -3 246 c-5 270 3 334 46 376 23 23 66
42 101 44 8 1 33 -8 56 -19z m-234 -381 c0 -70 -4 -96 -16 -106 -8 -7 -10 -8
-5 -1 17 20 11 31 -14 26 -22 -4 -23 -3 -15 25 4 16 13 35 20 43 10 12 14 33
18 103 1 8 4 12 7 9 3 -3 5 -48 5 -99z m-38 0 c-8 -8 -13 -7 -18 2 -5 8 -4 10
3 5 7 -4 12 -2 12 5 0 7 3 9 7 6 4 -4 2 -12 -4 -18z m-33 -69 c0 -5 -5 -10
-11 -10 -5 0 -7 5 -4 10 3 6 8 10 11 10 2 0 4 -4 4 -10z"/>
<path d="M4537 1810 c3 -11 7 -20 9 -20 2 0 4 9 4 20 0 11 -4 20 -9 20 -5 0
-7 -9 -4 -20z"/>
<path d="M4370 2174 c0 -8 5 -12 10 -9 6 3 10 10 10 16 0 5 -4 9 -10 9 -5 0
-10 -7 -10 -16z"/>
<path d="M4364 1959 c-7 -12 15 -31 28 -23 9 6 -1 34 -12 34 -5 0 -12 -5 -16
-11z"/>
<path d="M4985 1790 c-3 -5 1 -10 10 -10 9 0 13 5 10 10 -3 6 -8 10 -10 10 -2
0 -7 -4 -10 -10z"/>
<path d="M4927 1763 c-4 -3 -7 -11 -7 -17 0 -6 5 -5 12 2 6 6 9 14 7 17 -3 3
-9 2 -12 -2z"/>
<path d="M4945 1667 c-8 -13 -13 -31 -9 -40 5 -14 8 -14 27 4 12 11 27 17 35
14 9 -3 12 2 10 18 -4 32 -42 35 -63 4z"/>
<path d="M4484 1565 c-8 -19 2 -45 16 -45 5 0 10 8 10 18 0 14 2 15 10 2 8
-13 10 -13 10 2 0 25 -38 44 -46 23z"/>
<path d="M1761 2487 c-6 -7 -38 -110 -71 -228 -33 -118 -74 -257 -90 -309 -25
-83 -58 -198 -130 -460 -10 -36 -29 -105 -44 -154 -14 -48 -26 -92 -26 -97 0
-6 63 -8 147 -7 l147 3 26 90 c14 50 29 98 33 108 6 15 22 17 150 17 l143 0
18 -59 c10 -32 23 -81 30 -108 l12 -48 148 -3 148 -3 -7 33 c-4 18 -17 69 -30
113 -31 104 -58 200 -85 300 -12 44 -31 107 -41 139 -26 81 -25 86 15 86 48 0
95 19 142 57 23 18 43 33 45 33 2 0 4 -170 4 -377 l0 -378 143 -3 142 -3 0
226 0 225 53 0 53 0 76 -182 c43 -101 85 -202 95 -225 l18 -43 153 0 c161 0
168 2 142 48 -10 18 -53 111 -115 252 -59 134 -63 143 -78 181 l-15 35 54 48
c74 65 116 154 122 260 11 187 -67 336 -212 402 -76 35 -183 45 -421 42 l-210
-3 -3 -118 -3 -118 -20 23 c-13 15 -11 8 6 -18 14 -23 28 -57 32 -77 5 -31 1
-40 -26 -67 -22 -23 -37 -30 -51 -25 -15 5 -20 2 -20 -14 0 -26 -33 -36 -62
-17 -24 14 -59 8 -73 -13 -10 -17 -25 -13 -25 8 0 14 -5 18 -19 14 -10 -3 -22
0 -25 6 -5 7 -1 8 11 4 10 -3 15 -3 11 2 -4 4 -3 14 4 22 8 11 7 12 -6 7 -31
-12 -65 5 -80 41 -8 19 -22 35 -30 35 -9 0 -16 2 -16 4 0 17 24 60 50 90 18
20 25 34 17 30 -12 -4 -21 14 -42 83 -15 48 -32 91 -39 95 -6 4 -68 8 -137 8
-93 0 -129 -4 -138 -13z m201 -69 l-62 -63 -62 63 -63 62 125 0 125 0 -63 -62z
m987 52 c169 -19 274 -111 310 -272 6 -25 5 -38 -1 -38 -7 0 -6 -5 1 -13 8
-11 3 -16 -26 -25 -44 -13 -48 -11 -33 18 6 12 9 24 6 27 -3 4 -12 -10 -21
-30 -22 -53 -31 -52 -43 6 -22 106 -48 141 -146 196 -33 19 -53 21 -207 21
-99 0 -168 4 -165 9 4 5 -3 7 -14 4 -12 -3 -30 2 -43 13 -21 18 -21 17 1 -7
l23 -27 -3 -361 c-3 -324 -5 -362 -20 -377 -16 -17 -18 -17 -24 0 -9 22 4 34
17 16 9 -12 10 -12 5 3 -3 10 -6 29 -6 42 0 14 -6 22 -15 21 -22 -2 -64 74
-54 99 6 17 8 17 8 3 1 -11 9 -18 22 -18 32 0 22 45 -11 46 -17 0 -24 5 -21
15 1 8 9 36 16 64 7 27 11 53 9 57 -3 5 2 15 10 24 14 14 14 19 2 42 -8 15
-26 71 -40 124 -20 76 -26 121 -26 203 0 58 3 105 7 105 4 0 20 -12 37 -27 17
-16 24 -19 16 -8 -8 11 -24 28 -35 37 -19 17 -11 17 180 18 110 0 238 -5 284
-10z m-884 -123 c16 -44 16 -51 3 -61 -8 -6 -21 -29 -28 -51 -7 -22 -17 -46
-23 -53 -6 -8 -10 -36 -10 -64 1 -65 -9 -50 -48 77 -17 55 -34 112 -39 126 -7
23 -3 32 24 58 l33 32 13 -41 c13 -40 26 -57 36 -47 3 3 -1 20 -9 38 -7 19
-12 39 -10 46 8 24 40 -9 58 -60z m-175 5 c0 -26 -238 -740 -256 -767 -8 -12
-11 -24 -8 -28 3 -3 -6 -43 -22 -89 -24 -72 -29 -80 -36 -58 -6 20 -7 17 -3
-10 5 -33 1 -38 -51 -78 -60 -46 -93 -64 -80 -43 4 7 9 22 11 34 3 27 30 129
56 217 11 36 25 83 31 105 6 22 19 69 30 103 11 35 26 87 33 115 21 82 75 273
108 380 24 77 33 97 48 97 11 0 19 5 19 11 0 5 4 7 10 4 5 -3 16 10 24 30 l16
36 35 -27 c19 -14 35 -29 35 -32z m1046 -135 c63 -33 83 -135 42 -217 -28 -56
-70 -72 -173 -68 l-70 3 -3 140 c-1 76 0 145 3 153 7 20 158 12 201 -11z m192
-83 c7 -23 7 -45 1 -61 -6 -16 -6 -22 1 -18 18 11 10 -39 -15 -90 -32 -67 -41
-77 -105 -116 l-55 -34 -159 -3 c-91 -2 -162 0 -168 6 -6 6 10 26 43 56 l51
46 98 0 c119 0 141 7 171 57 13 21 27 40 31 41 4 2 8 13 8 25 0 12 10 33 21
47 11 14 17 18 13 10 -7 -13 -5 -13 9 -1 14 11 20 11 34 0 16 -13 16 -12 1 9
-15 22 -14 62 1 62 4 0 13 -16 19 -36z m-508 -21 c0 -15 2 -16 10 -3 7 12 10
11 16 -5 4 -11 16 -31 26 -44 10 -13 19 -38 19 -55 l2 -31 7 35 7 35 4 -40 c5
-71 1 -83 -42 -122 -73 -66 -69 -71 -69 97 0 93 4 150 10 150 6 0 10 -8 10
-17z m650 -5 c-1 -7 -7 -24 -14 -37 -11 -21 -14 -21 -20 -6 -5 13 -9 15 -20 6
-27 -23 -58 12 -31 36 4 4 5 2 0 -6 -6 -10 -2 -12 16 -6 13 4 31 11 39 16 21
12 30 11 30 -3z m-1236 -103 c4 -19 3 -25 -3 -15 -4 8 -11 29 -15 45 -4 19 -3
25 3 15 4 -8 11 -28 15 -45z m-105 -57 c11 -46 29 -117 40 -158 11 -41 21 -78
21 -82 0 -5 -40 -8 -90 -8 -49 0 -90 2 -90 4 0 1 12 48 26 102 14 54 33 127
42 162 9 34 19 62 23 62 4 0 16 -37 28 -82z m151 -48 c3 -3 16 -26 29 -52 14
-25 33 -57 44 -70 l18 -23 -11 24 c-12 23 -12 23 24 -4 21 -16 36 -37 37 -49
0 -20 1 -20 9 -1 9 23 7 29 43 -95 52 -173 85 -297 92 -342 4 -27 3 -27 -63
22 -37 27 -72 62 -79 77 -20 48 -41 117 -48 158 -4 22 -12 45 -17 52 -5 6 -17
40 -28 75 -10 34 -35 115 -54 178 -40 128 -42 141 -18 90 9 -19 19 -37 22 -40z
m920 -126 c24 -8 50 -24 58 -36 12 -16 16 -17 23 -7 7 11 9 10 9 -3 0 -9 4
-18 9 -20 9 -3 212 -448 205 -448 -2 0 -45 28 -94 62 l-90 61 -2 66 c-1 64 -1
64 -7 18 l-6 -47 -59 132 c-33 73 -70 157 -82 186 -13 28 -20 52 -16 52 4 0
27 -7 52 -16z m-357 -214 c1 -8 8 -21 15 -28 6 -7 12 -20 12 -28 0 -8 5 -14
10 -14 6 0 10 5 10 10 0 6 5 10 10 10 6 0 10 -49 10 -127 l0 -127 -59 58 -60
59 3 96 c2 53 4 128 6 166 l2 70 19 -65 c10 -36 20 -72 22 -80z m-610 108 c18
-12 48 -37 67 -55 l34 -33 -234 0 -235 1 44 39 c68 61 94 70 199 70 81 0 98
-3 125 -22z"/>
<path d="M3065 2390 c3 -5 8 -10 11 -10 2 0 4 5 4 10 0 6 -5 10 -11 10 -5 0
-7 -4 -4 -10z"/>
<path d="M3215 2180 c10 -11 20 -20 22 -20 2 0 -2 9 -9 20 -7 11 -17 20 -22
20 -5 0 -1 -9 9 -20z"/>
<path d="M2546 1914 c-4 -10 -1 -21 6 -25 16 -10 25 18 10 33 -6 6 -12 3 -16
-8z"/>
<path d="M1745 2296 c-11 -8 -15 -18 -10 -26 4 -7 2 -16 -6 -21 -11 -6 -9 -9
8 -9 16 0 23 8 28 31 8 37 4 43 -20 25z"/>
<path d="M1746 2215 c-3 -8 -1 -15 4 -15 6 0 10 7 10 15 0 8 -2 15 -4 15 -2 0
-6 -7 -10 -15z"/>
<path d="M1665 2029 c-4 -6 -5 -12 -2 -15 2 -3 7 2 10 11 7 17 1 20 -8 4z"/>
<path d="M1686 1883 c-6 -14 -5 -15 5 -6 7 7 10 15 7 18 -3 3 -9 -2 -12 -12z"/>
<path d="M1570 1685 c0 -5 5 -17 10 -25 5 -8 10 -10 10 -5 0 6 -5 17 -10 25
-5 8 -10 11 -10 5z"/>
<path d="M1543 1547 c0 -28 4 -43 8 -35 4 7 4 29 -1 48 -8 34 -8 33 -7 -13z"/>
<path d="M1552 1470 c0 -14 2 -19 5 -12 2 6 2 18 0 25 -3 6 -5 1 -5 -13z"/>
<path d="M1493 1418 c-22 -38 -34 -68 -28 -68 3 0 16 23 30 50 28 56 27 67 -2
18z"/>
<path d="M3030 2001 c0 -5 5 -13 10 -16 6 -3 10 -2 10 4 0 5 -4 13 -10 16 -5
3 -10 2 -10 -4z"/>
<path d="M2211 1654 c0 -11 3 -14 6 -6 3 7 2 16 -1 19 -3 4 -6 -2 -5 -13z"/>
<path d="M2247 1510 c3 -11 7 -20 9 -20 2 0 4 9 4 20 0 11 -4 20 -9 20 -5 0
-7 -9 -4 -20z"/>
<path d="M2270 1471 c0 -6 4 -13 10 -16 6 -3 7 1 4 9 -7 18 -14 21 -14 7z"/>
<path d="M2231 1414 c0 -11 3 -14 6 -6 3 7 2 16 -1 19 -3 4 -6 -2 -5 -13z"/>
<path d="M3102 1620 c0 -19 2 -27 5 -17 2 9 2 25 0 35 -3 9 -5 1 -5 -18z"/>
<path d="M3380 1864 l0 -635 293 3 c261 3 297 6 340 23 85 35 138 83 177 160
33 66 35 74 35 175 0 129 -22 188 -95 253 l-47 43 33 38 c60 69 69 99 69 226
0 105 -2 119 -27 165 -53 101 -138 156 -267 175 -36 5 -166 10 -288 10 l-223
0 0 -636z m507 606 c123 -14 218 -73 254 -158 32 -75 32 -91 -4 -124 -17 -17
-33 -25 -35 -19 -5 14 -28 -9 -35 -35 -4 -14 -5 -12 -4 6 0 14 -11 50 -25 80
-59 122 -84 133 -329 140 -168 4 -189 7 -210 25 l-24 20 17 -20 c16 -19 17
-63 18 -524 0 -477 -1 -503 -18 -489 -9 9 -23 13 -31 11 -9 -4 -11 1 -8 13 3
11 8 28 11 39 3 11 1 27 -5 35 -10 13 -10 13 -6 -1 3 -9 1 -22 -4 -30 -6 -10
-9 -4 -9 19 0 17 4 32 8 32 5 0 8 15 8 33 0 17 4 50 8 72 16 75 -4 28 -28 -65
-17 -67 -25 -86 -29 -69 -4 14 -1 27 6 31 9 6 9 10 -1 16 -7 5 -13 24 -13 43
-6 405 -9 905 -5 915 4 11 45 14 208 14 112 0 240 -4 285 -10z m-25 -250 c37
-17 53 -63 49 -137 -1 -13 -14 -37 -30 -55 -28 -31 -31 -32 -125 -36 l-96 -4
0 119 c0 66 3 123 8 127 11 12 163 1 194 -14z m318 -37 c0 -5 -5 -15 -10 -23
-8 -12 -10 -11 -10 8 0 12 5 22 10 22 6 0 10 -3 10 -7z m-150 -159 c-22 -53
-51 -82 -121 -122 -30 -16 -57 -19 -204 -21 -111 -1 -167 1 -160 8 6 5 32 27
58 49 48 39 49 39 140 41 116 2 154 19 183 80 17 35 22 40 28 26 6 -17 9 -16
34 7 15 14 34 28 42 30 24 8 24 -38 0 -98z m70 -179 c21 -13 50 -44 64 -68 28
-47 33 -72 14 -61 -7 4 -3 -3 10 -15 18 -18 22 -33 22 -79 -1 -54 -1 -56 -15
-32 -9 16 -14 19 -15 10 0 -11 -9 -15 -27 -14 -44 2 -45 3 -39 19 3 8 1 14 -5
12 -6 -1 -21 27 -32 63 -20 58 -69 140 -86 140 -3 0 -24 11 -46 25 l-40 24 78
1 c65 0 83 -4 117 -25z m-226 -105 c42 -15 61 -56 61 -128 0 -59 -2 -66 -33
-93 -31 -28 -35 -29 -137 -29 l-105 0 0 130 0 130 94 0 c52 0 106 -4 120 -10z
m194 -162 c6 -69 -47 -152 -122 -190 -36 -19 -62 -22 -225 -26 -206 -4 -200
-7 -120 66 l46 42 109 0 c128 0 152 10 199 84 24 38 31 44 37 29 6 -16 7 -16
7 -1 1 19 29 39 51 35 9 -1 16 -16 18 -39z m-488 -152 c-28 -27 -54 -46 -57
-42 -4 3 -1 12 5 18 7 7 12 25 12 41 0 16 7 35 15 43 13 14 15 14 15 0 0 -8 5
-18 11 -22 14 -8 30 16 24 36 -3 8 2 6 10 -5 15 -19 13 -23 -35 -69z m-96 -71
c4 -11 -1 -15 -19 -15 -18 0 -23 4 -19 15 4 8 12 15 19 15 7 0 15 -7 19 -15z
m-54 -59 c0 -3 -4 -8 -10 -11 -5 -3 -10 -1 -10 4 0 6 5 11 10 11 6 0 10 -2 10
-4z"/>
<path d="M3435 2430 c10 -11 20 -20 23 -20 3 0 -3 9 -13 20 -10 11 -20 20 -23
20 -3 0 3 -9 13 -20z"/>
<path d="M3480 1411 c0 -6 4 -12 8 -15 5 -3 9 1 9 9 0 8 -4 15 -9 15 -4 0 -8
-4 -8 -9z"/>
<path d="M3999 1543 c-13 -16 -12 -17 4 -4 9 7 17 15 17 17 0 8 -8 3 -21 -13z"/>
<path d="M5277 2494 c-4 -4 -7 -290 -7 -636 l0 -629 143 3 142 3 -2 315 c-3
359 -8 348 76 180 26 -52 93 -186 150 -297 l103 -203 139 0 139 0 -2 633 -3
632 -144 3 -144 3 7 -333 c4 -183 3 -329 -1 -324 -4 4 -80 152 -169 329 l-161
322 -130 3 c-71 1 -132 -1 -136 -4z m261 -41 c20 -30 36 -62 203 -398 60 -121
117 -236 128 -255 10 -19 22 -51 26 -70 4 -19 20 -73 35 -120 15 -47 35 -110
43 -140 15 -52 15 -54 -1 -31 -17 24 -35 52 -97 156 -19 33 -67 111 -105 173
-39 63 -70 116 -70 118 0 4 -198 330 -239 394 -41 65 -42 75 -4 111 19 19 39
43 45 54 6 11 -12 -5 -39 -35 l-50 -54 -56 56 c-32 31 -57 59 -57 62 0 3 49 6
109 6 108 0 110 0 129 -27z m552 -20 c-66 -69 -72 -73 -90 -60 -12 9 -13 9 -2
-3 9 -11 12 -121 12 -479 0 -411 -3 -512 -14 -430 -3 24 -9 43 -27 87 -6 15
-6 21 1 17 17 -11 11 7 -7 21 -15 11 -15 13 -3 14 13 0 13 1 0 11 -11 8 -12
12 -3 16 14 5 2 35 -23 60 -7 7 -17 37 -23 66 -11 60 -24 710 -14 720 3 4 58
7 122 7 l115 0 -44 -47z m-781 -258 l8 -70 3 75 c2 41 5 62 7 47 4 -25 28 -35
28 -11 1 21 21 43 33 35 13 -8 16 -141 12 -637 l-2 -262 -53 -46 c-30 -25 -55
-46 -57 -46 -2 0 -3 26 -2 58 0 31 2 260 3 507 2 248 5 443 7 435 2 -8 8 -46
13 -85z"/>
<path d="M5690 2036 c0 -2 8 -10 18 -17 15 -13 16 -12 3 4 -13 16 -21 21 -21
13z"/>
<path d="M5930 2435 c13 -14 26 -25 28 -25 3 0 -5 11 -18 25 -13 14 -26 25
-28 25 -3 0 5 -11 18 -25z"/>
<path d="M5941 1714 c0 -11 3 -14 6 -6 3 7 2 16 -1 19 -3 4 -6 -2 -5 -13z"/>
<path d="M5375 2090 c3 -5 8 -10 11 -10 2 0 4 5 4 10 0 6 -5 10 -11 10 -5 0
-7 -4 -4 -10z"/>
<path d="M5322 2055 c-1 -22 5 -74 12 -115 17 -97 18 -41 1 70 -8 55 -13 71
-13 45z"/>
<path d="M5352 1820 c0 -19 2 -27 5 -17 2 9 2 25 0 35 -3 9 -5 1 -5 -18z"/>
<path d="M5360 1691 c0 -5 5 -13 10 -16 6 -3 10 -2 10 4 0 5 -4 13 -10 16 -5
3 -10 2 -10 -4z"/>
<path d="M2238 2353 c7 -3 16 -2 19 1 4 3 -2 6 -13 5 -11 0 -14 -3 -6 -6z"/>
<path d="M2313 2283 c-15 -5 -17 -39 -4 -48 5 -3 12 -1 16 5 3 5 15 10 26 10
11 0 17 4 14 10 -9 15 -39 28 -52 23z"/>
<path d="M2125 2215 c-29 -28 -31 -47 -10 -65 12 -10 15 -9 15 5 0 14 7 16 40
13 35 -3 40 -1 40 18 0 22 -28 54 -49 54 -6 0 -23 -11 -36 -25z"/>
<path d="M2420 2190 c0 -5 5 -10 10 -10 6 0 10 5 10 10 0 6 -4 10 -10 10 -5 0
-10 -4 -10 -10z"/>
<path d="M2374 2135 c-3 -8 -3 -19 1 -25 9 -14 35 6 35 26 0 19 -29 18 -36 -1z"/>
<path d="M975 1850 c0 -17 4 -26 12 -23 14 6 13 41 -2 46 -5 3 -10 -8 -10 -23z"/>
<path d="M4560 1180 c0 -5 5 -10 11 -10 5 0 7 5 4 10 -3 6 -8 10 -11 10 -2 0
-4 -4 -4 -10z"/>
<path d="M4470 1160 c8 -5 20 -10 25 -10 6 0 3 5 -5 10 -8 5 -19 10 -25 10 -5
0 -3 -5 5 -10z"/>
<path d="M4715 1160 c-8 -13 5 -13 25 0 13 8 13 10 -2 10 -9 0 -20 -4 -23 -10z"/>
</g>
</svg>
